<?xml version="1.0" encoding="utf-8" standalone="no"?>
<!DOCTYPE svg PUBLIC "-//W3C//DTD SVG 1.1//EN"
  "http://www.w3.org/Graphics/SVG/1.1/DTD/svg11.dtd">
<svg xmlns:xlink="http://www.w3.org/1999/xlink" width="385.452625pt" height="242.56pt" viewBox="0 0 385.452625 242.56" xmlns="http://www.w3.org/2000/svg" version="1.1">
 <metadata>
  <rdf:RDF xmlns:dc="http://purl.org/dc/elements/1.1/" xmlns:cc="http://creativecommons.org/ns#" xmlns:rdf="http://www.w3.org/1999/02/22-rdf-syntax-ns#">
   <cc:Work>
    <dc:type rdf:resource="http://purl.org/dc/dcmitype/StillImage"/>
    <dc:date>2026-01-05T14:22:15.549285</dc:date>
    <dc:format>image/svg+xml</dc:format>
    <dc:creator>
     <cc:Agent>
      <dc:title>Matplotlib v3.10.8, https://matplotlib.org/</dc:title>
     </cc:Agent>
    </dc:creator>
   </cc:Work>
  </rdf:RDF>
 </metadata>
 <defs>
  <style type="text/css">*{stroke-linejoin: round; stroke-linecap: butt}</style>
 </defs>
 <g id="figure_1">
  <g id="patch_1">
   <path d="M 0 242.56 
L 385.452625 242.56 
L 385.452625 0 
L 0 0 
L 0 242.56 
z
" style="fill: none"/>
  </g>
  <g id="axes_1">
   <g id="patch_2">
    <path d="M 256.812 112.78 
C 261.585656 112.78 266.164438 110.883406 269.539922 107.507922 
C 272.915406 104.132438 274.812 99.553656 274.812 94.78 
C 274.812 90.006344 272.915406 85.427562 269.539922 82.052078 
C 266.164438 78.676594 261.585656 76.78 256.812 76.78 
C 252.038344 76.78 247.459562 78.676594 244.084078 82.052078 
C 240.708594 85.427562 238.812 90.006344 238.812 94.78 
C 238.812 99.553656 240.708594 104.132438 244.084078 107.507922 
C 247.459562 110.883406 252.038344 112.78 256.812 112.78 
L 256.812 112.78 
z
" clip-path="url(#p50a5d66557)" style="fill: none; stroke: #2563eb; stroke-width: 2; stroke-linejoin: miter"/>
   </g>
   <g id="line2d_1">
    <path d="M 76.812 103.78 
L 103.812 103.78 
L 103.812 94.78 
L 139.812 94.78 
L 139.812 112.78 
L 103.812 112.78 
L 103.812 103.78 
M 139.812 103.78 
L 166.812 103.78 
" clip-path="url(#p50a5d66557)" style="fill: none; stroke: #1f2937; stroke-width: 2; stroke-linecap: round"/>
   </g>
   <g id="line2d_2">
    <path d="M 130.812 85.78 
L 148.812 85.78 
L 166.812 85.78 
" clip-path="url(#p50a5d66557)" style="fill: none; stroke: #000000; stroke-width: 2; stroke-linecap: round"/>
   </g>
   <g id="line2d_3">
    <path d="M 130.812 121.78 
L 148.812 121.78 
L 166.812 121.78 
" clip-path="url(#p50a5d66557)" style="fill: none; stroke: #000000; stroke-width: 2; stroke-linecap: round"/>
   </g>
   <g id="line2d_4">
    <path d="M 256.812 139.78 
L 256.812 112.78 
L 256.812 112.78 
M 256.812 76.78 
L 256.812 76.78 
L 256.812 49.78 
" clip-path="url(#p50a5d66557)" style="fill: none; stroke: #2563eb; stroke-width: 2; stroke-linecap: round"/>
   </g>
   <g id="line2d_5">
    <path d="M 256.812 103.78 
L 256.812 94.78 
" clip-path="url(#p50a5d66557)" style="fill: none; stroke: #2563eb; stroke-width: 2; stroke-linecap: round"/>
   </g>
   <g id="patch_3">
    <path d="M 254.112 94.78 
L 256.812 85.78 
L 259.512 94.78 
z
" clip-path="url(#p50a5d66557)" style="fill: #2563eb"/>
   </g>
   <g id="line2d_6">
    <path d="M 256.812 49.78 
L 274.812 49.78 
L 292.812 49.78 
" clip-path="url(#p50a5d66557)" style="fill: none; stroke: #000000; stroke-width: 2; stroke-linecap: round"/>
   </g>
   <g id="line2d_7">
    <path d="M 292.812 49.78 
L 292.812 76.78 
L 301.812 79.78 
L 283.812 85.78 
L 301.812 91.78 
L 283.812 97.78 
L 301.812 103.78 
L 283.812 109.78 
L 292.812 112.78 
L 292.812 139.78 
" clip-path="url(#p50a5d66557)" style="fill: none; stroke: #059669; stroke-width: 2; stroke-linecap: round"/>
   </g>
   <g id="line2d_8">
    <path d="M 292.812 49.78 
L 319.812 49.78 
L 346.812 49.78 
" clip-path="url(#p50a5d66557)" style="fill: none; stroke: #000000; stroke-width: 2; stroke-linecap: round"/>
   </g>
   <g id="line2d_9">
    <path d="M 292.812 139.78 
L 319.812 139.78 
L 346.812 139.78 
" clip-path="url(#p50a5d66557)" style="fill: none; stroke: #000000; stroke-width: 2; stroke-linecap: round"/>
   </g>
   <g id="line2d_10">
    <path d="M 256.812 139.78 
L 274.812 139.78 
L 292.812 139.78 
" clip-path="url(#p50a5d66557)" style="fill: none; stroke: #000000; stroke-width: 2; stroke-linecap: round"/>
   </g>
   <g id="text_1">
    <!-- Circuito Original -->
    <g transform="translate(0.076844 13.215312) scale(0.11 -0.11)">
     <defs>
      <path id="DejaVuSans-43" d="M 4122 4306 
L 4122 3641 
Q 3803 3938 3442 4084 
Q 3081 4231 2675 4231 
Q 1875 4231 1450 3742 
Q 1025 3253 1025 2328 
Q 1025 1406 1450 917 
Q 1875 428 2675 428 
Q 3081 428 3442 575 
Q 3803 722 4122 1019 
L 4122 359 
Q 3791 134 3420 21 
Q 3050 -91 2638 -91 
Q 1578 -91 968 557 
Q 359 1206 359 2328 
Q 359 3453 968 4101 
Q 1578 4750 2638 4750 
Q 3056 4750 3426 4639 
Q 3797 4528 4122 4306 
z
" transform="scale(0.015625)"/>
      <path id="DejaVuSans-69" d="M 603 3500 
L 1178 3500 
L 1178 0 
L 603 0 
L 603 3500 
z
M 603 4863 
L 1178 4863 
L 1178 4134 
L 603 4134 
L 603 4863 
z
" transform="scale(0.015625)"/>
      <path id="DejaVuSans-72" d="M 2631 2963 
Q 2534 3019 2420 3045 
Q 2306 3072 2169 3072 
Q 1681 3072 1420 2755 
Q 1159 2438 1159 1844 
L 1159 0 
L 581 0 
L 581 3500 
L 1159 3500 
L 1159 2956 
Q 1341 3275 1631 3429 
Q 1922 3584 2338 3584 
Q 2397 3584 2469 3576 
Q 2541 3569 2628 3553 
L 2631 2963 
z
" transform="scale(0.015625)"/>
      <path id="DejaVuSans-63" d="M 3122 3366 
L 3122 2828 
Q 2878 2963 2633 3030 
Q 2388 3097 2138 3097 
Q 1578 3097 1268 2742 
Q 959 2388 959 1747 
Q 959 1106 1268 751 
Q 1578 397 2138 397 
Q 2388 397 2633 464 
Q 2878 531 3122 666 
L 3122 134 
Q 2881 22 2623 -34 
Q 2366 -91 2075 -91 
Q 1284 -91 818 406 
Q 353 903 353 1747 
Q 353 2603 823 3093 
Q 1294 3584 2113 3584 
Q 2378 3584 2631 3529 
Q 2884 3475 3122 3366 
z
" transform="scale(0.015625)"/>
      <path id="DejaVuSans-75" d="M 544 1381 
L 544 3500 
L 1119 3500 
L 1119 1403 
Q 1119 906 1312 657 
Q 1506 409 1894 409 
Q 2359 409 2629 706 
Q 2900 1003 2900 1516 
L 2900 3500 
L 3475 3500 
L 3475 0 
L 2900 0 
L 2900 538 
Q 2691 219 2414 64 
Q 2138 -91 1772 -91 
Q 1169 -91 856 284 
Q 544 659 544 1381 
z
M 1991 3584 
L 1991 3584 
z
" transform="scale(0.015625)"/>
      <path id="DejaVuSans-74" d="M 1172 4494 
L 1172 3500 
L 2356 3500 
L 2356 3053 
L 1172 3053 
L 1172 1153 
Q 1172 725 1289 603 
Q 1406 481 1766 481 
L 2356 481 
L 2356 0 
L 1766 0 
Q 1100 0 847 248 
Q 594 497 594 1153 
L 594 3053 
L 172 3053 
L 172 3500 
L 594 3500 
L 594 4494 
L 1172 4494 
z
" transform="scale(0.015625)"/>
      <path id="DejaVuSans-6f" d="M 1959 3097 
Q 1497 3097 1228 2736 
Q 959 2375 959 1747 
Q 959 1119 1226 758 
Q 1494 397 1959 397 
Q 2419 397 2687 759 
Q 2956 1122 2956 1747 
Q 2956 2369 2687 2733 
Q 2419 3097 1959 3097 
z
M 1959 3584 
Q 2709 3584 3137 3096 
Q 3566 2609 3566 1747 
Q 3566 888 3137 398 
Q 2709 -91 1959 -91 
Q 1206 -91 779 398 
Q 353 888 353 1747 
Q 353 2609 779 3096 
Q 1206 3584 1959 3584 
z
" transform="scale(0.015625)"/>
      <path id="DejaVuSans-20" transform="scale(0.015625)"/>
      <path id="DejaVuSans-4f" d="M 2522 4238 
Q 1834 4238 1429 3725 
Q 1025 3213 1025 2328 
Q 1025 1447 1429 934 
Q 1834 422 2522 422 
Q 3209 422 3611 934 
Q 4013 1447 4013 2328 
Q 4013 3213 3611 3725 
Q 3209 4238 2522 4238 
z
M 2522 4750 
Q 3503 4750 4090 4092 
Q 4678 3434 4678 2328 
Q 4678 1225 4090 567 
Q 3503 -91 2522 -91 
Q 1538 -91 948 565 
Q 359 1222 359 2328 
Q 359 3434 948 4092 
Q 1538 4750 2522 4750 
z
" transform="scale(0.015625)"/>
      <path id="DejaVuSans-67" d="M 2906 1791 
Q 2906 2416 2648 2759 
Q 2391 3103 1925 3103 
Q 1463 3103 1205 2759 
Q 947 2416 947 1791 
Q 947 1169 1205 825 
Q 1463 481 1925 481 
Q 2391 481 2648 825 
Q 2906 1169 2906 1791 
z
M 3481 434 
Q 3481 -459 3084 -895 
Q 2688 -1331 1869 -1331 
Q 1566 -1331 1297 -1286 
Q 1028 -1241 775 -1147 
L 775 -588 
Q 1028 -725 1275 -790 
Q 1522 -856 1778 -856 
Q 2344 -856 2625 -561 
Q 2906 -266 2906 331 
L 2906 616 
Q 2728 306 2450 153 
Q 2172 0 1784 0 
Q 1141 0 747 490 
Q 353 981 353 1791 
Q 353 2603 747 3093 
Q 1141 3584 1784 3584 
Q 2172 3584 2450 3431 
Q 2728 3278 2906 2969 
L 2906 3500 
L 3481 3500 
L 3481 434 
z
" transform="scale(0.015625)"/>
      <path id="DejaVuSans-6e" d="M 3513 2113 
L 3513 0 
L 2938 0 
L 2938 2094 
Q 2938 2591 2744 2837 
Q 2550 3084 2163 3084 
Q 1697 3084 1428 2787 
Q 1159 2491 1159 1978 
L 1159 0 
L 581 0 
L 581 3500 
L 1159 3500 
L 1159 2956 
Q 1366 3272 1645 3428 
Q 1925 3584 2291 3584 
Q 2894 3584 3203 3211 
Q 3513 2838 3513 2113 
z
" transform="scale(0.015625)"/>
      <path id="DejaVuSans-61" d="M 2194 1759 
Q 1497 1759 1228 1600 
Q 959 1441 959 1056 
Q 959 750 1161 570 
Q 1363 391 1709 391 
Q 2188 391 2477 730 
Q 2766 1069 2766 1631 
L 2766 1759 
L 2194 1759 
z
M 3341 1997 
L 3341 0 
L 2766 0 
L 2766 531 
Q 2569 213 2275 61 
Q 1981 -91 1556 -91 
Q 1019 -91 701 211 
Q 384 513 384 1019 
Q 384 1609 779 1909 
Q 1175 2209 1959 2209 
L 2766 2209 
L 2766 2266 
Q 2766 2663 2505 2880 
Q 2244 3097 1772 3097 
Q 1472 3097 1187 3025 
Q 903 2953 641 2809 
L 641 3341 
Q 956 3463 1253 3523 
Q 1550 3584 1831 3584 
Q 2591 3584 2966 3190 
Q 3341 2797 3341 1997 
z
" transform="scale(0.015625)"/>
      <path id="DejaVuSans-6c" d="M 603 4863 
L 1178 4863 
L 1178 0 
L 603 0 
L 603 4863 
z
" transform="scale(0.015625)"/>
     </defs>
     <use xlink:href="#DejaVuSans-43"/>
     <use xlink:href="#DejaVuSans-69" transform="translate(69.824219 0)"/>
     <use xlink:href="#DejaVuSans-72" transform="translate(97.607422 0)"/>
     <use xlink:href="#DejaVuSans-63" transform="translate(136.470703 0)"/>
     <use xlink:href="#DejaVuSans-75" transform="translate(191.451172 0)"/>
     <use xlink:href="#DejaVuSans-69" transform="translate(254.830078 0)"/>
     <use xlink:href="#DejaVuSans-74" transform="translate(282.613281 0)"/>
     <use xlink:href="#DejaVuSans-6f" transform="translate(321.822266 0)"/>
     <use xlink:href="#DejaVuSans-20" transform="translate(383.003906 0)"/>
     <use xlink:href="#DejaVuSans-4f" transform="translate(414.791016 0)"/>
     <use xlink:href="#DejaVuSans-72" transform="translate(493.501953 0)"/>
     <use xlink:href="#DejaVuSans-69" transform="translate(534.615234 0)"/>
     <use xlink:href="#DejaVuSans-67" transform="translate(562.398438 0)"/>
     <use xlink:href="#DejaVuSans-69" transform="translate(625.875 0)"/>
     <use xlink:href="#DejaVuSans-6e" transform="translate(653.658203 0)"/>
     <use xlink:href="#DejaVuSans-61" transform="translate(717.037109 0)"/>
     <use xlink:href="#DejaVuSans-6c" transform="translate(778.316406 0)"/>
    </g>
   </g>
   <g id="text_2">
    <!-- Red -->
    <g style="fill: #1f2937" transform="translate(112.312 79.422187) scale(0.1 -0.1)">
     <defs>
      <path id="DejaVuSans-52" d="M 2841 2188 
Q 3044 2119 3236 1894 
Q 3428 1669 3622 1275 
L 4263 0 
L 3584 0 
L 2988 1197 
Q 2756 1666 2539 1819 
Q 2322 1972 1947 1972 
L 1259 1972 
L 1259 0 
L 628 0 
L 628 4666 
L 2053 4666 
Q 2853 4666 3247 4331 
Q 3641 3997 3641 3322 
Q 3641 2881 3436 2590 
Q 3231 2300 2841 2188 
z
M 1259 4147 
L 1259 2491 
L 2053 2491 
Q 2509 2491 2742 2702 
Q 2975 2913 2975 3322 
Q 2975 3731 2742 3939 
Q 2509 4147 2053 4147 
L 1259 4147 
z
" transform="scale(0.015625)"/>
      <path id="DejaVuSans-65" d="M 3597 1894 
L 3597 1613 
L 953 1613 
Q 991 1019 1311 708 
Q 1631 397 2203 397 
Q 2534 397 2845 478 
Q 3156 559 3463 722 
L 3463 178 
Q 3153 47 2828 -22 
Q 2503 -91 2169 -91 
Q 1331 -91 842 396 
Q 353 884 353 1716 
Q 353 2575 817 3079 
Q 1281 3584 2069 3584 
Q 2775 3584 3186 3129 
Q 3597 2675 3597 1894 
z
M 3022 2063 
Q 3016 2534 2758 2815 
Q 2500 3097 2075 3097 
Q 1594 3097 1305 2825 
Q 1016 2553 972 2059 
L 3022 2063 
z
" transform="scale(0.015625)"/>
      <path id="DejaVuSans-64" d="M 2906 2969 
L 2906 4863 
L 3481 4863 
L 3481 0 
L 2906 0 
L 2906 525 
Q 2725 213 2448 61 
Q 2172 -91 1784 -91 
Q 1150 -91 751 415 
Q 353 922 353 1747 
Q 353 2572 751 3078 
Q 1150 3584 1784 3584 
Q 2172 3584 2448 3432 
Q 2725 3281 2906 2969 
z
M 947 1747 
Q 947 1113 1208 752 
Q 1469 391 1925 391 
Q 2381 391 2643 752 
Q 2906 1113 2906 1747 
Q 2906 2381 2643 2742 
Q 2381 3103 1925 3103 
Q 1469 3103 1208 2742 
Q 947 2381 947 1747 
z
" transform="scale(0.015625)"/>
     </defs>
     <use xlink:href="#DejaVuSans-52"/>
     <use xlink:href="#DejaVuSans-65" transform="translate(64.982422 0)"/>
     <use xlink:href="#DejaVuSans-64" transform="translate(126.505859 0)"/>
    </g>
    <!-- Lineal -->
    <g style="fill: #1f2937" transform="translate(106.938562 89.100312) scale(0.1 -0.1)">
     <defs>
      <path id="DejaVuSans-4c" d="M 628 4666 
L 1259 4666 
L 1259 531 
L 3531 531 
L 3531 0 
L 628 0 
L 628 4666 
z
" transform="scale(0.015625)"/>
     </defs>
     <use xlink:href="#DejaVuSans-4c"/>
     <use xlink:href="#DejaVuSans-69" transform="translate(55.712891 0)"/>
     <use xlink:href="#DejaVuSans-6e" transform="translate(83.496094 0)"/>
     <use xlink:href="#DejaVuSans-65" transform="translate(146.875 0)"/>
     <use xlink:href="#DejaVuSans-61" transform="translate(208.398438 0)"/>
     <use xlink:href="#DejaVuSans-6c" transform="translate(269.677734 0)"/>
    </g>
   </g>
   <g id="text_3">
    <!-- ≡ -->
    <g transform="translate(216.032312 105.69875) scale(0.2 -0.2)">
     <defs>
      <path id="DejaVuSans-2261" d="M 678 2272 
L 4684 2272 
L 4684 1741 
L 678 1741 
L 678 2272 
z
M 678 3438 
L 4684 3438 
L 4684 2906 
L 678 2906 
L 678 3438 
z
M 678 1106 
L 4684 1106 
L 4684 575 
L 678 575 
L 678 1106 
z
" transform="scale(0.015625)"/>
     </defs>
     <use xlink:href="#DejaVuSans-2261"/>
    </g>
   </g>
   <g id="text_4">
    <!-- Equivalente Norton -->
    <g transform="translate(279.371375 13.215312) scale(0.11 -0.11)">
     <defs>
      <path id="DejaVuSans-45" d="M 628 4666 
L 3578 4666 
L 3578 4134 
L 1259 4134 
L 1259 2753 
L 3481 2753 
L 3481 2222 
L 1259 2222 
L 1259 531 
L 3634 531 
L 3634 0 
L 628 0 
L 628 4666 
z
" transform="scale(0.015625)"/>
      <path id="DejaVuSans-71" d="M 947 1747 
Q 947 1113 1208 752 
Q 1469 391 1925 391 
Q 2381 391 2643 752 
Q 2906 1113 2906 1747 
Q 2906 2381 2643 2742 
Q 2381 3103 1925 3103 
Q 1469 3103 1208 2742 
Q 947 2381 947 1747 
z
M 2906 525 
Q 2725 213 2448 61 
Q 2172 -91 1784 -91 
Q 1150 -91 751 415 
Q 353 922 353 1747 
Q 353 2572 751 3078 
Q 1150 3584 1784 3584 
Q 2172 3584 2448 3432 
Q 2725 3281 2906 2969 
L 2906 3500 
L 3481 3500 
L 3481 -1331 
L 2906 -1331 
L 2906 525 
z
" transform="scale(0.015625)"/>
      <path id="DejaVuSans-76" d="M 191 3500 
L 800 3500 
L 1894 563 
L 2988 3500 
L 3597 3500 
L 2284 0 
L 1503 0 
L 191 3500 
z
" transform="scale(0.015625)"/>
      <path id="DejaVuSans-4e" d="M 628 4666 
L 1478 4666 
L 3547 763 
L 3547 4666 
L 4159 4666 
L 4159 0 
L 3309 0 
L 1241 3903 
L 1241 0 
L 628 0 
L 628 4666 
z
" transform="scale(0.015625)"/>
     </defs>
     <use xlink:href="#DejaVuSans-45"/>
     <use xlink:href="#DejaVuSans-71" transform="translate(63.183594 0)"/>
     <use xlink:href="#DejaVuSans-75" transform="translate(126.660156 0)"/>
     <use xlink:href="#DejaVuSans-69" transform="translate(190.039062 0)"/>
     <use xlink:href="#DejaVuSans-76" transform="translate(217.822266 0)"/>
     <use xlink:href="#DejaVuSans-61" transform="translate(277.001953 0)"/>
     <use xlink:href="#DejaVuSans-6c" transform="translate(338.28125 0)"/>
     <use xlink:href="#DejaVuSans-65" transform="translate(366.064453 0)"/>
     <use xlink:href="#DejaVuSans-6e" transform="translate(427.587891 0)"/>
     <use xlink:href="#DejaVuSans-74" transform="translate(490.966797 0)"/>
     <use xlink:href="#DejaVuSans-65" transform="translate(530.175781 0)"/>
     <use xlink:href="#DejaVuSans-20" transform="translate(591.699219 0)"/>
     <use xlink:href="#DejaVuSans-4e" transform="translate(623.486328 0)"/>
     <use xlink:href="#DejaVuSans-6f" transform="translate(698.291016 0)"/>
     <use xlink:href="#DejaVuSans-72" transform="translate(759.472656 0)"/>
     <use xlink:href="#DejaVuSans-74" transform="translate(800.585938 0)"/>
     <use xlink:href="#DejaVuSans-6f" transform="translate(839.794922 0)"/>
     <use xlink:href="#DejaVuSans-6e" transform="translate(900.976562 0)"/>
    </g>
   </g>
   <g id="text_5">
    <!-- $I_N$ -->
    <g style="fill: #2563eb" transform="translate(252.562 150.978437) scale(0.1 -0.1)">
     <defs>
      <path id="DejaVuSans-Oblique-49" d="M 1081 4666 
L 1716 4666 
L 806 0 
L 172 0 
L 1081 4666 
z
" transform="scale(0.015625)"/>
      <path id="DejaVuSans-Oblique-4e" d="M 1081 4666 
L 1931 4666 
L 3219 666 
L 4000 4666 
L 4616 4666 
L 3706 0 
L 2853 0 
L 1569 4025 
L 788 0 
L 172 0 
L 1081 4666 
z
" transform="scale(0.015625)"/>
     </defs>
     <use xlink:href="#DejaVuSans-Oblique-49" transform="translate(0 0.09375)"/>
     <use xlink:href="#DejaVuSans-Oblique-4e" transform="translate(29.492188 -16.3125) scale(0.7)"/>
    </g>
   </g>
   <g id="text_6">
    <!-- $R_N$ -->
    <g style="fill: #059669" transform="translate(286.562 44.100312) scale(0.1 -0.1)">
     <defs>
      <path id="DejaVuSans-Oblique-52" d="M 1613 4147 
L 1294 2491 
L 2106 2491 
Q 2584 2491 2879 2755 
Q 3175 3019 3175 3444 
Q 3175 3784 2976 3965 
Q 2778 4147 2406 4147 
L 1613 4147 
z
M 2772 2241 
Q 2972 2194 3105 2009 
Q 3238 1825 3413 1275 
L 3809 0 
L 3144 0 
L 2778 1197 
Q 2638 1659 2453 1815 
Q 2269 1972 1888 1972 
L 1191 1972 
L 806 0 
L 172 0 
L 1081 4666 
L 2503 4666 
Q 3150 4666 3495 4373 
Q 3841 4081 3841 3531 
Q 3841 3044 3547 2687 
Q 3253 2331 2772 2241 
z
" transform="scale(0.015625)"/>
     </defs>
     <use xlink:href="#DejaVuSans-Oblique-52" transform="translate(0 0.09375)"/>
     <use xlink:href="#DejaVuSans-Oblique-4e" transform="translate(69.482422 -16.3125) scale(0.7)"/>
    </g>
   </g>
   <g id="text_7">
    <!-- $I_N$ = Corriente de cortocircuito entre a-b -->
    <g transform="translate(116.097 210.663437) scale(0.09 -0.09)">
     <defs>
      <path id="DejaVuSans-3d" d="M 678 2906 
L 4684 2906 
L 4684 2381 
L 678 2381 
L 678 2906 
z
M 678 1631 
L 4684 1631 
L 4684 1100 
L 678 1100 
L 678 1631 
z
" transform="scale(0.015625)"/>
      <path id="DejaVuSans-2d" d="M 313 2009 
L 1997 2009 
L 1997 1497 
L 313 1497 
L 313 2009 
z
" transform="scale(0.015625)"/>
      <path id="DejaVuSans-62" d="M 3116 1747 
Q 3116 2381 2855 2742 
Q 2594 3103 2138 3103 
Q 1681 3103 1420 2742 
Q 1159 2381 1159 1747 
Q 1159 1113 1420 752 
Q 1681 391 2138 391 
Q 2594 391 2855 752 
Q 3116 1113 3116 1747 
z
M 1159 2969 
Q 1341 3281 1617 3432 
Q 1894 3584 2278 3584 
Q 2916 3584 3314 3078 
Q 3713 2572 3713 1747 
Q 3713 922 3314 415 
Q 2916 -91 2278 -91 
Q 1894 -91 1617 61 
Q 1341 213 1159 525 
L 1159 0 
L 581 0 
L 581 4863 
L 1159 4863 
L 1159 2969 
z
" transform="scale(0.015625)"/>
     </defs>
     <use xlink:href="#DejaVuSans-Oblique-49" transform="translate(0 0.015625)"/>
     <use xlink:href="#DejaVuSans-Oblique-4e" transform="translate(29.492188 -16.390625) scale(0.7)"/>
     <use xlink:href="#DejaVuSans-20" transform="translate(84.589844 0.015625)"/>
     <use xlink:href="#DejaVuSans-3d" transform="translate(116.376953 0.015625)"/>
     <use xlink:href="#DejaVuSans-20" transform="translate(200.166016 0.015625)"/>
     <use xlink:href="#DejaVuSans-43" transform="translate(231.953125 0.015625)"/>
     <use xlink:href="#DejaVuSans-6f" transform="translate(301.777344 0.015625)"/>
     <use xlink:href="#DejaVuSans-72" transform="translate(362.958984 0.015625)"/>
     <use xlink:href="#DejaVuSans-72" transform="translate(404.072266 0.015625)"/>
     <use xlink:href="#DejaVuSans-69" transform="translate(445.185547 0.015625)"/>
     <use xlink:href="#DejaVuSans-65" transform="translate(472.96875 0.015625)"/>
     <use xlink:href="#DejaVuSans-6e" transform="translate(534.492188 0.015625)"/>
     <use xlink:href="#DejaVuSans-74" transform="translate(597.871094 0.015625)"/>
     <use xlink:href="#DejaVuSans-65" transform="translate(637.080078 0.015625)"/>
     <use xlink:href="#DejaVuSans-20" transform="translate(698.603516 0.015625)"/>
     <use xlink:href="#DejaVuSans-64" transform="translate(730.390625 0.015625)"/>
     <use xlink:href="#DejaVuSans-65" transform="translate(793.867188 0.015625)"/>
     <use xlink:href="#DejaVuSans-20" transform="translate(855.390625 0.015625)"/>
     <use xlink:href="#DejaVuSans-63" transform="translate(887.177734 0.015625)"/>
     <use xlink:href="#DejaVuSans-6f" transform="translate(942.158203 0.015625)"/>
     <use xlink:href="#DejaVuSans-72" transform="translate(1003.339844 0.015625)"/>
     <use xlink:href="#DejaVuSans-74" transform="translate(1044.453125 0.015625)"/>
     <use xlink:href="#DejaVuSans-6f" transform="translate(1083.662109 0.015625)"/>
     <use xlink:href="#DejaVuSans-63" transform="translate(1144.84375 0.015625)"/>
     <use xlink:href="#DejaVuSans-69" transform="translate(1199.824219 0.015625)"/>
     <use xlink:href="#DejaVuSans-72" transform="translate(1227.607422 0.015625)"/>
     <use xlink:href="#DejaVuSans-63" transform="translate(1268.720703 0.015625)"/>
     <use xlink:href="#DejaVuSans-75" transform="translate(1323.701172 0.015625)"/>
     <use xlink:href="#DejaVuSans-69" transform="translate(1387.080078 0.015625)"/>
     <use xlink:href="#DejaVuSans-74" transform="translate(1414.863281 0.015625)"/>
     <use xlink:href="#DejaVuSans-6f" transform="translate(1454.072266 0.015625)"/>
     <use xlink:href="#DejaVuSans-20" transform="translate(1515.253906 0.015625)"/>
     <use xlink:href="#DejaVuSans-65" transform="translate(1547.041016 0.015625)"/>
     <use xlink:href="#DejaVuSans-6e" transform="translate(1608.564453 0.015625)"/>
     <use xlink:href="#DejaVuSans-74" transform="translate(1671.943359 0.015625)"/>
     <use xlink:href="#DejaVuSans-72" transform="translate(1711.152344 0.015625)"/>
     <use xlink:href="#DejaVuSans-65" transform="translate(1752.265625 0.015625)"/>
     <use xlink:href="#DejaVuSans-20" transform="translate(1813.789062 0.015625)"/>
     <use xlink:href="#DejaVuSans-61" transform="translate(1845.576172 0.015625)"/>
     <use xlink:href="#DejaVuSans-2d" transform="translate(1906.855469 0.015625)"/>
     <use xlink:href="#DejaVuSans-62" transform="translate(1942.939453 0.015625)"/>
    </g>
   </g>
   <g id="text_8">
    <!-- $R_N = R_{Th}$ (misma resistencia equivalente) -->
    <g transform="translate(114.207 235.855) scale(0.09 -0.09)">
     <defs>
      <path id="DejaVuSans-Oblique-54" d="M 378 4666 
L 4325 4666 
L 4225 4134 
L 2559 4134 
L 1759 0 
L 1125 0 
L 1925 4134 
L 275 4134 
L 378 4666 
z
" transform="scale(0.015625)"/>
      <path id="DejaVuSans-Oblique-68" d="M 3566 2113 
L 3156 0 
L 2578 0 
L 2988 2091 
Q 3016 2238 3031 2350 
Q 3047 2463 3047 2528 
Q 3047 2791 2881 2937 
Q 2716 3084 2419 3084 
Q 1956 3084 1617 2771 
Q 1278 2459 1178 1941 
L 800 0 
L 225 0 
L 1172 4863 
L 1747 4863 
L 1375 2950 
Q 1594 3244 1934 3414 
Q 2275 3584 2650 3584 
Q 3113 3584 3367 3334 
Q 3622 3084 3622 2631 
Q 3622 2519 3608 2391 
Q 3594 2263 3566 2113 
z
" transform="scale(0.015625)"/>
      <path id="DejaVuSans-28" d="M 1984 4856 
Q 1566 4138 1362 3434 
Q 1159 2731 1159 2009 
Q 1159 1288 1364 580 
Q 1569 -128 1984 -844 
L 1484 -844 
Q 1016 -109 783 600 
Q 550 1309 550 2009 
Q 550 2706 781 3412 
Q 1013 4119 1484 4856 
L 1984 4856 
z
" transform="scale(0.015625)"/>
      <path id="DejaVuSans-6d" d="M 3328 2828 
Q 3544 3216 3844 3400 
Q 4144 3584 4550 3584 
Q 5097 3584 5394 3201 
Q 5691 2819 5691 2113 
L 5691 0 
L 5113 0 
L 5113 2094 
Q 5113 2597 4934 2840 
Q 4756 3084 4391 3084 
Q 3944 3084 3684 2787 
Q 3425 2491 3425 1978 
L 3425 0 
L 2847 0 
L 2847 2094 
Q 2847 2600 2669 2842 
Q 2491 3084 2119 3084 
Q 1678 3084 1418 2786 
Q 1159 2488 1159 1978 
L 1159 0 
L 581 0 
L 581 3500 
L 1159 3500 
L 1159 2956 
Q 1356 3278 1631 3431 
Q 1906 3584 2284 3584 
Q 2666 3584 2933 3390 
Q 3200 3197 3328 2828 
z
" transform="scale(0.015625)"/>
      <path id="DejaVuSans-73" d="M 2834 3397 
L 2834 2853 
Q 2591 2978 2328 3040 
Q 2066 3103 1784 3103 
Q 1356 3103 1142 2972 
Q 928 2841 928 2578 
Q 928 2378 1081 2264 
Q 1234 2150 1697 2047 
L 1894 2003 
Q 2506 1872 2764 1633 
Q 3022 1394 3022 966 
Q 3022 478 2636 193 
Q 2250 -91 1575 -91 
Q 1294 -91 989 -36 
Q 684 19 347 128 
L 347 722 
Q 666 556 975 473 
Q 1284 391 1588 391 
Q 1994 391 2212 530 
Q 2431 669 2431 922 
Q 2431 1156 2273 1281 
Q 2116 1406 1581 1522 
L 1381 1569 
Q 847 1681 609 1914 
Q 372 2147 372 2553 
Q 372 3047 722 3315 
Q 1072 3584 1716 3584 
Q 2034 3584 2315 3537 
Q 2597 3491 2834 3397 
z
" transform="scale(0.015625)"/>
      <path id="DejaVuSans-29" d="M 513 4856 
L 1013 4856 
Q 1481 4119 1714 3412 
Q 1947 2706 1947 2009 
Q 1947 1309 1714 600 
Q 1481 -109 1013 -844 
L 513 -844 
Q 928 -128 1133 580 
Q 1338 1288 1338 2009 
Q 1338 2731 1133 3434 
Q 928 4138 513 4856 
z
" transform="scale(0.015625)"/>
     </defs>
     <use xlink:href="#DejaVuSans-Oblique-52" transform="translate(0 0.015625)"/>
     <use xlink:href="#DejaVuSans-Oblique-4e" transform="translate(69.482422 -16.390625) scale(0.7)"/>
     <use xlink:href="#DejaVuSans-3d" transform="translate(144.0625 0.015625)"/>
     <use xlink:href="#DejaVuSans-Oblique-52" transform="translate(247.333984 0.015625)"/>
     <use xlink:href="#DejaVuSans-Oblique-54" transform="translate(316.816406 -16.390625) scale(0.7)"/>
     <use xlink:href="#DejaVuSans-Oblique-68" transform="translate(359.575195 -16.390625) scale(0.7)"/>
     <use xlink:href="#DejaVuSans-20" transform="translate(406.674805 0.015625)"/>
     <use xlink:href="#DejaVuSans-28" transform="translate(438.461914 0.015625)"/>
     <use xlink:href="#DejaVuSans-6d" transform="translate(477.475586 0.015625)"/>
     <use xlink:href="#DejaVuSans-69" transform="translate(574.887695 0.015625)"/>
     <use xlink:href="#DejaVuSans-73" transform="translate(602.670898 0.015625)"/>
     <use xlink:href="#DejaVuSans-6d" transform="translate(654.770508 0.015625)"/>
     <use xlink:href="#DejaVuSans-61" transform="translate(752.182617 0.015625)"/>
     <use xlink:href="#DejaVuSans-20" transform="translate(813.461914 0.015625)"/>
     <use xlink:href="#DejaVuSans-72" transform="translate(845.249023 0.015625)"/>
     <use xlink:href="#DejaVuSans-65" transform="translate(886.362305 0.015625)"/>
     <use xlink:href="#DejaVuSans-73" transform="translate(947.885742 0.015625)"/>
     <use xlink:href="#DejaVuSans-69" transform="translate(999.985352 0.015625)"/>
     <use xlink:href="#DejaVuSans-73" transform="translate(1027.768555 0.015625)"/>
     <use xlink:href="#DejaVuSans-74" transform="translate(1079.868164 0.015625)"/>
     <use xlink:href="#DejaVuSans-65" transform="translate(1119.077148 0.015625)"/>
     <use xlink:href="#DejaVuSans-6e" transform="translate(1180.600586 0.015625)"/>
     <use xlink:href="#DejaVuSans-63" transform="translate(1243.979492 0.015625)"/>
     <use xlink:href="#DejaVuSans-69" transform="translate(1298.959961 0.015625)"/>
     <use xlink:href="#DejaVuSans-61" transform="translate(1326.743164 0.015625)"/>
     <use xlink:href="#DejaVuSans-20" transform="translate(1388.022461 0.015625)"/>
     <use xlink:href="#DejaVuSans-65" transform="translate(1419.80957 0.015625)"/>
     <use xlink:href="#DejaVuSans-71" transform="translate(1481.333008 0.015625)"/>
     <use xlink:href="#DejaVuSans-75" transform="translate(1544.80957 0.015625)"/>
     <use xlink:href="#DejaVuSans-69" transform="translate(1608.188477 0.015625)"/>
     <use xlink:href="#DejaVuSans-76" transform="translate(1635.97168 0.015625)"/>
     <use xlink:href="#DejaVuSans-61" transform="translate(1695.151367 0.015625)"/>
     <use xlink:href="#DejaVuSans-6c" transform="translate(1756.430664 0.015625)"/>
     <use xlink:href="#DejaVuSans-65" transform="translate(1784.213867 0.015625)"/>
     <use xlink:href="#DejaVuSans-6e" transform="translate(1845.737305 0.015625)"/>
     <use xlink:href="#DejaVuSans-74" transform="translate(1909.116211 0.015625)"/>
     <use xlink:href="#DejaVuSans-65" transform="translate(1948.325195 0.015625)"/>
     <use xlink:href="#DejaVuSans-29" transform="translate(2009.848633 0.015625)"/>
    </g>
   </g>
   <g id="patch_4">
    <path d="M 166.812 88.48 
C 167.528048 88.48 168.214866 88.195511 168.721188 87.689188 
C 169.227511 87.182866 169.512 86.496048 169.512 85.78 
C 169.512 85.063952 169.227511 84.377134 168.721188 83.870812 
C 168.214866 83.364489 167.528048 83.08 166.812 83.08 
C 166.095952 83.08 165.409134 83.364489 164.902812 83.870812 
C 164.396489 84.377134 164.112 85.063952 164.112 85.78 
C 164.112 86.496048 164.396489 87.182866 164.902812 87.689188 
C 165.409134 88.195511 166.095952 88.48 166.812 88.48 
z
" clip-path="url(#p50a5d66557)" style="fill: #ffffff; stroke: #000000; stroke-width: 2; stroke-linejoin: miter"/>
   </g>
   <g id="text_9">
    <!-- a -->
    <g transform="translate(173.112 88.539375) scale(0.1 -0.1)">
     <use xlink:href="#DejaVuSans-61"/>
    </g>
   </g>
   <g id="patch_5">
    <path d="M 166.812 124.48 
C 167.528048 124.48 168.214866 124.195511 168.721188 123.689188 
C 169.227511 123.182866 169.512 122.496048 169.512 121.78 
C 169.512 121.063952 169.227511 120.377134 168.721188 119.870812 
C 168.214866 119.364489 167.528048 119.08 166.812 119.08 
C 166.095952 119.08 165.409134 119.364489 164.902812 119.870812 
C 164.396489 120.377134 164.112 121.063952 164.112 121.78 
C 164.112 122.496048 164.396489 123.182866 164.902812 123.689188 
C 165.409134 124.195511 166.095952 124.48 166.812 124.48 
z
" clip-path="url(#p50a5d66557)" style="fill: #ffffff; stroke: #000000; stroke-width: 2; stroke-linejoin: miter"/>
   </g>
   <g id="text_10">
    <!-- b -->
    <g transform="translate(173.112 124.539375) scale(0.1 -0.1)">
     <use xlink:href="#DejaVuSans-62"/>
    </g>
   </g>
   <g id="patch_6">
    <path d="M 292.812 52.48 
C 293.528048 52.48 294.214866 52.195511 294.721188 51.689188 
C 295.227511 51.182866 295.512 50.496048 295.512 49.78 
C 295.512 49.063952 295.227511 48.377134 294.721188 47.870812 
C 294.214866 47.364489 293.528048 47.08 292.812 47.08 
C 292.095952 47.08 291.409134 47.364489 290.902812 47.870812 
C 290.396489 48.377134 290.112 49.063952 290.112 49.78 
C 290.112 50.496048 290.396489 51.182866 290.902812 51.689188 
C 291.409134 52.195511 292.095952 52.48 292.812 52.48 
z
" clip-path="url(#p50a5d66557)" style="stroke: #000000; stroke-width: 2; stroke-linejoin: miter"/>
   </g>
   <g id="patch_7">
    <path d="M 292.812 142.48 
C 293.528048 142.48 294.214866 142.195511 294.721188 141.689188 
C 295.227511 141.182866 295.512 140.496048 295.512 139.78 
C 295.512 139.063952 295.227511 138.377134 294.721188 137.870812 
C 294.214866 137.364489 293.528048 137.08 292.812 137.08 
C 292.095952 137.08 291.409134 137.364489 290.902812 137.870812 
C 290.396489 138.377134 290.112 139.063952 290.112 139.78 
C 290.112 140.496048 290.396489 141.182866 290.902812 141.689188 
C 291.409134 142.195511 292.095952 142.48 292.812 142.48 
z
" clip-path="url(#p50a5d66557)" style="stroke: #000000; stroke-width: 2; stroke-linejoin: miter"/>
   </g>
   <g id="patch_8">
    <path d="M 346.812 52.48 
C 347.528048 52.48 348.214866 52.195511 348.721188 51.689188 
C 349.227511 51.182866 349.512 50.496048 349.512 49.78 
C 349.512 49.063952 349.227511 48.377134 348.721188 47.870812 
C 348.214866 47.364489 347.528048 47.08 346.812 47.08 
C 346.095952 47.08 345.409134 47.364489 344.902812 47.870812 
C 344.396489 48.377134 344.112 49.063952 344.112 49.78 
C 344.112 50.496048 344.396489 51.182866 344.902812 51.689188 
C 345.409134 52.195511 346.095952 52.48 346.812 52.48 
z
" clip-path="url(#p50a5d66557)" style="fill: #ffffff; stroke: #000000; stroke-width: 2; stroke-linejoin: miter"/>
   </g>
   <g id="text_11">
    <!-- a -->
    <g transform="translate(353.112 52.539375) scale(0.1 -0.1)">
     <use xlink:href="#DejaVuSans-61"/>
    </g>
   </g>
   <g id="patch_9">
    <path d="M 346.812 142.48 
C 347.528048 142.48 348.214866 142.195511 348.721188 141.689188 
C 349.227511 141.182866 349.512 140.496048 349.512 139.78 
C 349.512 139.063952 349.227511 138.377134 348.721188 137.870812 
C 348.214866 137.364489 347.528048 137.08 346.812 137.08 
C 346.095952 137.08 345.409134 137.364489 344.902812 137.870812 
C 344.396489 138.377134 344.112 139.063952 344.112 139.78 
C 344.112 140.496048 344.396489 141.182866 344.902812 141.689188 
C 345.409134 142.195511 346.095952 142.48 346.812 142.48 
z
" clip-path="url(#p50a5d66557)" style="fill: #ffffff; stroke: #000000; stroke-width: 2; stroke-linejoin: miter"/>
   </g>
   <g id="text_12">
    <!-- b -->
    <g transform="translate(353.112 142.539375) scale(0.1 -0.1)">
     <use xlink:href="#DejaVuSans-62"/>
    </g>
   </g>
  </g>
 </g>
 <defs>
  <clipPath id="p50a5d66557">
   <rect x="0" y="0" width="384.447" height="242.56"/>
  </clipPath>
 </defs>
</svg>
