<?xml version="1.0" encoding="utf-8" standalone="no"?>
<!DOCTYPE svg PUBLIC "-//W3C//DTD SVG 1.1//EN"
  "http://www.w3.org/Graphics/SVG/1.1/DTD/svg11.dtd">
<svg xmlns:xlink="http://www.w3.org/1999/xlink" width="253.62pt" height="176.56pt" viewBox="0 0 253.62 176.56" xmlns="http://www.w3.org/2000/svg" version="1.1">
 <metadata>
  <rdf:RDF xmlns:dc="http://purl.org/dc/elements/1.1/" xmlns:cc="http://creativecommons.org/ns#" xmlns:rdf="http://www.w3.org/1999/02/22-rdf-syntax-ns#">
   <cc:Work>
    <dc:type rdf:resource="http://purl.org/dc/dcmitype/StillImage"/>
    <dc:date>2026-01-05T14:22:15.047470</dc:date>
    <dc:format>image/svg+xml</dc:format>
    <dc:creator>
     <cc:Agent>
      <dc:title>Matplotlib v3.10.8, https://matplotlib.org/</dc:title>
     </cc:Agent>
    </dc:creator>
   </cc:Work>
  </rdf:RDF>
 </metadata>
 <defs>
  <style type="text/css">*{stroke-linejoin: round; stroke-linecap: butt}</style>
 </defs>
 <g id="figure_1">
  <g id="patch_1">
   <path d="M 0 176.56 
L 253.62 176.56 
L 253.62 0 
L 0 0 
L 0 176.56 
z
" style="fill: none"/>
  </g>
  <g id="axes_1">
   <g id="patch_2">
    <path d="M 22.68 91.28 
C 27.453656 91.28 32.032438 89.383406 35.407922 86.007922 
C 38.783406 82.632438 40.68 78.053656 40.68 73.28 
C 40.68 68.506344 38.783406 63.927562 35.407922 60.552078 
C 32.032438 57.176594 27.453656 55.28 22.68 55.28 
C 17.906344 55.28 13.327562 57.176594 9.952078 60.552078 
C 6.576594 63.927562 4.68 68.506344 4.68 73.28 
C 4.68 78.053656 6.576594 82.632438 9.952078 86.007922 
C 13.327562 89.383406 17.906344 91.28 22.68 91.28 
L 22.68 91.28 
z
" clip-path="url(#p4713dcaba3)" style="fill: none; stroke: #2563eb; stroke-width: 2; stroke-linejoin: miter"/>
   </g>
   <g id="line2d_1">
    <path d="M 22.68 127.28 
L 22.68 91.28 
L 22.68 91.28 
M 22.68 55.28 
L 22.68 55.28 
L 22.68 19.28 
" clip-path="url(#p4713dcaba3)" style="fill: none; stroke: #2563eb; stroke-width: 2; stroke-linecap: round"/>
   </g>
   <g id="line2d_2">
    <path d="M 22.68 82.28 
L 22.68 73.28 
" clip-path="url(#p4713dcaba3)" style="fill: none; stroke: #2563eb; stroke-width: 2; stroke-linecap: round"/>
   </g>
   <g id="patch_3">
    <path d="M 19.98 73.28 
L 22.68 64.28 
L 25.38 73.28 
z
" clip-path="url(#p4713dcaba3)" style="fill: #2563eb"/>
   </g>
   <g id="line2d_3">
    <path d="M 22.68 19.28 
L 40.68 19.28 
L 58.68 19.28 
" clip-path="url(#p4713dcaba3)" style="fill: none; stroke: #000000; stroke-width: 2; stroke-linecap: round"/>
   </g>
   <g id="line2d_4">
    <path d="M 58.68 19.28 
L 58.68 55.28 
L 67.68 58.28 
L 49.68 64.28 
L 67.68 70.28 
L 49.68 76.28 
L 67.68 82.28 
L 49.68 88.28 
L 58.68 91.28 
L 58.68 127.28 
" clip-path="url(#p4713dcaba3)" style="fill: none; stroke: #059669; stroke-width: 2; stroke-linecap: round"/>
   </g>
   <g id="line2d_5">
    <path d="M 58.68 19.28 
L 94.68 19.28 
L 130.68 19.28 
" clip-path="url(#p4713dcaba3)" style="fill: none; stroke: #000000; stroke-width: 2; stroke-linecap: round"/>
   </g>
   <g id="line2d_6">
    <path d="M 130.68 19.28 
L 130.68 55.28 
L 139.68 58.28 
L 121.68 64.28 
L 139.68 70.28 
L 121.68 76.28 
L 139.68 82.28 
L 121.68 88.28 
L 130.68 91.28 
L 130.68 127.28 
" clip-path="url(#p4713dcaba3)" style="fill: none; stroke: #059669; stroke-width: 2; stroke-linecap: round"/>
   </g>
   <g id="line2d_7">
    <path d="M 130.68 127.28 
L 94.68 127.28 
L 58.68 127.28 
" clip-path="url(#p4713dcaba3)" style="fill: none; stroke: #000000; stroke-width: 2; stroke-linecap: round"/>
   </g>
   <g id="line2d_8">
    <path d="M 58.68 127.28 
L 40.68 127.28 
L 22.68 127.28 
" clip-path="url(#p4713dcaba3)" style="fill: none; stroke: #000000; stroke-width: 2; stroke-linecap: round"/>
   </g>
   <g id="line2d_9">
    <path d="M 22.68 127.28 
L 22.68 141.68 
L 13.68 141.68 
L 31.68 141.68 
M 16.38 146 
L 28.98 146 
M 20.88 150.32 
L 24.48 150.32 
" clip-path="url(#p4713dcaba3)" style="fill: none; stroke: #000000; stroke-width: 2; stroke-linecap: round"/>
   </g>
   <g id="text_1">
    <!-- $I_s$ -->
    <g style="fill: #2563eb" transform="translate(18.885 139.238281) scale(0.11 -0.11)">
     <defs>
      <path id="DejaVuSans-Oblique-49" d="M 1081 4666 
L 1716 4666 
L 806 0 
L 172 0 
L 1081 4666 
z
" transform="scale(0.015625)"/>
      <path id="DejaVuSans-Oblique-73" d="M 3200 3397 
L 3091 2853 
Q 2863 2978 2609 3040 
Q 2356 3103 2088 3103 
Q 1634 3103 1373 2948 
Q 1113 2794 1113 2528 
Q 1113 2219 1719 2053 
Q 1766 2041 1788 2034 
L 1972 1978 
Q 2547 1819 2739 1644 
Q 2931 1469 2931 1166 
Q 2931 609 2489 259 
Q 2047 -91 1331 -91 
Q 1053 -91 747 -37 
Q 441 16 72 128 
L 184 722 
Q 500 559 806 475 
Q 1113 391 1394 391 
Q 1816 391 2080 572 
Q 2344 753 2344 1031 
Q 2344 1331 1650 1516 
L 1591 1531 
L 1394 1581 
Q 956 1697 753 1886 
Q 550 2075 550 2369 
Q 550 2928 970 3256 
Q 1391 3584 2113 3584 
Q 2397 3584 2667 3537 
Q 2938 3491 3200 3397 
z
" transform="scale(0.015625)"/>
     </defs>
     <use xlink:href="#DejaVuSans-Oblique-49" transform="translate(0 0.09375)"/>
     <use xlink:href="#DejaVuSans-Oblique-73" transform="translate(29.492188 -16.3125) scale(0.7)"/>
    </g>
   </g>
   <g id="text_2">
    <!-- $R_1$ -->
    <g style="fill: #059669" transform="translate(52.245 139.238281) scale(0.11 -0.11)">
     <defs>
      <path id="DejaVuSans-Oblique-52" d="M 1613 4147 
L 1294 2491 
L 2106 2491 
Q 2584 2491 2879 2755 
Q 3175 3019 3175 3444 
Q 3175 3784 2976 3965 
Q 2778 4147 2406 4147 
L 1613 4147 
z
M 2772 2241 
Q 2972 2194 3105 2009 
Q 3238 1825 3413 1275 
L 3809 0 
L 3144 0 
L 2778 1197 
Q 2638 1659 2453 1815 
Q 2269 1972 1888 1972 
L 1191 1972 
L 806 0 
L 172 0 
L 1081 4666 
L 2503 4666 
Q 3150 4666 3495 4373 
Q 3841 4081 3841 3531 
Q 3841 3044 3547 2687 
Q 3253 2331 2772 2241 
z
" transform="scale(0.015625)"/>
      <path id="DejaVuSans-31" d="M 794 531 
L 1825 531 
L 1825 4091 
L 703 3866 
L 703 4441 
L 1819 4666 
L 2450 4666 
L 2450 531 
L 3481 531 
L 3481 0 
L 794 0 
L 794 531 
z
" transform="scale(0.015625)"/>
     </defs>
     <use xlink:href="#DejaVuSans-Oblique-52" transform="translate(0 0.09375)"/>
     <use xlink:href="#DejaVuSans-31" transform="translate(69.482422 -16.3125) scale(0.7)"/>
    </g>
   </g>
   <g id="text_3">
    <!-- $R_2$ -->
    <g style="fill: #059669" transform="translate(124.245 13.392344) scale(0.11 -0.11)">
     <defs>
      <path id="DejaVuSans-32" d="M 1228 531 
L 3431 531 
L 3431 0 
L 469 0 
L 469 531 
Q 828 903 1448 1529 
Q 2069 2156 2228 2338 
Q 2531 2678 2651 2914 
Q 2772 3150 2772 3378 
Q 2772 3750 2511 3984 
Q 2250 4219 1831 4219 
Q 1534 4219 1204 4116 
Q 875 4013 500 3803 
L 500 4441 
Q 881 4594 1212 4672 
Q 1544 4750 1819 4750 
Q 2544 4750 2975 4387 
Q 3406 4025 3406 3419 
Q 3406 3131 3298 2873 
Q 3191 2616 2906 2266 
Q 2828 2175 2409 1742 
Q 1991 1309 1228 531 
z
" transform="scale(0.015625)"/>
     </defs>
     <use xlink:href="#DejaVuSans-Oblique-52" transform="translate(0 0.09375)"/>
     <use xlink:href="#DejaVuSans-32" transform="translate(69.482422 -16.3125) scale(0.7)"/>
    </g>
   </g>
   <g id="text_4">
    <!-- $I_1 = I_s \cdot \frac{R_2}{R_1 + R_2}$ -->
    <g transform="translate(151.03 133.73) scale(0.1 -0.1)">
     <defs>
      <path id="DejaVuSans-3d" d="M 678 2906 
L 4684 2906 
L 4684 2381 
L 678 2381 
L 678 2906 
z
M 678 1631 
L 4684 1631 
L 4684 1100 
L 678 1100 
L 678 1631 
z
" transform="scale(0.015625)"/>
      <path id="DejaVuSans-22c5" d="M 684 2619 
L 1344 2619 
L 1344 1825 
L 684 1825 
L 684 2619 
z
" transform="scale(0.015625)"/>
      <path id="DejaVuSans-2b" d="M 2944 4013 
L 2944 2272 
L 4684 2272 
L 4684 1741 
L 2944 1741 
L 2944 0 
L 2419 0 
L 2419 1741 
L 678 1741 
L 678 2272 
L 2419 2272 
L 2419 4013 
L 2944 4013 
z
" transform="scale(0.015625)"/>
     </defs>
     <use xlink:href="#DejaVuSans-Oblique-49" transform="translate(0 0.684375)"/>
     <use xlink:href="#DejaVuSans-31" transform="translate(29.492188 -15.721875) scale(0.7)"/>
     <use xlink:href="#DejaVuSans-3d" transform="translate(96.245117 0.684375)"/>
     <use xlink:href="#DejaVuSans-Oblique-49" transform="translate(199.516602 0.684375)"/>
     <use xlink:href="#DejaVuSans-Oblique-73" transform="translate(229.008789 -15.721875) scale(0.7)"/>
     <use xlink:href="#DejaVuSans-22c5" transform="translate(287.695312 0.684375)"/>
     <use xlink:href="#DejaVuSans-Oblique-52" transform="translate(422.964844 55.965625) scale(0.7)"/>
     <use xlink:href="#DejaVuSans-32" transform="translate(471.602539 44.48125) scale(0.49)"/>
     <use xlink:href="#DejaVuSans-Oblique-52" transform="translate(338.964844 -37.803125) scale(0.7)"/>
     <use xlink:href="#DejaVuSans-31" transform="translate(387.602539 -49.2875) scale(0.49)"/>
     <use xlink:href="#DejaVuSans-2b" transform="translate(434.32959 -37.803125) scale(0.7)"/>
     <use xlink:href="#DejaVuSans-Oblique-52" transform="translate(506.619629 -37.803125) scale(0.7)"/>
     <use xlink:href="#DejaVuSans-32" transform="translate(555.257324 -49.2875) scale(0.49)"/>
     <path d="M 338.964844 19.48125 
L 338.964844 25.73125 
L 588.34668 25.73125 
L 588.34668 19.48125 
L 338.964844 19.48125 
z
"/>
    </g>
   </g>
   <g id="text_5">
    <!-- $I_2 = I_s \cdot \frac{R_1}{R_1 + R_2}$ -->
    <g transform="translate(151.03 169.73) scale(0.1 -0.1)">
     <use xlink:href="#DejaVuSans-Oblique-49" transform="translate(0 0.684375)"/>
     <use xlink:href="#DejaVuSans-32" transform="translate(29.492188 -15.721875) scale(0.7)"/>
     <use xlink:href="#DejaVuSans-3d" transform="translate(96.245117 0.684375)"/>
     <use xlink:href="#DejaVuSans-Oblique-49" transform="translate(199.516602 0.684375)"/>
     <use xlink:href="#DejaVuSans-Oblique-73" transform="translate(229.008789 -15.721875) scale(0.7)"/>
     <use xlink:href="#DejaVuSans-22c5" transform="translate(287.695312 0.684375)"/>
     <use xlink:href="#DejaVuSans-Oblique-52" transform="translate(422.964844 55.965625) scale(0.7)"/>
     <use xlink:href="#DejaVuSans-31" transform="translate(471.602539 44.48125) scale(0.49)"/>
     <use xlink:href="#DejaVuSans-Oblique-52" transform="translate(338.964844 -37.803125) scale(0.7)"/>
     <use xlink:href="#DejaVuSans-31" transform="translate(387.602539 -49.2875) scale(0.49)"/>
     <use xlink:href="#DejaVuSans-2b" transform="translate(434.32959 -37.803125) scale(0.7)"/>
     <use xlink:href="#DejaVuSans-Oblique-52" transform="translate(506.619629 -37.803125) scale(0.7)"/>
     <use xlink:href="#DejaVuSans-32" transform="translate(555.257324 -49.2875) scale(0.49)"/>
     <path d="M 338.964844 19.48125 
L 338.964844 25.73125 
L 588.34668 25.73125 
L 588.34668 19.48125 
L 338.964844 19.48125 
z
"/>
    </g>
   </g>
   <g id="line2d_10">
    <path d="M 22.68 112.88 
L 22.68 112.88 
" clip-path="url(#p4713dcaba3)" style="fill: none; stroke: #dc2626; stroke-width: 2; stroke-linecap: round"/>
   </g>
   <g id="patch_4">
    <path d="M 17.28 112.88 
L 22.68 102.08 
L 28.08 112.88 
z
" clip-path="url(#p4713dcaba3)" style="fill: #dc2626"/>
   </g>
   <g id="patch_5">
    <path d="M 58.68 21.98 
C 59.396048 21.98 60.082866 21.695511 60.589188 21.189188 
C 61.095511 20.682866 61.38 19.996048 61.38 19.28 
C 61.38 18.563952 61.095511 17.877134 60.589188 17.370812 
C 60.082866 16.864489 59.396048 16.58 58.68 16.58 
C 57.963952 16.58 57.277134 16.864489 56.770812 17.370812 
C 56.264489 17.877134 55.98 18.563952 55.98 19.28 
C 55.98 19.996048 56.264489 20.682866 56.770812 21.189188 
C 57.277134 21.695511 57.963952 21.98 58.68 21.98 
z
" clip-path="url(#p4713dcaba3)" style="stroke: #000000; stroke-width: 2; stroke-linejoin: miter"/>
   </g>
   <g id="line2d_11">
    <path d="M 58.68 33.68 
L 58.68 33.68 
" clip-path="url(#p4713dcaba3)" style="fill: none; stroke: #dc2626; stroke-width: 2; stroke-linecap: round"/>
   </g>
   <g id="patch_6">
    <path d="M 64.08 33.68 
L 58.68 44.48 
L 53.28 33.68 
z
" clip-path="url(#p4713dcaba3)" style="fill: #dc2626"/>
   </g>
   <g id="text_6">
    <!-- $I_1$ -->
    <g style="fill: #dc2626" transform="translate(39.41 42.115312) scale(0.11 -0.11)">
     <use xlink:href="#DejaVuSans-Oblique-49" transform="translate(0 0.09375)"/>
     <use xlink:href="#DejaVuSans-31" transform="translate(29.492188 -16.3125) scale(0.7)"/>
    </g>
   </g>
   <g id="patch_7">
    <path d="M 58.68 129.98 
C 59.396048 129.98 60.082866 129.695511 60.589188 129.189188 
C 61.095511 128.682866 61.38 127.996048 61.38 127.28 
C 61.38 126.563952 61.095511 125.877134 60.589188 125.370812 
C 60.082866 124.864489 59.396048 124.58 58.68 124.58 
C 57.963952 124.58 57.277134 124.864489 56.770812 125.370812 
C 56.264489 125.877134 55.98 126.563952 55.98 127.28 
C 55.98 127.996048 56.264489 128.682866 56.770812 129.189188 
C 57.277134 129.695511 57.963952 129.98 58.68 129.98 
z
" clip-path="url(#p4713dcaba3)" style="stroke: #000000; stroke-width: 2; stroke-linejoin: miter"/>
   </g>
   <g id="line2d_12">
    <path d="M 130.68 33.68 
L 130.68 33.68 
" clip-path="url(#p4713dcaba3)" style="fill: none; stroke: #f59e0b; stroke-width: 2; stroke-linecap: round"/>
   </g>
   <g id="patch_8">
    <path d="M 136.08 33.68 
L 130.68 44.48 
L 125.28 33.68 
z
" clip-path="url(#p4713dcaba3)" style="fill: #f59e0b"/>
   </g>
   <g id="text_7">
    <!-- $I_2$ -->
    <g style="fill: #f59e0b" transform="translate(111.41 42.115312) scale(0.11 -0.11)">
     <use xlink:href="#DejaVuSans-Oblique-49" transform="translate(0 0.09375)"/>
     <use xlink:href="#DejaVuSans-32" transform="translate(29.492188 -16.3125) scale(0.7)"/>
    </g>
   </g>
  </g>
 </g>
 <defs>
  <clipPath id="p4713dcaba3">
   <rect x="0" y="0" width="253.62" height="176.56"/>
  </clipPath>
 </defs>
</svg>
