<?xml version="1.0" encoding="utf-8" standalone="no"?>
<!DOCTYPE svg PUBLIC "-//W3C//DTD SVG 1.1//EN"
  "http://www.w3.org/Graphics/SVG/1.1/DTD/svg11.dtd">
<svg xmlns:xlink="http://www.w3.org/1999/xlink" width="261.585pt" height="196.86pt" viewBox="0 0 261.585 196.86" xmlns="http://www.w3.org/2000/svg" version="1.1">
 <metadata>
  <rdf:RDF xmlns:dc="http://purl.org/dc/elements/1.1/" xmlns:cc="http://creativecommons.org/ns#" xmlns:rdf="http://www.w3.org/1999/02/22-rdf-syntax-ns#">
   <cc:Work>
    <dc:type rdf:resource="http://purl.org/dc/dcmitype/StillImage"/>
    <dc:date>2026-01-05T14:22:14.941584</dc:date>
    <dc:format>image/svg+xml</dc:format>
    <dc:creator>
     <cc:Agent>
      <dc:title>Matplotlib v3.10.8, https://matplotlib.org/</dc:title>
     </cc:Agent>
    </dc:creator>
   </cc:Work>
  </rdf:RDF>
 </metadata>
 <defs>
  <style type="text/css">*{stroke-linejoin: round; stroke-linecap: butt}</style>
 </defs>
 <g id="figure_1">
  <g id="patch_1">
   <path d="M 0 196.86 
L 261.585 196.86 
L 261.585 0 
L 0 0 
L 0 196.86 
z
" style="fill: none"/>
  </g>
  <g id="axes_1">
   <g id="patch_2">
    <path d="M 22.68 100.28 
C 27.453656 100.28 32.032438 98.383406 35.407922 95.007922 
C 38.783406 91.632438 40.68 87.053656 40.68 82.28 
C 40.68 77.506344 38.783406 72.927562 35.407922 69.552078 
C 32.032438 66.176594 27.453656 64.28 22.68 64.28 
C 17.906344 64.28 13.327562 66.176594 9.952078 69.552078 
C 6.576594 72.927562 4.68 77.506344 4.68 82.28 
C 4.68 87.053656 6.576594 91.632438 9.952078 95.007922 
C 13.327562 98.383406 17.906344 100.28 22.68 100.28 
L 22.68 100.28 
z
" clip-path="url(#p4ea9af9a7f)" style="fill: none; stroke: #2563eb; stroke-width: 2; stroke-linejoin: miter"/>
   </g>
   <g id="line2d_1">
    <path d="M 22.68 136.28 
L 22.68 100.28 
L 22.68 100.28 
M 22.68 64.28 
L 22.68 64.28 
L 22.68 28.28 
" clip-path="url(#p4ea9af9a7f)" style="fill: none; stroke: #2563eb; stroke-width: 2; stroke-linecap: round"/>
   </g>
   <g id="line2d_2">
    <path d="M 26.28 91.28 
L 19.08 91.28 
" clip-path="url(#p4ea9af9a7f)" style="fill: none; stroke: #2563eb; stroke-width: 2; stroke-linecap: round"/>
   </g>
   <g id="line2d_3">
    <path d="M 22.68 76.88 
L 22.68 69.68 
" clip-path="url(#p4ea9af9a7f)" style="fill: none; stroke: #2563eb; stroke-width: 2; stroke-linecap: round"/>
   </g>
   <g id="line2d_4">
    <path d="M 26.28 73.28 
L 19.08 73.28 
" clip-path="url(#p4ea9af9a7f)" style="fill: none; stroke: #2563eb; stroke-width: 2; stroke-linecap: round"/>
   </g>
   <g id="line2d_5">
    <path d="M 22.68 28.28 
L 40.68 28.28 
L 58.68 28.28 
" clip-path="url(#p4ea9af9a7f)" style="fill: none; stroke: #000000; stroke-width: 2; stroke-linecap: round"/>
   </g>
   <g id="line2d_6">
    <path d="M 58.68 28.28 
L 94.68 28.28 
L 97.68 19.28 
L 103.68 37.28 
L 109.68 19.28 
L 115.68 37.28 
L 121.68 19.28 
L 127.68 37.28 
L 130.68 28.28 
L 166.68 28.28 
" clip-path="url(#p4ea9af9a7f)" style="fill: none; stroke: #059669; stroke-width: 2; stroke-linecap: round"/>
   </g>
   <g id="line2d_7">
    <path d="M 166.68 28.28 
L 184.68 28.28 
L 202.68 28.28 
" clip-path="url(#p4ea9af9a7f)" style="fill: none; stroke: #000000; stroke-width: 2; stroke-linecap: round"/>
   </g>
   <g id="line2d_8">
    <path d="M 166.68 28.28 
L 166.68 64.28 
L 175.68 67.28 
L 157.68 73.28 
L 175.68 79.28 
L 157.68 85.28 
L 175.68 91.28 
L 157.68 97.28 
L 166.68 100.28 
L 166.68 136.28 
" clip-path="url(#p4ea9af9a7f)" style="fill: none; stroke: #059669; stroke-width: 2; stroke-linecap: round"/>
   </g>
   <g id="line2d_9">
    <path d="M 166.68 136.28 
L 94.68 136.28 
L 22.68 136.28 
" clip-path="url(#p4ea9af9a7f)" style="fill: none; stroke: #000000; stroke-width: 2; stroke-linecap: round"/>
   </g>
   <g id="line2d_10">
    <path d="M 22.68 136.28 
L 22.68 150.68 
L 13.68 150.68 
L 31.68 150.68 
M 16.38 155 
L 28.98 155 
M 20.88 159.32 
L 24.48 159.32 
" clip-path="url(#p4ea9af9a7f)" style="fill: none; stroke: #000000; stroke-width: 2; stroke-linecap: round"/>
   </g>
   <g id="text_1">
    <!-- $V_s$ -->
    <g style="fill: #2563eb" transform="translate(16.74 148.238281) scale(0.11 -0.11)">
     <defs>
      <path id="DejaVuSans-Oblique-56" d="M 1319 0 
L 500 4666 
L 1119 4666 
L 1797 653 
L 4063 4666 
L 4750 4666 
L 2053 0 
L 1319 0 
z
" transform="scale(0.015625)"/>
      <path id="DejaVuSans-Oblique-73" d="M 3200 3397 
L 3091 2853 
Q 2863 2978 2609 3040 
Q 2356 3103 2088 3103 
Q 1634 3103 1373 2948 
Q 1113 2794 1113 2528 
Q 1113 2219 1719 2053 
Q 1766 2041 1788 2034 
L 1972 1978 
Q 2547 1819 2739 1644 
Q 2931 1469 2931 1166 
Q 2931 609 2489 259 
Q 2047 -91 1331 -91 
Q 1053 -91 747 -37 
Q 441 16 72 128 
L 184 722 
Q 500 559 806 475 
Q 1113 391 1394 391 
Q 1816 391 2080 572 
Q 2344 753 2344 1031 
Q 2344 1331 1650 1516 
L 1591 1531 
L 1394 1581 
Q 956 1697 753 1886 
Q 550 2075 550 2369 
Q 550 2928 970 3256 
Q 1391 3584 2113 3584 
Q 2397 3584 2667 3537 
Q 2938 3491 3200 3397 
z
" transform="scale(0.015625)"/>
     </defs>
     <use xlink:href="#DejaVuSans-Oblique-56" transform="translate(0 0.09375)"/>
     <use xlink:href="#DejaVuSans-Oblique-73" transform="translate(68.408203 -16.3125) scale(0.7)"/>
    </g>
   </g>
   <g id="text_2">
    <!-- $R_1$ -->
    <g style="fill: #059669" transform="translate(106.245 13.392344) scale(0.11 -0.11)">
     <defs>
      <path id="DejaVuSans-Oblique-52" d="M 1613 4147 
L 1294 2491 
L 2106 2491 
Q 2584 2491 2879 2755 
Q 3175 3019 3175 3444 
Q 3175 3784 2976 3965 
Q 2778 4147 2406 4147 
L 1613 4147 
z
M 2772 2241 
Q 2972 2194 3105 2009 
Q 3238 1825 3413 1275 
L 3809 0 
L 3144 0 
L 2778 1197 
Q 2638 1659 2453 1815 
Q 2269 1972 1888 1972 
L 1191 1972 
L 806 0 
L 172 0 
L 1081 4666 
L 2503 4666 
Q 3150 4666 3495 4373 
Q 3841 4081 3841 3531 
Q 3841 3044 3547 2687 
Q 3253 2331 2772 2241 
z
" transform="scale(0.015625)"/>
      <path id="DejaVuSans-31" d="M 794 531 
L 1825 531 
L 1825 4091 
L 703 3866 
L 703 4441 
L 1819 4666 
L 2450 4666 
L 2450 531 
L 3481 531 
L 3481 0 
L 794 0 
L 794 531 
z
" transform="scale(0.015625)"/>
     </defs>
     <use xlink:href="#DejaVuSans-Oblique-52" transform="translate(0 0.09375)"/>
     <use xlink:href="#DejaVuSans-31" transform="translate(69.482422 -16.3125) scale(0.7)"/>
    </g>
   </g>
   <g id="text_3">
    <!-- $R_2$ -->
    <g style="fill: #059669" transform="translate(160.245 22.392344) scale(0.11 -0.11)">
     <defs>
      <path id="DejaVuSans-32" d="M 1228 531 
L 3431 531 
L 3431 0 
L 469 0 
L 469 531 
Q 828 903 1448 1529 
Q 2069 2156 2228 2338 
Q 2531 2678 2651 2914 
Q 2772 3150 2772 3378 
Q 2772 3750 2511 3984 
Q 2250 4219 1831 4219 
Q 1534 4219 1204 4116 
Q 875 4013 500 3803 
L 500 4441 
Q 881 4594 1212 4672 
Q 1544 4750 1819 4750 
Q 2544 4750 2975 4387 
Q 3406 4025 3406 3419 
Q 3406 3131 3298 2873 
Q 3191 2616 2906 2266 
Q 2828 2175 2409 1742 
Q 1991 1309 1228 531 
z
" transform="scale(0.015625)"/>
     </defs>
     <use xlink:href="#DejaVuSans-Oblique-52" transform="translate(0 0.09375)"/>
     <use xlink:href="#DejaVuSans-32" transform="translate(69.482422 -16.3125) scale(0.7)"/>
    </g>
   </g>
   <g id="text_4">
    <!-- $V_{out} = V_s \cdot \frac{R_2}{R_1 + R_2}$ -->
    <g transform="translate(129.085 189.815) scale(0.11 -0.11)">
     <defs>
      <path id="DejaVuSans-Oblique-6f" d="M 1625 -91 
Q 1009 -91 651 289 
Q 294 669 294 1325 
Q 294 1706 417 2101 
Q 541 2497 738 2766 
Q 1047 3184 1428 3384 
Q 1809 3584 2291 3584 
Q 2888 3584 3255 3212 
Q 3622 2841 3622 2241 
Q 3622 1825 3500 1412 
Q 3378 1000 3181 728 
Q 2875 309 2494 109 
Q 2113 -91 1625 -91 
z
M 891 1344 
Q 891 869 1089 633 
Q 1288 397 1691 397 
Q 2269 397 2648 901 
Q 3028 1406 3028 2181 
Q 3028 2634 2825 2865 
Q 2622 3097 2228 3097 
Q 1903 3097 1650 2945 
Q 1397 2794 1197 2484 
Q 1050 2253 970 1956 
Q 891 1659 891 1344 
z
" transform="scale(0.015625)"/>
      <path id="DejaVuSans-Oblique-75" d="M 428 1388 
L 838 3500 
L 1416 3500 
L 1006 1409 
Q 975 1256 961 1147 
Q 947 1038 947 966 
Q 947 700 1109 554 
Q 1272 409 1569 409 
Q 2031 409 2368 721 
Q 2706 1034 2809 1563 
L 3194 3500 
L 3769 3500 
L 3091 0 
L 2516 0 
L 2631 550 
Q 2388 244 2052 76 
Q 1716 -91 1338 -91 
Q 878 -91 622 161 
Q 366 413 366 863 
Q 366 956 381 1097 
Q 397 1238 428 1388 
z
" transform="scale(0.015625)"/>
      <path id="DejaVuSans-Oblique-74" d="M 2706 3500 
L 2619 3053 
L 1472 3053 
L 1100 1153 
Q 1081 1047 1072 975 
Q 1063 903 1063 863 
Q 1063 663 1183 572 
Q 1303 481 1569 481 
L 2150 481 
L 2053 0 
L 1503 0 
Q 991 0 739 200 
Q 488 400 488 806 
Q 488 878 497 964 
Q 506 1050 525 1153 
L 897 3053 
L 409 3053 
L 500 3500 
L 978 3500 
L 1172 4494 
L 1747 4494 
L 1556 3500 
L 2706 3500 
z
" transform="scale(0.015625)"/>
      <path id="DejaVuSans-3d" d="M 678 2906 
L 4684 2906 
L 4684 2381 
L 678 2381 
L 678 2906 
z
M 678 1631 
L 4684 1631 
L 4684 1100 
L 678 1100 
L 678 1631 
z
" transform="scale(0.015625)"/>
      <path id="DejaVuSans-22c5" d="M 684 2619 
L 1344 2619 
L 1344 1825 
L 684 1825 
L 684 2619 
z
" transform="scale(0.015625)"/>
      <path id="DejaVuSans-2b" d="M 2944 4013 
L 2944 2272 
L 4684 2272 
L 4684 1741 
L 2944 1741 
L 2944 0 
L 2419 0 
L 2419 1741 
L 678 1741 
L 678 2272 
L 2419 2272 
L 2419 4013 
L 2944 4013 
z
" transform="scale(0.015625)"/>
     </defs>
     <use xlink:href="#DejaVuSans-Oblique-56" transform="translate(0 0.684375)"/>
     <use xlink:href="#DejaVuSans-Oblique-6f" transform="translate(68.408203 -15.721875) scale(0.7)"/>
     <use xlink:href="#DejaVuSans-Oblique-75" transform="translate(111.235352 -15.721875) scale(0.7)"/>
     <use xlink:href="#DejaVuSans-Oblique-74" transform="translate(155.600586 -15.721875) scale(0.7)"/>
     <use xlink:href="#DejaVuSans-3d" transform="translate(205.263672 0.684375)"/>
     <use xlink:href="#DejaVuSans-Oblique-56" transform="translate(308.535156 0.684375)"/>
     <use xlink:href="#DejaVuSans-Oblique-73" transform="translate(376.943359 -15.721875) scale(0.7)"/>
     <use xlink:href="#DejaVuSans-22c5" transform="translate(435.629883 0.684375)"/>
     <use xlink:href="#DejaVuSans-Oblique-52" transform="translate(570.899414 55.965625) scale(0.7)"/>
     <use xlink:href="#DejaVuSans-32" transform="translate(619.537109 44.48125) scale(0.49)"/>
     <use xlink:href="#DejaVuSans-Oblique-52" transform="translate(486.899414 -37.803125) scale(0.7)"/>
     <use xlink:href="#DejaVuSans-31" transform="translate(535.537109 -49.2875) scale(0.49)"/>
     <use xlink:href="#DejaVuSans-2b" transform="translate(582.26416 -37.803125) scale(0.7)"/>
     <use xlink:href="#DejaVuSans-Oblique-52" transform="translate(654.554199 -37.803125) scale(0.7)"/>
     <use xlink:href="#DejaVuSans-32" transform="translate(703.191895 -49.2875) scale(0.49)"/>
     <path d="M 486.899414 19.48125 
L 486.899414 25.73125 
L 736.28125 25.73125 
L 736.28125 19.48125 
L 486.899414 19.48125 
z
"/>
    </g>
   </g>
   <g id="patch_3">
    <path d="M 166.68 30.98 
C 167.396048 30.98 168.082866 30.695511 168.589188 30.189188 
C 169.095511 29.682866 169.38 28.996048 169.38 28.28 
C 169.38 27.563952 169.095511 26.877134 168.589188 26.370812 
C 168.082866 25.864489 167.396048 25.58 166.68 25.58 
C 165.963952 25.58 165.277134 25.864489 164.770812 26.370812 
C 164.264489 26.877134 163.98 27.563952 163.98 28.28 
C 163.98 28.996048 164.264489 29.682866 164.770812 30.189188 
C 165.277134 30.695511 165.963952 30.98 166.68 30.98 
z
" clip-path="url(#p4ea9af9a7f)" style="stroke: #000000; stroke-width: 2; stroke-linejoin: miter"/>
   </g>
   <g id="patch_4">
    <path d="M 202.68 30.98 
C 203.396048 30.98 204.082866 30.695511 204.589188 30.189188 
C 205.095511 29.682866 205.38 28.996048 205.38 28.28 
C 205.38 27.563952 205.095511 26.877134 204.589188 26.370812 
C 204.082866 25.864489 203.396048 25.58 202.68 25.58 
C 201.963952 25.58 201.277134 25.864489 200.770812 26.370812 
C 200.264489 26.877134 199.98 27.563952 199.98 28.28 
C 199.98 28.996048 200.264489 29.682866 200.770812 30.189188 
C 201.277134 30.695511 201.963952 30.98 202.68 30.98 
z
" clip-path="url(#p4ea9af9a7f)" style="fill: #ffffff; stroke: #000000; stroke-width: 2; stroke-linejoin: miter"/>
   </g>
   <g id="text_5">
    <!-- $V_{out}$ -->
    <g transform="translate(208.98 31.315313) scale(0.11 -0.11)">
     <use xlink:href="#DejaVuSans-Oblique-56" transform="translate(0 0.09375)"/>
     <use xlink:href="#DejaVuSans-Oblique-6f" transform="translate(68.408203 -16.3125) scale(0.7)"/>
     <use xlink:href="#DejaVuSans-Oblique-75" transform="translate(111.235352 -16.3125) scale(0.7)"/>
     <use xlink:href="#DejaVuSans-Oblique-74" transform="translate(155.600586 -16.3125) scale(0.7)"/>
    </g>
   </g>
  </g>
 </g>
 <defs>
  <clipPath id="p4ea9af9a7f">
   <rect x="0" y="0" width="261.585" height="196.86"/>
  </clipPath>
 </defs>
</svg>
