<?xml version="1.0" encoding="utf-8" standalone="no"?>
<!DOCTYPE svg PUBLIC "-//W3C//DTD SVG 1.1//EN"
  "http://www.w3.org/Graphics/SVG/1.1/DTD/svg11.dtd">
<svg xmlns:xlink="http://www.w3.org/1999/xlink" width="386.652pt" height="131.96pt" viewBox="0 0 386.652 131.96" xmlns="http://www.w3.org/2000/svg" version="1.1">
 <metadata>
  <rdf:RDF xmlns:dc="http://purl.org/dc/elements/1.1/" xmlns:cc="http://creativecommons.org/ns#" xmlns:rdf="http://www.w3.org/1999/02/22-rdf-syntax-ns#">
   <cc:Work>
    <dc:type rdf:resource="http://purl.org/dc/dcmitype/StillImage"/>
    <dc:date>2026-01-05T14:22:15.181978</dc:date>
    <dc:format>image/svg+xml</dc:format>
    <dc:creator>
     <cc:Agent>
      <dc:title>Matplotlib v3.10.8, https://matplotlib.org/</dc:title>
     </cc:Agent>
    </dc:creator>
   </cc:Work>
  </rdf:RDF>
 </metadata>
 <defs>
  <style type="text/css">*{stroke-linejoin: round; stroke-linecap: butt}</style>
 </defs>
 <g id="figure_1">
  <g id="patch_1">
   <path d="M 0 131.96 
L 386.652 131.96 
L 386.652 0 
L 0 0 
L 0 131.96 
z
" style="fill: none"/>
  </g>
  <g id="axes_1">
   <g id="line2d_1">
    <path d="M 44.28 28.28 
L 80.28 28.28 
L 83.28 19.28 
L 89.28 37.28 
L 95.28 19.28 
L 101.28 37.28 
L 107.28 19.28 
L 113.28 37.28 
L 116.28 28.28 
L 152.28 28.28 
" clip-path="url(#p554eae94f4)" style="fill: none; stroke: #059669; stroke-width: 2; stroke-linecap: round"/>
   </g>
   <g id="line2d_2">
    <path d="M 152.28 28.28 
L 188.28 28.28 
L 191.28 19.28 
L 197.28 37.28 
L 203.28 19.28 
L 209.28 37.28 
L 215.28 19.28 
L 221.28 37.28 
L 224.28 28.28 
L 260.28 28.28 
" clip-path="url(#p554eae94f4)" style="fill: none; stroke: #059669; stroke-width: 2; stroke-linecap: round"/>
   </g>
   <g id="line2d_3">
    <path d="M 260.28 28.28 
L 296.28 28.28 
L 299.28 19.28 
L 305.28 37.28 
L 311.28 19.28 
L 317.28 37.28 
L 323.28 19.28 
L 329.28 37.28 
L 332.28 28.28 
L 368.28 28.28 
" clip-path="url(#p554eae94f4)" style="fill: none; stroke: #059669; stroke-width: 2; stroke-linecap: round"/>
   </g>
   <g id="line2d_4">
    <path d="M 98.28 118.28 
L 134.28 118.28 
L 137.28 109.28 
L 143.28 127.28 
L 149.28 109.28 
L 155.28 127.28 
L 161.28 109.28 
L 167.28 127.28 
L 170.28 118.28 
L 206.28 118.28 
" clip-path="url(#p554eae94f4)" style="fill: none; stroke: #f59e0b; stroke-width: 2; stroke-linecap: round"/>
   </g>
   <g id="text_1">
    <!-- $R_1$ -->
    <g style="fill: #059669" transform="translate(91.845 13.392344) scale(0.11 -0.11)">
     <defs>
      <path id="DejaVuSans-Oblique-52" d="M 1613 4147 
L 1294 2491 
L 2106 2491 
Q 2584 2491 2879 2755 
Q 3175 3019 3175 3444 
Q 3175 3784 2976 3965 
Q 2778 4147 2406 4147 
L 1613 4147 
z
M 2772 2241 
Q 2972 2194 3105 2009 
Q 3238 1825 3413 1275 
L 3809 0 
L 3144 0 
L 2778 1197 
Q 2638 1659 2453 1815 
Q 2269 1972 1888 1972 
L 1191 1972 
L 806 0 
L 172 0 
L 1081 4666 
L 2503 4666 
Q 3150 4666 3495 4373 
Q 3841 4081 3841 3531 
Q 3841 3044 3547 2687 
Q 3253 2331 2772 2241 
z
" transform="scale(0.015625)"/>
      <path id="DejaVuSans-31" d="M 794 531 
L 1825 531 
L 1825 4091 
L 703 3866 
L 703 4441 
L 1819 4666 
L 2450 4666 
L 2450 531 
L 3481 531 
L 3481 0 
L 794 0 
L 794 531 
z
" transform="scale(0.015625)"/>
     </defs>
     <use xlink:href="#DejaVuSans-Oblique-52" transform="translate(0 0.09375)"/>
     <use xlink:href="#DejaVuSans-31" transform="translate(69.482422 -16.3125) scale(0.7)"/>
    </g>
   </g>
   <g id="text_2">
    <!-- $R_2$ -->
    <g style="fill: #059669" transform="translate(199.845 13.392344) scale(0.11 -0.11)">
     <defs>
      <path id="DejaVuSans-32" d="M 1228 531 
L 3431 531 
L 3431 0 
L 469 0 
L 469 531 
Q 828 903 1448 1529 
Q 2069 2156 2228 2338 
Q 2531 2678 2651 2914 
Q 2772 3150 2772 3378 
Q 2772 3750 2511 3984 
Q 2250 4219 1831 4219 
Q 1534 4219 1204 4116 
Q 875 4013 500 3803 
L 500 4441 
Q 881 4594 1212 4672 
Q 1544 4750 1819 4750 
Q 2544 4750 2975 4387 
Q 3406 4025 3406 3419 
Q 3406 3131 3298 2873 
Q 3191 2616 2906 2266 
Q 2828 2175 2409 1742 
Q 1991 1309 1228 531 
z
" transform="scale(0.015625)"/>
     </defs>
     <use xlink:href="#DejaVuSans-Oblique-52" transform="translate(0 0.09375)"/>
     <use xlink:href="#DejaVuSans-32" transform="translate(69.482422 -16.3125) scale(0.7)"/>
    </g>
   </g>
   <g id="text_3">
    <!-- $R_3$ -->
    <g style="fill: #059669" transform="translate(307.845 13.392344) scale(0.11 -0.11)">
     <defs>
      <path id="DejaVuSans-33" d="M 2597 2516 
Q 3050 2419 3304 2112 
Q 3559 1806 3559 1356 
Q 3559 666 3084 287 
Q 2609 -91 1734 -91 
Q 1441 -91 1130 -33 
Q 819 25 488 141 
L 488 750 
Q 750 597 1062 519 
Q 1375 441 1716 441 
Q 2309 441 2620 675 
Q 2931 909 2931 1356 
Q 2931 1769 2642 2001 
Q 2353 2234 1838 2234 
L 1294 2234 
L 1294 2753 
L 1863 2753 
Q 2328 2753 2575 2939 
Q 2822 3125 2822 3475 
Q 2822 3834 2567 4026 
Q 2313 4219 1838 4219 
Q 1578 4219 1281 4162 
Q 984 4106 628 3988 
L 628 4550 
Q 988 4650 1302 4700 
Q 1616 4750 1894 4750 
Q 2613 4750 3031 4423 
Q 3450 4097 3450 3541 
Q 3450 3153 3228 2886 
Q 3006 2619 2597 2516 
z
" transform="scale(0.015625)"/>
     </defs>
     <use xlink:href="#DejaVuSans-Oblique-52" transform="translate(0 0.09375)"/>
     <use xlink:href="#DejaVuSans-33" transform="translate(69.482422 -16.3125) scale(0.7)"/>
    </g>
   </g>
   <g id="text_4">
    <!-- Equivalente: -->
    <g transform="translate(178.609688 81.439375) scale(0.1 -0.1)">
     <defs>
      <path id="DejaVuSans-45" d="M 628 4666 
L 3578 4666 
L 3578 4134 
L 1259 4134 
L 1259 2753 
L 3481 2753 
L 3481 2222 
L 1259 2222 
L 1259 531 
L 3634 531 
L 3634 0 
L 628 0 
L 628 4666 
z
" transform="scale(0.015625)"/>
      <path id="DejaVuSans-71" d="M 947 1747 
Q 947 1113 1208 752 
Q 1469 391 1925 391 
Q 2381 391 2643 752 
Q 2906 1113 2906 1747 
Q 2906 2381 2643 2742 
Q 2381 3103 1925 3103 
Q 1469 3103 1208 2742 
Q 947 2381 947 1747 
z
M 2906 525 
Q 2725 213 2448 61 
Q 2172 -91 1784 -91 
Q 1150 -91 751 415 
Q 353 922 353 1747 
Q 353 2572 751 3078 
Q 1150 3584 1784 3584 
Q 2172 3584 2448 3432 
Q 2725 3281 2906 2969 
L 2906 3500 
L 3481 3500 
L 3481 -1331 
L 2906 -1331 
L 2906 525 
z
" transform="scale(0.015625)"/>
      <path id="DejaVuSans-75" d="M 544 1381 
L 544 3500 
L 1119 3500 
L 1119 1403 
Q 1119 906 1312 657 
Q 1506 409 1894 409 
Q 2359 409 2629 706 
Q 2900 1003 2900 1516 
L 2900 3500 
L 3475 3500 
L 3475 0 
L 2900 0 
L 2900 538 
Q 2691 219 2414 64 
Q 2138 -91 1772 -91 
Q 1169 -91 856 284 
Q 544 659 544 1381 
z
M 1991 3584 
L 1991 3584 
z
" transform="scale(0.015625)"/>
      <path id="DejaVuSans-69" d="M 603 3500 
L 1178 3500 
L 1178 0 
L 603 0 
L 603 3500 
z
M 603 4863 
L 1178 4863 
L 1178 4134 
L 603 4134 
L 603 4863 
z
" transform="scale(0.015625)"/>
      <path id="DejaVuSans-76" d="M 191 3500 
L 800 3500 
L 1894 563 
L 2988 3500 
L 3597 3500 
L 2284 0 
L 1503 0 
L 191 3500 
z
" transform="scale(0.015625)"/>
      <path id="DejaVuSans-61" d="M 2194 1759 
Q 1497 1759 1228 1600 
Q 959 1441 959 1056 
Q 959 750 1161 570 
Q 1363 391 1709 391 
Q 2188 391 2477 730 
Q 2766 1069 2766 1631 
L 2766 1759 
L 2194 1759 
z
M 3341 1997 
L 3341 0 
L 2766 0 
L 2766 531 
Q 2569 213 2275 61 
Q 1981 -91 1556 -91 
Q 1019 -91 701 211 
Q 384 513 384 1019 
Q 384 1609 779 1909 
Q 1175 2209 1959 2209 
L 2766 2209 
L 2766 2266 
Q 2766 2663 2505 2880 
Q 2244 3097 1772 3097 
Q 1472 3097 1187 3025 
Q 903 2953 641 2809 
L 641 3341 
Q 956 3463 1253 3523 
Q 1550 3584 1831 3584 
Q 2591 3584 2966 3190 
Q 3341 2797 3341 1997 
z
" transform="scale(0.015625)"/>
      <path id="DejaVuSans-6c" d="M 603 4863 
L 1178 4863 
L 1178 0 
L 603 0 
L 603 4863 
z
" transform="scale(0.015625)"/>
      <path id="DejaVuSans-65" d="M 3597 1894 
L 3597 1613 
L 953 1613 
Q 991 1019 1311 708 
Q 1631 397 2203 397 
Q 2534 397 2845 478 
Q 3156 559 3463 722 
L 3463 178 
Q 3153 47 2828 -22 
Q 2503 -91 2169 -91 
Q 1331 -91 842 396 
Q 353 884 353 1716 
Q 353 2575 817 3079 
Q 1281 3584 2069 3584 
Q 2775 3584 3186 3129 
Q 3597 2675 3597 1894 
z
M 3022 2063 
Q 3016 2534 2758 2815 
Q 2500 3097 2075 3097 
Q 1594 3097 1305 2825 
Q 1016 2553 972 2059 
L 3022 2063 
z
" transform="scale(0.015625)"/>
      <path id="DejaVuSans-6e" d="M 3513 2113 
L 3513 0 
L 2938 0 
L 2938 2094 
Q 2938 2591 2744 2837 
Q 2550 3084 2163 3084 
Q 1697 3084 1428 2787 
Q 1159 2491 1159 1978 
L 1159 0 
L 581 0 
L 581 3500 
L 1159 3500 
L 1159 2956 
Q 1366 3272 1645 3428 
Q 1925 3584 2291 3584 
Q 2894 3584 3203 3211 
Q 3513 2838 3513 2113 
z
" transform="scale(0.015625)"/>
      <path id="DejaVuSans-74" d="M 1172 4494 
L 1172 3500 
L 2356 3500 
L 2356 3053 
L 1172 3053 
L 1172 1153 
Q 1172 725 1289 603 
Q 1406 481 1766 481 
L 2356 481 
L 2356 0 
L 1766 0 
Q 1100 0 847 248 
Q 594 497 594 1153 
L 594 3053 
L 172 3053 
L 172 3500 
L 594 3500 
L 594 4494 
L 1172 4494 
z
" transform="scale(0.015625)"/>
      <path id="DejaVuSans-3a" d="M 750 794 
L 1409 794 
L 1409 0 
L 750 0 
L 750 794 
z
M 750 3309 
L 1409 3309 
L 1409 2516 
L 750 2516 
L 750 3309 
z
" transform="scale(0.015625)"/>
     </defs>
     <use xlink:href="#DejaVuSans-45"/>
     <use xlink:href="#DejaVuSans-71" transform="translate(63.183594 0)"/>
     <use xlink:href="#DejaVuSans-75" transform="translate(126.660156 0)"/>
     <use xlink:href="#DejaVuSans-69" transform="translate(190.039062 0)"/>
     <use xlink:href="#DejaVuSans-76" transform="translate(217.822266 0)"/>
     <use xlink:href="#DejaVuSans-61" transform="translate(277.001953 0)"/>
     <use xlink:href="#DejaVuSans-6c" transform="translate(338.28125 0)"/>
     <use xlink:href="#DejaVuSans-65" transform="translate(366.064453 0)"/>
     <use xlink:href="#DejaVuSans-6e" transform="translate(427.587891 0)"/>
     <use xlink:href="#DejaVuSans-74" transform="translate(490.966797 0)"/>
     <use xlink:href="#DejaVuSans-65" transform="translate(530.175781 0)"/>
     <use xlink:href="#DejaVuSans-3a" transform="translate(591.699219 0)"/>
    </g>
   </g>
   <g id="text_5">
    <!-- $R_{eq}$ -->
    <g style="fill: #f59e0b" transform="translate(143.48 102.27) scale(0.11 -0.11)">
     <defs>
      <path id="DejaVuSans-Oblique-65" d="M 3078 2063 
Q 3088 2113 3092 2166 
Q 3097 2219 3097 2272 
Q 3097 2653 2873 2875 
Q 2650 3097 2266 3097 
Q 1838 3097 1509 2826 
Q 1181 2556 1013 2059 
L 3078 2063 
z
M 3578 1613 
L 903 1613 
Q 884 1494 878 1425 
Q 872 1356 872 1306 
Q 872 872 1139 634 
Q 1406 397 1894 397 
Q 2269 397 2603 481 
Q 2938 566 3225 728 
L 3116 159 
Q 2806 34 2476 -28 
Q 2147 -91 1806 -91 
Q 1078 -91 686 257 
Q 294 606 294 1247 
Q 294 1794 489 2264 
Q 684 2734 1063 3103 
Q 1306 3334 1642 3459 
Q 1978 3584 2356 3584 
Q 2950 3584 3301 3228 
Q 3653 2872 3653 2272 
Q 3653 2128 3634 1964 
Q 3616 1800 3578 1613 
z
" transform="scale(0.015625)"/>
      <path id="DejaVuSans-Oblique-71" d="M 2669 525 
Q 2438 222 2123 65 
Q 1809 -91 1428 -91 
Q 897 -91 595 267 
Q 294 625 294 1253 
Q 294 1759 480 2231 
Q 666 2703 1013 3078 
Q 1238 3322 1530 3453 
Q 1822 3584 2144 3584 
Q 2531 3584 2781 3431 
Q 3031 3278 3144 2969 
L 3244 3494 
L 3822 3494 
L 2888 -1319 
L 2309 -1319 
L 2669 525 
z
M 891 1338 
Q 891 875 1084 633 
Q 1278 391 1644 391 
Q 2188 391 2572 911 
Q 2956 1431 2956 2175 
Q 2956 2625 2757 2864 
Q 2559 3103 2188 3103 
Q 1916 3103 1684 2976 
Q 1453 2850 1281 2606 
Q 1100 2350 995 2006 
Q 891 1663 891 1338 
z
" transform="scale(0.015625)"/>
     </defs>
     <use xlink:href="#DejaVuSans-Oblique-52" transform="translate(0 0.09375)"/>
     <use xlink:href="#DejaVuSans-Oblique-65" transform="translate(69.482422 -16.3125) scale(0.7)"/>
     <use xlink:href="#DejaVuSans-Oblique-71" transform="translate(112.548828 -16.3125) scale(0.7)"/>
    </g>
   </g>
   <g id="text_6">
    <!-- $R_{eq} = R_1 + R_2 + R_3$ -->
    <g transform="translate(161.535 116.99) scale(0.11 -0.11)">
     <defs>
      <path id="DejaVuSans-3d" d="M 678 2906 
L 4684 2906 
L 4684 2381 
L 678 2381 
L 678 2906 
z
M 678 1631 
L 4684 1631 
L 4684 1100 
L 678 1100 
L 678 1631 
z
" transform="scale(0.015625)"/>
      <path id="DejaVuSans-2b" d="M 2944 4013 
L 2944 2272 
L 4684 2272 
L 4684 1741 
L 2944 1741 
L 2944 0 
L 2419 0 
L 2419 1741 
L 678 1741 
L 678 2272 
L 2419 2272 
L 2419 4013 
L 2944 4013 
z
" transform="scale(0.015625)"/>
     </defs>
     <use xlink:href="#DejaVuSans-Oblique-52" transform="translate(0 0.09375)"/>
     <use xlink:href="#DejaVuSans-Oblique-65" transform="translate(69.482422 -16.3125) scale(0.7)"/>
     <use xlink:href="#DejaVuSans-Oblique-71" transform="translate(112.548828 -16.3125) scale(0.7)"/>
     <use xlink:href="#DejaVuSans-3d" transform="translate(179.199219 0.09375)"/>
     <use xlink:href="#DejaVuSans-Oblique-52" transform="translate(282.470703 0.09375)"/>
     <use xlink:href="#DejaVuSans-31" transform="translate(351.953125 -16.3125) scale(0.7)"/>
     <use xlink:href="#DejaVuSans-2b" transform="translate(418.706055 0.09375)"/>
     <use xlink:href="#DejaVuSans-Oblique-52" transform="translate(521.977539 0.09375)"/>
     <use xlink:href="#DejaVuSans-32" transform="translate(591.459961 -16.3125) scale(0.7)"/>
     <use xlink:href="#DejaVuSans-2b" transform="translate(658.212891 0.09375)"/>
     <use xlink:href="#DejaVuSans-Oblique-52" transform="translate(761.484375 0.09375)"/>
     <use xlink:href="#DejaVuSans-33" transform="translate(830.966797 -16.3125) scale(0.7)"/>
    </g>
   </g>
   <g id="patch_2">
    <path d="M 44.28 30.98 
C 44.996048 30.98 45.682866 30.695511 46.189188 30.189188 
C 46.695511 29.682866 46.98 28.996048 46.98 28.28 
C 46.98 27.563952 46.695511 26.877134 46.189188 26.370812 
C 45.682866 25.864489 44.996048 25.58 44.28 25.58 
C 43.563952 25.58 42.877134 25.864489 42.370812 26.370812 
C 41.864489 26.877134 41.58 27.563952 41.58 28.28 
C 41.58 28.996048 41.864489 29.682866 42.370812 30.189188 
C 42.877134 30.695511 43.563952 30.98 44.28 30.98 
z
" clip-path="url(#p554eae94f4)" style="fill: #ffffff; stroke: #000000; stroke-width: 2; stroke-linejoin: miter"/>
   </g>
   <g id="text_7">
    <!-- A -->
    <g transform="translate(30.455313 31.315312) scale(0.11 -0.11)">
     <defs>
      <path id="DejaVuSans-41" d="M 2188 4044 
L 1331 1722 
L 3047 1722 
L 2188 4044 
z
M 1831 4666 
L 2547 4666 
L 4325 0 
L 3669 0 
L 3244 1197 
L 1141 1197 
L 716 0 
L 50 0 
L 1831 4666 
z
" transform="scale(0.015625)"/>
     </defs>
     <use xlink:href="#DejaVuSans-41"/>
    </g>
   </g>
   <g id="patch_3">
    <path d="M 368.28 30.98 
C 368.996048 30.98 369.682866 30.695511 370.189188 30.189188 
C 370.695511 29.682866 370.98 28.996048 370.98 28.28 
C 370.98 27.563952 370.695511 26.877134 370.189188 26.370812 
C 369.682866 25.864489 368.996048 25.58 368.28 25.58 
C 367.563952 25.58 366.877134 25.864489 366.370812 26.370812 
C 365.864489 26.877134 365.58 27.563952 365.58 28.28 
C 365.58 28.996048 365.864489 29.682866 366.370812 30.189188 
C 366.877134 30.695511 367.563952 30.98 368.28 30.98 
z
" clip-path="url(#p554eae94f4)" style="fill: #ffffff; stroke: #000000; stroke-width: 2; stroke-linejoin: miter"/>
   </g>
   <g id="text_8">
    <!-- B -->
    <g transform="translate(374.58 31.315312) scale(0.11 -0.11)">
     <defs>
      <path id="DejaVuSans-42" d="M 1259 2228 
L 1259 519 
L 2272 519 
Q 2781 519 3026 730 
Q 3272 941 3272 1375 
Q 3272 1813 3026 2020 
Q 2781 2228 2272 2228 
L 1259 2228 
z
M 1259 4147 
L 1259 2741 
L 2194 2741 
Q 2656 2741 2882 2914 
Q 3109 3088 3109 3444 
Q 3109 3797 2882 3972 
Q 2656 4147 2194 4147 
L 1259 4147 
z
M 628 4666 
L 2241 4666 
Q 2963 4666 3353 4366 
Q 3744 4066 3744 3513 
Q 3744 3084 3544 2831 
Q 3344 2578 2956 2516 
Q 3422 2416 3680 2098 
Q 3938 1781 3938 1306 
Q 3938 681 3513 340 
Q 3088 0 2303 0 
L 628 0 
L 628 4666 
z
" transform="scale(0.015625)"/>
     </defs>
     <use xlink:href="#DejaVuSans-42"/>
    </g>
   </g>
   <g id="line2d_5">
    <path d="M 4.68 28.28 
L 4.68 28.28 
" clip-path="url(#p554eae94f4)" style="fill: none; stroke: #dc2626; stroke-width: 2; stroke-linecap: round"/>
   </g>
   <g id="patch_4">
    <path d="M 4.68 22.88 
L 15.48 28.28 
L 4.68 33.68 
z
" clip-path="url(#p554eae94f4)" style="fill: #dc2626"/>
   </g>
   <g id="text_9">
    <!-- $I$ -->
    <g style="fill: #dc2626" transform="translate(8.43 15.192344) scale(0.11 -0.11)">
     <defs>
      <path id="DejaVuSans-Oblique-49" d="M 1081 4666 
L 1716 4666 
L 806 0 
L 172 0 
L 1081 4666 
z
" transform="scale(0.015625)"/>
     </defs>
     <use xlink:href="#DejaVuSans-Oblique-49" transform="translate(0 0.09375)"/>
    </g>
   </g>
   <g id="patch_5">
    <path d="M 98.28 120.98 
C 98.996048 120.98 99.682866 120.695511 100.189188 120.189188 
C 100.695511 119.682866 100.98 118.996048 100.98 118.28 
C 100.98 117.563952 100.695511 116.877134 100.189188 116.370812 
C 99.682866 115.864489 98.996048 115.58 98.28 115.58 
C 97.563952 115.58 96.877134 115.864489 96.370812 116.370812 
C 95.864489 116.877134 95.58 117.563952 95.58 118.28 
C 95.58 118.996048 95.864489 119.682866 96.370812 120.189188 
C 96.877134 120.695511 97.563952 120.98 98.28 120.98 
z
" clip-path="url(#p554eae94f4)" style="fill: #ffffff; stroke: #000000; stroke-width: 2; stroke-linejoin: miter"/>
   </g>
   <g id="text_10">
    <!-- A -->
    <g transform="translate(84.455312 121.315312) scale(0.11 -0.11)">
     <use xlink:href="#DejaVuSans-41"/>
    </g>
   </g>
   <g id="patch_6">
    <path d="M 206.28 120.98 
C 206.996048 120.98 207.682866 120.695511 208.189188 120.189188 
C 208.695511 119.682866 208.98 118.996048 208.98 118.28 
C 208.98 117.563952 208.695511 116.877134 208.189188 116.370812 
C 207.682866 115.864489 206.996048 115.58 206.28 115.58 
C 205.563952 115.58 204.877134 115.864489 204.370812 116.370812 
C 203.864489 116.877134 203.58 117.563952 203.58 118.28 
C 203.58 118.996048 203.864489 119.682866 204.370812 120.189188 
C 204.877134 120.695511 205.563952 120.98 206.28 120.98 
z
" clip-path="url(#p554eae94f4)" style="fill: #ffffff; stroke: #000000; stroke-width: 2; stroke-linejoin: miter"/>
   </g>
   <g id="text_11">
    <!-- B -->
    <g transform="translate(212.58 121.315312) scale(0.11 -0.11)">
     <use xlink:href="#DejaVuSans-42"/>
    </g>
   </g>
  </g>
 </g>
 <defs>
  <clipPath id="p554eae94f4">
   <rect x="0" y="0" width="386.652" height="131.96"/>
  </clipPath>
 </defs>
</svg>
