<?xml version="1.0" encoding="utf-8" standalone="no"?>
<!DOCTYPE svg PUBLIC "-//W3C//DTD SVG 1.1//EN"
  "http://www.w3.org/Graphics/SVG/1.1/DTD/svg11.dtd">
<svg xmlns:xlink="http://www.w3.org/1999/xlink" width="228.96pt" height="249.36pt" viewBox="0 0 228.96 249.36" xmlns="http://www.w3.org/2000/svg" version="1.1">
 <metadata>
  <rdf:RDF xmlns:dc="http://purl.org/dc/elements/1.1/" xmlns:cc="http://creativecommons.org/ns#" xmlns:rdf="http://www.w3.org/1999/02/22-rdf-syntax-ns#">
   <cc:Work>
    <dc:type rdf:resource="http://purl.org/dc/dcmitype/StillImage"/>
    <dc:date>2026-01-05T14:22:14.731383</dc:date>
    <dc:format>image/svg+xml</dc:format>
    <dc:creator>
     <cc:Agent>
      <dc:title>Matplotlib v3.10.8, https://matplotlib.org/</dc:title>
     </cc:Agent>
    </dc:creator>
   </cc:Work>
  </rdf:RDF>
 </metadata>
 <defs>
  <style type="text/css">*{stroke-linejoin: round; stroke-linecap: butt}</style>
 </defs>
 <g id="figure_1">
  <g id="patch_1">
   <path d="M 0 249.36 
L 228.96 249.36 
L 228.96 0 
L 0 0 
L 0 249.36 
z
" style="fill: none"/>
  </g>
  <g id="axes_1">
   <g id="line2d_1">
    <path d="M 8.28 109.08 
L 62.28 109.08 
L 116.28 109.08 
" clip-path="url(#p4e20783ba3)" style="fill: none; stroke: #1f2937; stroke-width: 2; stroke-linecap: round"/>
   </g>
   <g id="line2d_2">
    <path d="M 116.28 19.08 
L 116.28 64.08 
L 116.28 109.08 
" clip-path="url(#p4e20783ba3)" style="fill: none; stroke: #1f2937; stroke-width: 2; stroke-linecap: round"/>
   </g>
   <g id="line2d_3">
    <path d="M 116.28 109.08 
L 170.28 109.08 
L 224.28 109.08 
" clip-path="url(#p4e20783ba3)" style="fill: none; stroke: #1f2937; stroke-width: 2; stroke-linecap: round"/>
   </g>
   <g id="line2d_4">
    <path d="M 116.28 109.08 
L 116.28 154.08 
L 116.28 199.08 
" clip-path="url(#p4e20783ba3)" style="fill: none; stroke: #1f2937; stroke-width: 2; stroke-linecap: round"/>
   </g>
   <g id="text_1">
    <!-- Nodo -->
    <g transform="translate(124.846406 97.439375) scale(0.1 -0.1)">
     <defs>
      <path id="DejaVuSans-4e" d="M 628 4666 
L 1478 4666 
L 3547 763 
L 3547 4666 
L 4159 4666 
L 4159 0 
L 3309 0 
L 1241 3903 
L 1241 0 
L 628 0 
L 628 4666 
z
" transform="scale(0.015625)"/>
      <path id="DejaVuSans-6f" d="M 1959 3097 
Q 1497 3097 1228 2736 
Q 959 2375 959 1747 
Q 959 1119 1226 758 
Q 1494 397 1959 397 
Q 2419 397 2687 759 
Q 2956 1122 2956 1747 
Q 2956 2369 2687 2733 
Q 2419 3097 1959 3097 
z
M 1959 3584 
Q 2709 3584 3137 3096 
Q 3566 2609 3566 1747 
Q 3566 888 3137 398 
Q 2709 -91 1959 -91 
Q 1206 -91 779 398 
Q 353 888 353 1747 
Q 353 2609 779 3096 
Q 1206 3584 1959 3584 
z
" transform="scale(0.015625)"/>
      <path id="DejaVuSans-64" d="M 2906 2969 
L 2906 4863 
L 3481 4863 
L 3481 0 
L 2906 0 
L 2906 525 
Q 2725 213 2448 61 
Q 2172 -91 1784 -91 
Q 1150 -91 751 415 
Q 353 922 353 1747 
Q 353 2572 751 3078 
Q 1150 3584 1784 3584 
Q 2172 3584 2448 3432 
Q 2725 3281 2906 2969 
z
M 947 1747 
Q 947 1113 1208 752 
Q 1469 391 1925 391 
Q 2381 391 2643 752 
Q 2906 1113 2906 1747 
Q 2906 2381 2643 2742 
Q 2381 3103 1925 3103 
Q 1469 3103 1208 2742 
Q 947 2381 947 1747 
z
" transform="scale(0.015625)"/>
     </defs>
     <use xlink:href="#DejaVuSans-4e"/>
     <use xlink:href="#DejaVuSans-6f" transform="translate(74.804688 0)"/>
     <use xlink:href="#DejaVuSans-64" transform="translate(135.986328 0)"/>
     <use xlink:href="#DejaVuSans-6f" transform="translate(199.462891 0)"/>
    </g>
   </g>
   <g id="text_2">
    <!-- $I_1 + I_2 = I_3 + I_4$ -->
    <g transform="translate(79.32 241.99125) scale(0.12 -0.12)">
     <defs>
      <path id="DejaVuSans-Oblique-49" d="M 1081 4666 
L 1716 4666 
L 806 0 
L 172 0 
L 1081 4666 
z
" transform="scale(0.015625)"/>
      <path id="DejaVuSans-31" d="M 794 531 
L 1825 531 
L 1825 4091 
L 703 3866 
L 703 4441 
L 1819 4666 
L 2450 4666 
L 2450 531 
L 3481 531 
L 3481 0 
L 794 0 
L 794 531 
z
" transform="scale(0.015625)"/>
      <path id="DejaVuSans-2b" d="M 2944 4013 
L 2944 2272 
L 4684 2272 
L 4684 1741 
L 2944 1741 
L 2944 0 
L 2419 0 
L 2419 1741 
L 678 1741 
L 678 2272 
L 2419 2272 
L 2419 4013 
L 2944 4013 
z
" transform="scale(0.015625)"/>
      <path id="DejaVuSans-32" d="M 1228 531 
L 3431 531 
L 3431 0 
L 469 0 
L 469 531 
Q 828 903 1448 1529 
Q 2069 2156 2228 2338 
Q 2531 2678 2651 2914 
Q 2772 3150 2772 3378 
Q 2772 3750 2511 3984 
Q 2250 4219 1831 4219 
Q 1534 4219 1204 4116 
Q 875 4013 500 3803 
L 500 4441 
Q 881 4594 1212 4672 
Q 1544 4750 1819 4750 
Q 2544 4750 2975 4387 
Q 3406 4025 3406 3419 
Q 3406 3131 3298 2873 
Q 3191 2616 2906 2266 
Q 2828 2175 2409 1742 
Q 1991 1309 1228 531 
z
" transform="scale(0.015625)"/>
      <path id="DejaVuSans-3d" d="M 678 2906 
L 4684 2906 
L 4684 2381 
L 678 2381 
L 678 2906 
z
M 678 1631 
L 4684 1631 
L 4684 1100 
L 678 1100 
L 678 1631 
z
" transform="scale(0.015625)"/>
      <path id="DejaVuSans-33" d="M 2597 2516 
Q 3050 2419 3304 2112 
Q 3559 1806 3559 1356 
Q 3559 666 3084 287 
Q 2609 -91 1734 -91 
Q 1441 -91 1130 -33 
Q 819 25 488 141 
L 488 750 
Q 750 597 1062 519 
Q 1375 441 1716 441 
Q 2309 441 2620 675 
Q 2931 909 2931 1356 
Q 2931 1769 2642 2001 
Q 2353 2234 1838 2234 
L 1294 2234 
L 1294 2753 
L 1863 2753 
Q 2328 2753 2575 2939 
Q 2822 3125 2822 3475 
Q 2822 3834 2567 4026 
Q 2313 4219 1838 4219 
Q 1578 4219 1281 4162 
Q 984 4106 628 3988 
L 628 4550 
Q 988 4650 1302 4700 
Q 1616 4750 1894 4750 
Q 2613 4750 3031 4423 
Q 3450 4097 3450 3541 
Q 3450 3153 3228 2886 
Q 3006 2619 2597 2516 
z
" transform="scale(0.015625)"/>
      <path id="DejaVuSans-34" d="M 2419 4116 
L 825 1625 
L 2419 1625 
L 2419 4116 
z
M 2253 4666 
L 3047 4666 
L 3047 1625 
L 3713 1625 
L 3713 1100 
L 3047 1100 
L 3047 0 
L 2419 0 
L 2419 1100 
L 313 1100 
L 313 1709 
L 2253 4666 
z
" transform="scale(0.015625)"/>
     </defs>
     <use xlink:href="#DejaVuSans-Oblique-49" transform="translate(0 0.09375)"/>
     <use xlink:href="#DejaVuSans-31" transform="translate(29.492188 -16.3125) scale(0.7)"/>
     <use xlink:href="#DejaVuSans-2b" transform="translate(96.245117 0.09375)"/>
     <use xlink:href="#DejaVuSans-Oblique-49" transform="translate(199.516602 0.09375)"/>
     <use xlink:href="#DejaVuSans-32" transform="translate(229.008789 -16.3125) scale(0.7)"/>
     <use xlink:href="#DejaVuSans-3d" transform="translate(295.761719 0.09375)"/>
     <use xlink:href="#DejaVuSans-Oblique-49" transform="translate(399.033203 0.09375)"/>
     <use xlink:href="#DejaVuSans-33" transform="translate(428.525391 -16.3125) scale(0.7)"/>
     <use xlink:href="#DejaVuSans-2b" transform="translate(495.27832 0.09375)"/>
     <use xlink:href="#DejaVuSans-Oblique-49" transform="translate(598.549805 0.09375)"/>
     <use xlink:href="#DejaVuSans-34" transform="translate(628.041992 -16.3125) scale(0.7)"/>
    </g>
   </g>
   <g id="patch_2">
    <path d="M 116.28 111.78 
C 116.996048 111.78 117.682866 111.495511 118.189188 110.989188 
C 118.695511 110.482866 118.98 109.796048 118.98 109.08 
C 118.98 108.363952 118.695511 107.677134 118.189188 107.170812 
C 117.682866 106.664489 116.996048 106.38 116.28 106.38 
C 115.563952 106.38 114.877134 106.664489 114.370812 107.170812 
C 113.864489 107.677134 113.58 108.363952 113.58 109.08 
C 113.58 109.796048 113.864489 110.482866 114.370812 110.989188 
C 114.877134 111.495511 115.563952 111.78 116.28 111.78 
z
" clip-path="url(#p4e20783ba3)" style="stroke: #000000; stroke-width: 2; stroke-linejoin: miter"/>
   </g>
   <g id="line2d_5">
    <path d="M 4.68 109.08 
L 4.68 109.08 
" clip-path="url(#p4e20783ba3)" style="fill: none; stroke: #dc2626; stroke-width: 2; stroke-linecap: round"/>
   </g>
   <g id="patch_3">
    <path d="M 4.68 103.68 
L 15.48 109.08 
L 4.68 114.48 
z
" clip-path="url(#p4e20783ba3)" style="fill: #dc2626"/>
   </g>
   <g id="text_3">
    <!-- $I_1$ -->
    <g style="fill: #dc2626" transform="translate(5.845 95.992344) scale(0.11 -0.11)">
     <use xlink:href="#DejaVuSans-Oblique-49" transform="translate(0 0.09375)"/>
     <use xlink:href="#DejaVuSans-31" transform="translate(29.492188 -16.3125) scale(0.7)"/>
    </g>
   </g>
   <g id="line2d_6">
    <path d="M 116.28 15.48 
L 116.28 15.48 
" clip-path="url(#p4e20783ba3)" style="fill: none; stroke: #2563eb; stroke-width: 2; stroke-linecap: round"/>
   </g>
   <g id="patch_4">
    <path d="M 121.68 15.48 
L 116.28 26.28 
L 110.88 15.48 
z
" clip-path="url(#p4e20783ba3)" style="fill: #2563eb"/>
   </g>
   <g id="text_4">
    <!-- $I_2$ -->
    <g style="fill: #2563eb" transform="translate(97.01 23.915312) scale(0.11 -0.11)">
     <use xlink:href="#DejaVuSans-Oblique-49" transform="translate(0 0.09375)"/>
     <use xlink:href="#DejaVuSans-32" transform="translate(29.492188 -16.3125) scale(0.7)"/>
    </g>
   </g>
   <g id="line2d_7">
    <path d="M 159.48 109.08 
L 159.48 109.08 
" clip-path="url(#p4e20783ba3)" style="fill: none; stroke: #059669; stroke-width: 2; stroke-linecap: round"/>
   </g>
   <g id="patch_5">
    <path d="M 159.48 114.48 
L 148.68 109.08 
L 159.48 103.68 
z
" clip-path="url(#p4e20783ba3)" style="fill: #059669"/>
   </g>
   <g id="text_5">
    <!-- $I_3$ -->
    <g style="fill: #059669" transform="translate(149.845 95.992344) scale(0.11 -0.11)">
     <use xlink:href="#DejaVuSans-Oblique-49" transform="translate(0 0.09375)"/>
     <use xlink:href="#DejaVuSans-33" transform="translate(29.492188 -16.3125) scale(0.7)"/>
    </g>
   </g>
   <g id="line2d_8">
    <path d="M 116.28 134.28 
L 116.28 134.28 
" clip-path="url(#p4e20783ba3)" style="fill: none; stroke: #f59e0b; stroke-width: 2; stroke-linecap: round"/>
   </g>
   <g id="patch_6">
    <path d="M 110.88 134.28 
L 116.28 123.48 
L 121.68 134.28 
z
" clip-path="url(#p4e20783ba3)" style="fill: #f59e0b"/>
   </g>
   <g id="text_6">
    <!-- $I_4$ -->
    <g style="fill: #f59e0b" transform="translate(97.01 131.915312) scale(0.11 -0.11)">
     <use xlink:href="#DejaVuSans-Oblique-49" transform="translate(0 0.09375)"/>
     <use xlink:href="#DejaVuSans-34" transform="translate(29.492188 -16.3125) scale(0.7)"/>
    </g>
   </g>
  </g>
 </g>
 <defs>
  <clipPath id="p4e20783ba3">
   <rect x="0" y="-0" width="228.96" height="249.36"/>
  </clipPath>
 </defs>
</svg>
