<?xml version="1.0" encoding="utf-8" standalone="no"?>
<!DOCTYPE svg PUBLIC "-//W3C//DTD SVG 1.1//EN"
  "http://www.w3.org/Graphics/SVG/1.1/DTD/svg11.dtd">
<svg xmlns:xlink="http://www.w3.org/1999/xlink" width="233.349pt" height="239.56pt" viewBox="0 0 233.349 239.56" xmlns="http://www.w3.org/2000/svg" version="1.1">
 <metadata>
  <rdf:RDF xmlns:dc="http://purl.org/dc/elements/1.1/" xmlns:cc="http://creativecommons.org/ns#" xmlns:rdf="http://www.w3.org/1999/02/22-rdf-syntax-ns#">
   <cc:Work>
    <dc:type rdf:resource="http://purl.org/dc/dcmitype/StillImage"/>
    <dc:date>2026-01-05T14:22:14.822336</dc:date>
    <dc:format>image/svg+xml</dc:format>
    <dc:creator>
     <cc:Agent>
      <dc:title>Matplotlib v3.10.8, https://matplotlib.org/</dc:title>
     </cc:Agent>
    </dc:creator>
   </cc:Work>
  </rdf:RDF>
 </metadata>
 <defs>
  <style type="text/css">*{stroke-linejoin: round; stroke-linecap: butt}</style>
 </defs>
 <g id="figure_1">
  <g id="patch_1">
   <path d="M 0 239.56 
L 233.349 239.56 
L 233.349 0 
L 0 0 
L 0 239.56 
z
" style="fill: none"/>
  </g>
  <g id="axes_1">
   <g id="patch_2">
    <path d="M 29.166 100.28 
C 33.939656 100.28 38.518438 98.383406 41.893922 95.007922 
C 45.269406 91.632438 47.166 87.053656 47.166 82.28 
C 47.166 77.506344 45.269406 72.927562 41.893922 69.552078 
C 38.518438 66.176594 33.939656 64.28 29.166 64.28 
C 24.392344 64.28 19.813562 66.176594 16.438078 69.552078 
C 13.062594 72.927562 11.166 77.506344 11.166 82.28 
C 11.166 87.053656 13.062594 91.632438 16.438078 95.007922 
C 19.813562 98.383406 24.392344 100.28 29.166 100.28 
L 29.166 100.28 
z
" clip-path="url(#p1d253367fa)" style="fill: none; stroke: #2563eb; stroke-width: 2; stroke-linejoin: miter"/>
   </g>
   <g id="patch_3">
    <path d="M 69.033895 117.382878 
C 72.743087 122.680153 77.268562 127.356202 82.44164 131.23673 
C 87.614718 135.117258 93.370317 138.153446 99.493905 140.232124 
C 105.617493 142.310802 112.03203 143.405819 118.498425 143.476359 
C 124.964819 143.546899 131.401718 142.592075 137.569195 140.647477 
C 143.736672 138.702879 149.557135 135.792972 154.813635 132.026217 
C 160.070135 128.259462 164.696541 123.68325 168.52041 118.46815 
C 172.344279 113.253051 175.317503 107.464676 177.329261 101.318778 
C 179.341019 95.17288 180.366 88.746779 180.366 82.28 
C 180.366 75.813221 179.341019 69.38712 177.329261 63.241222 
C 175.317503 57.095324 172.344279 51.306949 168.52041 46.09185 
C 164.696541 40.87675 160.070135 36.300538 154.813635 32.533783 
C 149.557135 28.767028 143.736672 25.857121 137.569195 23.912523 
C 131.401718 21.967925 124.964819 21.013101 118.498425 21.083641 
C 112.03203 21.154181 105.617493 22.249198 99.493905 24.327876 
C 93.370317 26.406554 87.614718 29.442742 82.44164 33.32327 
C 77.268562 37.203798 72.743087 41.879847 69.033895 47.177122 
" clip-path="url(#p1d253367fa)" style="fill: none; stroke: #dc2626; stroke-width: 2; stroke-linejoin: miter"/>
   </g>
   <g id="patch_4">
    <path d="M 74.40257 125.050141 
L 67.028672 119.226429 
L 69.225638 117.688097 
L 69.01915 117.393202 
L 69.04864 117.372554 
L 69.255127 117.667448 
L 71.452093 116.129116 
z
" clip-path="url(#p1d253367fa)" style="fill: #dc2626; stroke: #dc2626; stroke-linejoin: miter"/>
   </g>
   <g id="line2d_1">
    <path d="M 29.166 136.28 
L 29.166 100.28 
L 29.166 100.28 
M 29.166 64.28 
L 29.166 64.28 
L 29.166 28.28 
" clip-path="url(#p1d253367fa)" style="fill: none; stroke: #2563eb; stroke-width: 2; stroke-linecap: round"/>
   </g>
   <g id="line2d_2">
    <path d="M 32.766 91.28 
L 25.566 91.28 
" clip-path="url(#p1d253367fa)" style="fill: none; stroke: #2563eb; stroke-width: 2; stroke-linecap: round"/>
   </g>
   <g id="line2d_3">
    <path d="M 29.166 76.88 
L 29.166 69.68 
" clip-path="url(#p1d253367fa)" style="fill: none; stroke: #2563eb; stroke-width: 2; stroke-linecap: round"/>
   </g>
   <g id="line2d_4">
    <path d="M 32.766 73.28 
L 25.566 73.28 
" clip-path="url(#p1d253367fa)" style="fill: none; stroke: #2563eb; stroke-width: 2; stroke-linecap: round"/>
   </g>
   <g id="line2d_5">
    <path d="M 29.166 28.28 
L 47.166 28.28 
L 65.166 28.28 
" clip-path="url(#p1d253367fa)" style="fill: none; stroke: #000000; stroke-width: 2; stroke-linecap: round"/>
   </g>
   <g id="line2d_6">
    <path d="M 65.166 28.28 
L 101.166 28.28 
L 104.166 19.28 
L 110.166 37.28 
L 116.166 19.28 
L 122.166 37.28 
L 128.166 19.28 
L 134.166 37.28 
L 137.166 28.28 
L 173.166 28.28 
" clip-path="url(#p1d253367fa)" style="fill: none; stroke: #059669; stroke-width: 2; stroke-linecap: round"/>
   </g>
   <g id="line2d_7">
    <path d="M 173.166 28.28 
L 191.166 28.28 
L 209.166 28.28 
" clip-path="url(#p1d253367fa)" style="fill: none; stroke: #000000; stroke-width: 2; stroke-linecap: round"/>
   </g>
   <g id="line2d_8">
    <path d="M 209.166 28.28 
L 209.166 64.28 
L 218.166 67.28 
L 200.166 73.28 
L 218.166 79.28 
L 200.166 85.28 
L 218.166 91.28 
L 200.166 97.28 
L 209.166 100.28 
L 209.166 136.28 
" clip-path="url(#p1d253367fa)" style="fill: none; stroke: #059669; stroke-width: 2; stroke-linecap: round"/>
   </g>
   <g id="line2d_9">
    <path d="M 209.166 136.28 
L 191.166 136.28 
L 173.166 136.28 
" clip-path="url(#p1d253367fa)" style="fill: none; stroke: #000000; stroke-width: 2; stroke-linecap: round"/>
   </g>
   <g id="line2d_10">
    <path d="M 173.166 136.28 
L 137.166 136.28 
L 134.166 145.28 
L 128.166 127.28 
L 122.166 145.28 
L 116.166 127.28 
L 110.166 145.28 
L 104.166 127.28 
L 101.166 136.28 
L 65.166 136.28 
" clip-path="url(#p1d253367fa)" style="fill: none; stroke: #059669; stroke-width: 2; stroke-linecap: round"/>
   </g>
   <g id="line2d_11">
    <path d="M 65.166 136.28 
L 47.166 136.28 
L 29.166 136.28 
" clip-path="url(#p1d253367fa)" style="fill: none; stroke: #000000; stroke-width: 2; stroke-linecap: round"/>
   </g>
   <g id="text_1">
    <!-- $V_s = 12V$ -->
    <g style="fill: #2563eb" transform="translate(5.681 148.238281) scale(0.11 -0.11)">
     <defs>
      <path id="DejaVuSans-Oblique-56" d="M 1319 0 
L 500 4666 
L 1119 4666 
L 1797 653 
L 4063 4666 
L 4750 4666 
L 2053 0 
L 1319 0 
z
" transform="scale(0.015625)"/>
      <path id="DejaVuSans-Oblique-73" d="M 3200 3397 
L 3091 2853 
Q 2863 2978 2609 3040 
Q 2356 3103 2088 3103 
Q 1634 3103 1373 2948 
Q 1113 2794 1113 2528 
Q 1113 2219 1719 2053 
Q 1766 2041 1788 2034 
L 1972 1978 
Q 2547 1819 2739 1644 
Q 2931 1469 2931 1166 
Q 2931 609 2489 259 
Q 2047 -91 1331 -91 
Q 1053 -91 747 -37 
Q 441 16 72 128 
L 184 722 
Q 500 559 806 475 
Q 1113 391 1394 391 
Q 1816 391 2080 572 
Q 2344 753 2344 1031 
Q 2344 1331 1650 1516 
L 1591 1531 
L 1394 1581 
Q 956 1697 753 1886 
Q 550 2075 550 2369 
Q 550 2928 970 3256 
Q 1391 3584 2113 3584 
Q 2397 3584 2667 3537 
Q 2938 3491 3200 3397 
z
" transform="scale(0.015625)"/>
      <path id="DejaVuSans-3d" d="M 678 2906 
L 4684 2906 
L 4684 2381 
L 678 2381 
L 678 2906 
z
M 678 1631 
L 4684 1631 
L 4684 1100 
L 678 1100 
L 678 1631 
z
" transform="scale(0.015625)"/>
      <path id="DejaVuSans-31" d="M 794 531 
L 1825 531 
L 1825 4091 
L 703 3866 
L 703 4441 
L 1819 4666 
L 2450 4666 
L 2450 531 
L 3481 531 
L 3481 0 
L 794 0 
L 794 531 
z
" transform="scale(0.015625)"/>
      <path id="DejaVuSans-32" d="M 1228 531 
L 3431 531 
L 3431 0 
L 469 0 
L 469 531 
Q 828 903 1448 1529 
Q 2069 2156 2228 2338 
Q 2531 2678 2651 2914 
Q 2772 3150 2772 3378 
Q 2772 3750 2511 3984 
Q 2250 4219 1831 4219 
Q 1534 4219 1204 4116 
Q 875 4013 500 3803 
L 500 4441 
Q 881 4594 1212 4672 
Q 1544 4750 1819 4750 
Q 2544 4750 2975 4387 
Q 3406 4025 3406 3419 
Q 3406 3131 3298 2873 
Q 3191 2616 2906 2266 
Q 2828 2175 2409 1742 
Q 1991 1309 1228 531 
z
" transform="scale(0.015625)"/>
     </defs>
     <use xlink:href="#DejaVuSans-Oblique-56" transform="translate(0 0.78125)"/>
     <use xlink:href="#DejaVuSans-Oblique-73" transform="translate(68.408203 -15.625) scale(0.7)"/>
     <use xlink:href="#DejaVuSans-3d" transform="translate(127.094727 0.78125)"/>
     <use xlink:href="#DejaVuSans-31" transform="translate(230.366211 0.78125)"/>
     <use xlink:href="#DejaVuSans-32" transform="translate(293.989258 0.78125)"/>
     <use xlink:href="#DejaVuSans-Oblique-56" transform="translate(357.612305 0.78125)"/>
    </g>
   </g>
   <g id="text_2">
    <!-- $R_1 = 2Ω$ -->
    <g style="fill: #059669" transform="translate(98.266 13.392344) scale(0.11 -0.11)">
     <defs>
      <path id="DejaVuSans-Oblique-52" d="M 1613 4147 
L 1294 2491 
L 2106 2491 
Q 2584 2491 2879 2755 
Q 3175 3019 3175 3444 
Q 3175 3784 2976 3965 
Q 2778 4147 2406 4147 
L 1613 4147 
z
M 2772 2241 
Q 2972 2194 3105 2009 
Q 3238 1825 3413 1275 
L 3809 0 
L 3144 0 
L 2778 1197 
Q 2638 1659 2453 1815 
Q 2269 1972 1888 1972 
L 1191 1972 
L 806 0 
L 172 0 
L 1081 4666 
L 2503 4666 
Q 3150 4666 3495 4373 
Q 3841 4081 3841 3531 
Q 3841 3044 3547 2687 
Q 3253 2331 2772 2241 
z
" transform="scale(0.015625)"/>
      <path id="DejaVuSans-3a9" d="M 4647 556 
L 4647 0 
L 2772 0 
L 2772 556 
Q 3325 859 3634 1378 
Q 3944 1897 3944 2528 
Q 3944 3278 3531 3731 
Q 3119 4184 2444 4184 
Q 1769 4184 1355 3729 
Q 941 3275 941 2528 
Q 941 1897 1250 1378 
Q 1563 859 2119 556 
L 2119 0 
L 244 0 
L 244 556 
L 1241 556 
Q 747 991 519 1456 
Q 294 1922 294 2497 
Q 294 3491 894 4106 
Q 1491 4722 2444 4722 
Q 3391 4722 3994 4106 
Q 4594 3494 4594 2528 
Q 4594 1922 4372 1459 
Q 4150 997 3647 556 
L 4647 556 
z
" transform="scale(0.015625)"/>
     </defs>
     <use xlink:href="#DejaVuSans-Oblique-52" transform="translate(0 0.78125)"/>
     <use xlink:href="#DejaVuSans-31" transform="translate(69.482422 -15.625) scale(0.7)"/>
     <use xlink:href="#DejaVuSans-3d" transform="translate(136.235352 0.78125)"/>
     <use xlink:href="#DejaVuSans-32" transform="translate(239.506836 0.78125)"/>
     <use xlink:href="#DejaVuSans-3a9" transform="translate(303.129883 0.78125)"/>
    </g>
   </g>
   <g id="text_3">
    <!-- $R_2 = 4Ω$ -->
    <g style="fill: #059669" transform="translate(188.266 22.392344) scale(0.11 -0.11)">
     <defs>
      <path id="DejaVuSans-34" d="M 2419 4116 
L 825 1625 
L 2419 1625 
L 2419 4116 
z
M 2253 4666 
L 3047 4666 
L 3047 1625 
L 3713 1625 
L 3713 1100 
L 3047 1100 
L 3047 0 
L 2419 0 
L 2419 1100 
L 313 1100 
L 313 1709 
L 2253 4666 
z
" transform="scale(0.015625)"/>
     </defs>
     <use xlink:href="#DejaVuSans-Oblique-52" transform="translate(0 0.21875)"/>
     <use xlink:href="#DejaVuSans-32" transform="translate(69.482422 -16.1875) scale(0.7)"/>
     <use xlink:href="#DejaVuSans-3d" transform="translate(136.235352 0.21875)"/>
     <use xlink:href="#DejaVuSans-34" transform="translate(239.506836 0.21875)"/>
     <use xlink:href="#DejaVuSans-3a9" transform="translate(303.129883 0.21875)"/>
    </g>
   </g>
   <g id="text_4">
    <!-- $R_3 = 6Ω$ -->
    <g style="fill: #059669" transform="translate(98.266 157.238281) scale(0.11 -0.11)">
     <defs>
      <path id="DejaVuSans-33" d="M 2597 2516 
Q 3050 2419 3304 2112 
Q 3559 1806 3559 1356 
Q 3559 666 3084 287 
Q 2609 -91 1734 -91 
Q 1441 -91 1130 -33 
Q 819 25 488 141 
L 488 750 
Q 750 597 1062 519 
Q 1375 441 1716 441 
Q 2309 441 2620 675 
Q 2931 909 2931 1356 
Q 2931 1769 2642 2001 
Q 2353 2234 1838 2234 
L 1294 2234 
L 1294 2753 
L 1863 2753 
Q 2328 2753 2575 2939 
Q 2822 3125 2822 3475 
Q 2822 3834 2567 4026 
Q 2313 4219 1838 4219 
Q 1578 4219 1281 4162 
Q 984 4106 628 3988 
L 628 4550 
Q 988 4650 1302 4700 
Q 1616 4750 1894 4750 
Q 2613 4750 3031 4423 
Q 3450 4097 3450 3541 
Q 3450 3153 3228 2886 
Q 3006 2619 2597 2516 
z
" transform="scale(0.015625)"/>
      <path id="DejaVuSans-36" d="M 2113 2584 
Q 1688 2584 1439 2293 
Q 1191 2003 1191 1497 
Q 1191 994 1439 701 
Q 1688 409 2113 409 
Q 2538 409 2786 701 
Q 3034 994 3034 1497 
Q 3034 2003 2786 2293 
Q 2538 2584 2113 2584 
z
M 3366 4563 
L 3366 3988 
Q 3128 4100 2886 4159 
Q 2644 4219 2406 4219 
Q 1781 4219 1451 3797 
Q 1122 3375 1075 2522 
Q 1259 2794 1537 2939 
Q 1816 3084 2150 3084 
Q 2853 3084 3261 2657 
Q 3669 2231 3669 1497 
Q 3669 778 3244 343 
Q 2819 -91 2113 -91 
Q 1303 -91 875 529 
Q 447 1150 447 2328 
Q 447 3434 972 4092 
Q 1497 4750 2381 4750 
Q 2619 4750 2861 4703 
Q 3103 4656 3366 4563 
z
" transform="scale(0.015625)"/>
     </defs>
     <use xlink:href="#DejaVuSans-Oblique-52" transform="translate(0 0.78125)"/>
     <use xlink:href="#DejaVuSans-33" transform="translate(69.482422 -15.625) scale(0.7)"/>
     <use xlink:href="#DejaVuSans-3d" transform="translate(136.235352 0.78125)"/>
     <use xlink:href="#DejaVuSans-36" transform="translate(239.506836 0.78125)"/>
     <use xlink:href="#DejaVuSans-3a9" transform="translate(303.129883 0.78125)"/>
    </g>
   </g>
   <g id="text_5">
    <!-- $I$ -->
    <g style="fill: #dc2626" transform="translate(117.516 85.315312) scale(0.11 -0.11)">
     <defs>
      <path id="DejaVuSans-Oblique-49" d="M 1081 4666 
L 1716 4666 
L 806 0 
L 172 0 
L 1081 4666 
z
" transform="scale(0.015625)"/>
     </defs>
     <use xlink:href="#DejaVuSans-Oblique-49" transform="translate(0 0.09375)"/>
    </g>
   </g>
   <g id="text_6">
    <!-- $V_s - V_{R1} - V_{R2} - V_{R3} = 0$ -->
    <g transform="translate(57.766 232.639375) scale(0.1 -0.1)">
     <defs>
      <path id="DejaVuSans-2212" d="M 678 2272 
L 4684 2272 
L 4684 1741 
L 678 1741 
L 678 2272 
z
" transform="scale(0.015625)"/>
      <path id="DejaVuSans-30" d="M 2034 4250 
Q 1547 4250 1301 3770 
Q 1056 3291 1056 2328 
Q 1056 1369 1301 889 
Q 1547 409 2034 409 
Q 2525 409 2770 889 
Q 3016 1369 3016 2328 
Q 3016 3291 2770 3770 
Q 2525 4250 2034 4250 
z
M 2034 4750 
Q 2819 4750 3233 4129 
Q 3647 3509 3647 2328 
Q 3647 1150 3233 529 
Q 2819 -91 2034 -91 
Q 1250 -91 836 529 
Q 422 1150 422 2328 
Q 422 3509 836 4129 
Q 1250 4750 2034 4750 
z
" transform="scale(0.015625)"/>
     </defs>
     <use xlink:href="#DejaVuSans-Oblique-56" transform="translate(0 0.78125)"/>
     <use xlink:href="#DejaVuSans-Oblique-73" transform="translate(68.408203 -15.625) scale(0.7)"/>
     <use xlink:href="#DejaVuSans-2212" transform="translate(127.094727 0.78125)"/>
     <use xlink:href="#DejaVuSans-Oblique-56" transform="translate(230.366211 0.78125)"/>
     <use xlink:href="#DejaVuSans-Oblique-52" transform="translate(298.774414 -15.625) scale(0.7)"/>
     <use xlink:href="#DejaVuSans-31" transform="translate(347.412109 -15.625) scale(0.7)"/>
     <use xlink:href="#DejaVuSans-2212" transform="translate(414.165039 0.78125)"/>
     <use xlink:href="#DejaVuSans-Oblique-56" transform="translate(517.436523 0.78125)"/>
     <use xlink:href="#DejaVuSans-Oblique-52" transform="translate(585.844727 -15.625) scale(0.7)"/>
     <use xlink:href="#DejaVuSans-32" transform="translate(634.482422 -15.625) scale(0.7)"/>
     <use xlink:href="#DejaVuSans-2212" transform="translate(701.235352 0.78125)"/>
     <use xlink:href="#DejaVuSans-Oblique-56" transform="translate(804.506836 0.78125)"/>
     <use xlink:href="#DejaVuSans-Oblique-52" transform="translate(872.915039 -15.625) scale(0.7)"/>
     <use xlink:href="#DejaVuSans-33" transform="translate(921.552734 -15.625) scale(0.7)"/>
     <use xlink:href="#DejaVuSans-3d" transform="translate(988.305664 0.78125)"/>
     <use xlink:href="#DejaVuSans-30" transform="translate(1091.577148 0.78125)"/>
    </g>
   </g>
  </g>
 </g>
 <defs>
  <clipPath id="p1d253367fa">
   <rect x="0" y="0" width="233.349" height="239.56"/>
  </clipPath>
 </defs>
</svg>
