<?xml version="1.0" encoding="utf-8" standalone="no"?>
<!DOCTYPE svg PUBLIC "-//W3C//DTD SVG 1.1//EN"
  "http://www.w3.org/Graphics/SVG/1.1/DTD/svg11.dtd">
<svg xmlns:xlink="http://www.w3.org/1999/xlink" width="348.972pt" height="128.56pt" viewBox="0 0 348.972 128.56" xmlns="http://www.w3.org/2000/svg" version="1.1">
 <metadata>
  <rdf:RDF xmlns:dc="http://purl.org/dc/elements/1.1/" xmlns:cc="http://creativecommons.org/ns#" xmlns:rdf="http://www.w3.org/1999/02/22-rdf-syntax-ns#">
   <cc:Work>
    <dc:type rdf:resource="http://purl.org/dc/dcmitype/StillImage"/>
    <dc:date>2026-01-05T14:22:15.301689</dc:date>
    <dc:format>image/svg+xml</dc:format>
    <dc:creator>
     <cc:Agent>
      <dc:title>Matplotlib v3.10.8, https://matplotlib.org/</dc:title>
     </cc:Agent>
    </dc:creator>
   </cc:Work>
  </rdf:RDF>
 </metadata>
 <defs>
  <style type="text/css">*{stroke-linejoin: round; stroke-linecap: butt}</style>
 </defs>
 <g id="figure_1">
  <g id="patch_1">
   <path d="M 0 128.56 
L 348.972 128.56 
L 348.972 0 
L 0 0 
L 0 128.56 
z
" style="fill: none"/>
  </g>
  <g id="axes_1">
   <g id="line2d_1">
    <path d="M 18.372 64.28 
L 36.372 64.28 
L 54.372 64.28 
" clip-path="url(#p3685b79212)" style="fill: none; stroke: #000000; stroke-width: 2; stroke-linecap: round"/>
   </g>
   <g id="line2d_2">
    <path d="M 54.372 64.28 
L 54.372 46.28 
L 54.372 28.28 
" clip-path="url(#p3685b79212)" style="fill: none; stroke: #000000; stroke-width: 2; stroke-linecap: round"/>
   </g>
   <g id="line2d_3">
    <path d="M 54.372 28.28 
L 81.372 28.28 
L 84.372 19.28 
L 90.372 37.28 
L 96.372 19.28 
L 102.372 37.28 
L 108.372 19.28 
L 114.372 37.28 
L 117.372 28.28 
L 144.372 28.28 
" clip-path="url(#p3685b79212)" style="fill: none; stroke: #059669; stroke-width: 2; stroke-linecap: round"/>
   </g>
   <g id="line2d_4">
    <path d="M 144.372 28.28 
L 144.372 46.28 
L 144.372 64.28 
" clip-path="url(#p3685b79212)" style="fill: none; stroke: #000000; stroke-width: 2; stroke-linecap: round"/>
   </g>
   <g id="line2d_5">
    <path d="M 54.372 64.28 
L 81.372 64.28 
L 84.372 55.28 
L 90.372 73.28 
L 96.372 55.28 
L 102.372 73.28 
L 108.372 55.28 
L 114.372 73.28 
L 117.372 64.28 
L 144.372 64.28 
" clip-path="url(#p3685b79212)" style="fill: none; stroke: #059669; stroke-width: 2; stroke-linecap: round"/>
   </g>
   <g id="line2d_6">
    <path d="M 54.372 64.28 
L 54.372 82.28 
L 54.372 100.28 
" clip-path="url(#p3685b79212)" style="fill: none; stroke: #000000; stroke-width: 2; stroke-linecap: round"/>
   </g>
   <g id="line2d_7">
    <path d="M 54.372 100.28 
L 81.372 100.28 
L 84.372 91.28 
L 90.372 109.28 
L 96.372 91.28 
L 102.372 109.28 
L 108.372 91.28 
L 114.372 109.28 
L 117.372 100.28 
L 144.372 100.28 
" clip-path="url(#p3685b79212)" style="fill: none; stroke: #059669; stroke-width: 2; stroke-linecap: round"/>
   </g>
   <g id="line2d_8">
    <path d="M 144.372 100.28 
L 144.372 82.28 
L 144.372 64.28 
" clip-path="url(#p3685b79212)" style="fill: none; stroke: #000000; stroke-width: 2; stroke-linecap: round"/>
   </g>
   <g id="line2d_9">
    <path d="M 144.372 64.28 
L 162.372 64.28 
L 180.372 64.28 
" clip-path="url(#p3685b79212)" style="fill: none; stroke: #000000; stroke-width: 2; stroke-linecap: round"/>
   </g>
   <g id="text_1">
    <!-- $R_1$ -->
    <g style="fill: #059669" transform="translate(92.937 13.392344) scale(0.11 -0.11)">
     <defs>
      <path id="DejaVuSans-Oblique-52" d="M 1613 4147 
L 1294 2491 
L 2106 2491 
Q 2584 2491 2879 2755 
Q 3175 3019 3175 3444 
Q 3175 3784 2976 3965 
Q 2778 4147 2406 4147 
L 1613 4147 
z
M 2772 2241 
Q 2972 2194 3105 2009 
Q 3238 1825 3413 1275 
L 3809 0 
L 3144 0 
L 2778 1197 
Q 2638 1659 2453 1815 
Q 2269 1972 1888 1972 
L 1191 1972 
L 806 0 
L 172 0 
L 1081 4666 
L 2503 4666 
Q 3150 4666 3495 4373 
Q 3841 4081 3841 3531 
Q 3841 3044 3547 2687 
Q 3253 2331 2772 2241 
z
" transform="scale(0.015625)"/>
      <path id="DejaVuSans-31" d="M 794 531 
L 1825 531 
L 1825 4091 
L 703 3866 
L 703 4441 
L 1819 4666 
L 2450 4666 
L 2450 531 
L 3481 531 
L 3481 0 
L 794 0 
L 794 531 
z
" transform="scale(0.015625)"/>
     </defs>
     <use xlink:href="#DejaVuSans-Oblique-52" transform="translate(0 0.09375)"/>
     <use xlink:href="#DejaVuSans-31" transform="translate(69.482422 -16.3125) scale(0.7)"/>
    </g>
   </g>
   <g id="text_2">
    <!-- $R_2$ -->
    <g style="fill: #059669" transform="translate(92.937 49.392344) scale(0.11 -0.11)">
     <defs>
      <path id="DejaVuSans-32" d="M 1228 531 
L 3431 531 
L 3431 0 
L 469 0 
L 469 531 
Q 828 903 1448 1529 
Q 2069 2156 2228 2338 
Q 2531 2678 2651 2914 
Q 2772 3150 2772 3378 
Q 2772 3750 2511 3984 
Q 2250 4219 1831 4219 
Q 1534 4219 1204 4116 
Q 875 4013 500 3803 
L 500 4441 
Q 881 4594 1212 4672 
Q 1544 4750 1819 4750 
Q 2544 4750 2975 4387 
Q 3406 4025 3406 3419 
Q 3406 3131 3298 2873 
Q 3191 2616 2906 2266 
Q 2828 2175 2409 1742 
Q 1991 1309 1228 531 
z
" transform="scale(0.015625)"/>
     </defs>
     <use xlink:href="#DejaVuSans-Oblique-52" transform="translate(0 0.09375)"/>
     <use xlink:href="#DejaVuSans-32" transform="translate(69.482422 -16.3125) scale(0.7)"/>
    </g>
   </g>
   <g id="text_3">
    <!-- $R_3$ -->
    <g style="fill: #059669" transform="translate(92.937 121.238281) scale(0.11 -0.11)">
     <defs>
      <path id="DejaVuSans-33" d="M 2597 2516 
Q 3050 2419 3304 2112 
Q 3559 1806 3559 1356 
Q 3559 666 3084 287 
Q 2609 -91 1734 -91 
Q 1441 -91 1130 -33 
Q 819 25 488 141 
L 488 750 
Q 750 597 1062 519 
Q 1375 441 1716 441 
Q 2309 441 2620 675 
Q 2931 909 2931 1356 
Q 2931 1769 2642 2001 
Q 2353 2234 1838 2234 
L 1294 2234 
L 1294 2753 
L 1863 2753 
Q 2328 2753 2575 2939 
Q 2822 3125 2822 3475 
Q 2822 3834 2567 4026 
Q 2313 4219 1838 4219 
Q 1578 4219 1281 4162 
Q 984 4106 628 3988 
L 628 4550 
Q 988 4650 1302 4700 
Q 1616 4750 1894 4750 
Q 2613 4750 3031 4423 
Q 3450 4097 3450 3541 
Q 3450 3153 3228 2886 
Q 3006 2619 2597 2516 
z
" transform="scale(0.015625)"/>
     </defs>
     <use xlink:href="#DejaVuSans-Oblique-52" transform="translate(0 0.09375)"/>
     <use xlink:href="#DejaVuSans-33" transform="translate(69.482422 -16.3125) scale(0.7)"/>
    </g>
   </g>
   <g id="text_4">
    <!-- $\frac{1}{R_{eq}} = \frac{1}{R_1} + \frac{1}{R_2} + \frac{1}{R_3}$ -->
    <g transform="translate(181.172 62.38) scale(0.1 -0.1)">
     <defs>
      <path id="DejaVuSans-Oblique-65" d="M 3078 2063 
Q 3088 2113 3092 2166 
Q 3097 2219 3097 2272 
Q 3097 2653 2873 2875 
Q 2650 3097 2266 3097 
Q 1838 3097 1509 2826 
Q 1181 2556 1013 2059 
L 3078 2063 
z
M 3578 1613 
L 903 1613 
Q 884 1494 878 1425 
Q 872 1356 872 1306 
Q 872 872 1139 634 
Q 1406 397 1894 397 
Q 2269 397 2603 481 
Q 2938 566 3225 728 
L 3116 159 
Q 2806 34 2476 -28 
Q 2147 -91 1806 -91 
Q 1078 -91 686 257 
Q 294 606 294 1247 
Q 294 1794 489 2264 
Q 684 2734 1063 3103 
Q 1306 3334 1642 3459 
Q 1978 3584 2356 3584 
Q 2950 3584 3301 3228 
Q 3653 2872 3653 2272 
Q 3653 2128 3634 1964 
Q 3616 1800 3578 1613 
z
" transform="scale(0.015625)"/>
      <path id="DejaVuSans-Oblique-71" d="M 2669 525 
Q 2438 222 2123 65 
Q 1809 -91 1428 -91 
Q 897 -91 595 267 
Q 294 625 294 1253 
Q 294 1759 480 2231 
Q 666 2703 1013 3078 
Q 1238 3322 1530 3453 
Q 1822 3584 2144 3584 
Q 2531 3584 2781 3431 
Q 3031 3278 3144 2969 
L 3244 3494 
L 3822 3494 
L 2888 -1319 
L 2309 -1319 
L 2669 525 
z
M 891 1338 
Q 891 875 1084 633 
Q 1278 391 1644 391 
Q 2188 391 2572 911 
Q 2956 1431 2956 2175 
Q 2956 2625 2757 2864 
Q 2559 3103 2188 3103 
Q 1916 3103 1684 2976 
Q 1453 2850 1281 2606 
Q 1100 2350 995 2006 
Q 891 1663 891 1338 
z
" transform="scale(0.015625)"/>
      <path id="DejaVuSans-3d" d="M 678 2906 
L 4684 2906 
L 4684 2381 
L 678 2381 
L 678 2906 
z
M 678 1631 
L 4684 1631 
L 4684 1100 
L 678 1100 
L 678 1631 
z
" transform="scale(0.015625)"/>
      <path id="DejaVuSans-2b" d="M 2944 4013 
L 2944 2272 
L 4684 2272 
L 4684 1741 
L 2944 1741 
L 2944 0 
L 2419 0 
L 2419 1741 
L 678 1741 
L 678 2272 
L 2419 2272 
L 2419 4013 
L 2944 4013 
z
" transform="scale(0.015625)"/>
     </defs>
     <use xlink:href="#DejaVuSans-31" transform="translate(34 43.965625) scale(0.7)"/>
     <use xlink:href="#DejaVuSans-Oblique-52" transform="translate(0 -38.31875) scale(0.7)"/>
     <use xlink:href="#DejaVuSans-Oblique-65" transform="translate(48.637695 -49.803125) scale(0.49)"/>
     <use xlink:href="#DejaVuSans-Oblique-71" transform="translate(78.78418 -49.803125) scale(0.49)"/>
     <use xlink:href="#DejaVuSans-3d" transform="translate(143.78418 0.16875)"/>
     <use xlink:href="#DejaVuSans-31" transform="translate(266.055664 43.965625) scale(0.7)"/>
     <use xlink:href="#DejaVuSans-Oblique-52" transform="translate(247.055664 -38.31875) scale(0.7)"/>
     <use xlink:href="#DejaVuSans-31" transform="translate(295.693359 -49.803125) scale(0.49)"/>
     <use xlink:href="#DejaVuSans-2b" transform="translate(360.765137 0.16875)"/>
     <use xlink:href="#DejaVuSans-31" transform="translate(483.036621 43.965625) scale(0.7)"/>
     <use xlink:href="#DejaVuSans-Oblique-52" transform="translate(464.036621 -38.31875) scale(0.7)"/>
     <use xlink:href="#DejaVuSans-32" transform="translate(512.674316 -49.803125) scale(0.49)"/>
     <use xlink:href="#DejaVuSans-2b" transform="translate(577.746094 0.16875)"/>
     <use xlink:href="#DejaVuSans-31" transform="translate(700.017578 43.965625) scale(0.7)"/>
     <use xlink:href="#DejaVuSans-Oblique-52" transform="translate(681.017578 -38.31875) scale(0.7)"/>
     <use xlink:href="#DejaVuSans-33" transform="translate(729.655273 -49.803125) scale(0.49)"/>
     <path d="M 0 18.965625 
L 0 25.215625 
L 111.801758 25.215625 
L 111.801758 18.965625 
L 0 18.965625 
z
"/>
     <path d="M 247.055664 18.965625 
L 247.055664 25.215625 
L 328.782715 25.215625 
L 328.782715 18.965625 
L 247.055664 18.965625 
z
"/>
     <path d="M 464.036621 18.965625 
L 464.036621 25.215625 
L 545.763672 25.215625 
L 545.763672 18.965625 
L 464.036621 18.965625 
z
"/>
     <path d="M 681.017578 18.965625 
L 681.017578 25.215625 
L 762.744629 25.215625 
L 762.744629 18.965625 
L 681.017578 18.965625 
z
"/>
    </g>
   </g>
   <g id="text_5">
    <!-- Para 2 resistencias: $R_{eq} = \frac{R_1 R_2}{R_1 + R_2}$ -->
    <g transform="translate(149.952 106.445) scale(0.09 -0.09)">
     <defs>
      <path id="DejaVuSans-50" d="M 1259 4147 
L 1259 2394 
L 2053 2394 
Q 2494 2394 2734 2622 
Q 2975 2850 2975 3272 
Q 2975 3691 2734 3919 
Q 2494 4147 2053 4147 
L 1259 4147 
z
M 628 4666 
L 2053 4666 
Q 2838 4666 3239 4311 
Q 3641 3956 3641 3272 
Q 3641 2581 3239 2228 
Q 2838 1875 2053 1875 
L 1259 1875 
L 1259 0 
L 628 0 
L 628 4666 
z
" transform="scale(0.015625)"/>
      <path id="DejaVuSans-61" d="M 2194 1759 
Q 1497 1759 1228 1600 
Q 959 1441 959 1056 
Q 959 750 1161 570 
Q 1363 391 1709 391 
Q 2188 391 2477 730 
Q 2766 1069 2766 1631 
L 2766 1759 
L 2194 1759 
z
M 3341 1997 
L 3341 0 
L 2766 0 
L 2766 531 
Q 2569 213 2275 61 
Q 1981 -91 1556 -91 
Q 1019 -91 701 211 
Q 384 513 384 1019 
Q 384 1609 779 1909 
Q 1175 2209 1959 2209 
L 2766 2209 
L 2766 2266 
Q 2766 2663 2505 2880 
Q 2244 3097 1772 3097 
Q 1472 3097 1187 3025 
Q 903 2953 641 2809 
L 641 3341 
Q 956 3463 1253 3523 
Q 1550 3584 1831 3584 
Q 2591 3584 2966 3190 
Q 3341 2797 3341 1997 
z
" transform="scale(0.015625)"/>
      <path id="DejaVuSans-72" d="M 2631 2963 
Q 2534 3019 2420 3045 
Q 2306 3072 2169 3072 
Q 1681 3072 1420 2755 
Q 1159 2438 1159 1844 
L 1159 0 
L 581 0 
L 581 3500 
L 1159 3500 
L 1159 2956 
Q 1341 3275 1631 3429 
Q 1922 3584 2338 3584 
Q 2397 3584 2469 3576 
Q 2541 3569 2628 3553 
L 2631 2963 
z
" transform="scale(0.015625)"/>
      <path id="DejaVuSans-20" transform="scale(0.015625)"/>
      <path id="DejaVuSans-65" d="M 3597 1894 
L 3597 1613 
L 953 1613 
Q 991 1019 1311 708 
Q 1631 397 2203 397 
Q 2534 397 2845 478 
Q 3156 559 3463 722 
L 3463 178 
Q 3153 47 2828 -22 
Q 2503 -91 2169 -91 
Q 1331 -91 842 396 
Q 353 884 353 1716 
Q 353 2575 817 3079 
Q 1281 3584 2069 3584 
Q 2775 3584 3186 3129 
Q 3597 2675 3597 1894 
z
M 3022 2063 
Q 3016 2534 2758 2815 
Q 2500 3097 2075 3097 
Q 1594 3097 1305 2825 
Q 1016 2553 972 2059 
L 3022 2063 
z
" transform="scale(0.015625)"/>
      <path id="DejaVuSans-73" d="M 2834 3397 
L 2834 2853 
Q 2591 2978 2328 3040 
Q 2066 3103 1784 3103 
Q 1356 3103 1142 2972 
Q 928 2841 928 2578 
Q 928 2378 1081 2264 
Q 1234 2150 1697 2047 
L 1894 2003 
Q 2506 1872 2764 1633 
Q 3022 1394 3022 966 
Q 3022 478 2636 193 
Q 2250 -91 1575 -91 
Q 1294 -91 989 -36 
Q 684 19 347 128 
L 347 722 
Q 666 556 975 473 
Q 1284 391 1588 391 
Q 1994 391 2212 530 
Q 2431 669 2431 922 
Q 2431 1156 2273 1281 
Q 2116 1406 1581 1522 
L 1381 1569 
Q 847 1681 609 1914 
Q 372 2147 372 2553 
Q 372 3047 722 3315 
Q 1072 3584 1716 3584 
Q 2034 3584 2315 3537 
Q 2597 3491 2834 3397 
z
" transform="scale(0.015625)"/>
      <path id="DejaVuSans-69" d="M 603 3500 
L 1178 3500 
L 1178 0 
L 603 0 
L 603 3500 
z
M 603 4863 
L 1178 4863 
L 1178 4134 
L 603 4134 
L 603 4863 
z
" transform="scale(0.015625)"/>
      <path id="DejaVuSans-74" d="M 1172 4494 
L 1172 3500 
L 2356 3500 
L 2356 3053 
L 1172 3053 
L 1172 1153 
Q 1172 725 1289 603 
Q 1406 481 1766 481 
L 2356 481 
L 2356 0 
L 1766 0 
Q 1100 0 847 248 
Q 594 497 594 1153 
L 594 3053 
L 172 3053 
L 172 3500 
L 594 3500 
L 594 4494 
L 1172 4494 
z
" transform="scale(0.015625)"/>
      <path id="DejaVuSans-6e" d="M 3513 2113 
L 3513 0 
L 2938 0 
L 2938 2094 
Q 2938 2591 2744 2837 
Q 2550 3084 2163 3084 
Q 1697 3084 1428 2787 
Q 1159 2491 1159 1978 
L 1159 0 
L 581 0 
L 581 3500 
L 1159 3500 
L 1159 2956 
Q 1366 3272 1645 3428 
Q 1925 3584 2291 3584 
Q 2894 3584 3203 3211 
Q 3513 2838 3513 2113 
z
" transform="scale(0.015625)"/>
      <path id="DejaVuSans-63" d="M 3122 3366 
L 3122 2828 
Q 2878 2963 2633 3030 
Q 2388 3097 2138 3097 
Q 1578 3097 1268 2742 
Q 959 2388 959 1747 
Q 959 1106 1268 751 
Q 1578 397 2138 397 
Q 2388 397 2633 464 
Q 2878 531 3122 666 
L 3122 134 
Q 2881 22 2623 -34 
Q 2366 -91 2075 -91 
Q 1284 -91 818 406 
Q 353 903 353 1747 
Q 353 2603 823 3093 
Q 1294 3584 2113 3584 
Q 2378 3584 2631 3529 
Q 2884 3475 3122 3366 
z
" transform="scale(0.015625)"/>
      <path id="DejaVuSans-3a" d="M 750 794 
L 1409 794 
L 1409 0 
L 750 0 
L 750 794 
z
M 750 3309 
L 1409 3309 
L 1409 2516 
L 750 2516 
L 750 3309 
z
" transform="scale(0.015625)"/>
     </defs>
     <use xlink:href="#DejaVuSans-50" transform="translate(0 0.684375)"/>
     <use xlink:href="#DejaVuSans-61" transform="translate(60.302734 0.684375)"/>
     <use xlink:href="#DejaVuSans-72" transform="translate(121.582031 0.684375)"/>
     <use xlink:href="#DejaVuSans-61" transform="translate(162.695312 0.684375)"/>
     <use xlink:href="#DejaVuSans-20" transform="translate(223.974609 0.684375)"/>
     <use xlink:href="#DejaVuSans-32" transform="translate(255.761719 0.684375)"/>
     <use xlink:href="#DejaVuSans-20" transform="translate(319.384766 0.684375)"/>
     <use xlink:href="#DejaVuSans-72" transform="translate(351.171875 0.684375)"/>
     <use xlink:href="#DejaVuSans-65" transform="translate(392.285156 0.684375)"/>
     <use xlink:href="#DejaVuSans-73" transform="translate(453.808594 0.684375)"/>
     <use xlink:href="#DejaVuSans-69" transform="translate(505.908203 0.684375)"/>
     <use xlink:href="#DejaVuSans-73" transform="translate(533.691406 0.684375)"/>
     <use xlink:href="#DejaVuSans-74" transform="translate(585.791016 0.684375)"/>
     <use xlink:href="#DejaVuSans-65" transform="translate(625 0.684375)"/>
     <use xlink:href="#DejaVuSans-6e" transform="translate(686.523438 0.684375)"/>
     <use xlink:href="#DejaVuSans-63" transform="translate(749.902344 0.684375)"/>
     <use xlink:href="#DejaVuSans-69" transform="translate(804.882812 0.684375)"/>
     <use xlink:href="#DejaVuSans-61" transform="translate(832.666016 0.684375)"/>
     <use xlink:href="#DejaVuSans-73" transform="translate(893.945312 0.684375)"/>
     <use xlink:href="#DejaVuSans-3a" transform="translate(946.044922 0.684375)"/>
     <use xlink:href="#DejaVuSans-20" transform="translate(979.736328 0.684375)"/>
     <use xlink:href="#DejaVuSans-Oblique-52" transform="translate(1011.523438 0.684375)"/>
     <use xlink:href="#DejaVuSans-Oblique-65" transform="translate(1081.005859 -15.721875) scale(0.7)"/>
     <use xlink:href="#DejaVuSans-Oblique-71" transform="translate(1124.072266 -15.721875) scale(0.7)"/>
     <use xlink:href="#DejaVuSans-3d" transform="translate(1190.722656 0.684375)"/>
     <use xlink:href="#DejaVuSans-Oblique-52" transform="translate(1336.994141 55.965625) scale(0.7)"/>
     <use xlink:href="#DejaVuSans-31" transform="translate(1385.631836 44.48125) scale(0.49)"/>
     <use xlink:href="#DejaVuSans-Oblique-52" transform="translate(1418.721191 55.965625) scale(0.7)"/>
     <use xlink:href="#DejaVuSans-32" transform="translate(1467.358887 44.48125) scale(0.49)"/>
     <use xlink:href="#DejaVuSans-Oblique-52" transform="translate(1293.994141 -37.803125) scale(0.7)"/>
     <use xlink:href="#DejaVuSans-31" transform="translate(1342.631836 -49.2875) scale(0.49)"/>
     <use xlink:href="#DejaVuSans-2b" transform="translate(1389.358887 -37.803125) scale(0.7)"/>
     <use xlink:href="#DejaVuSans-Oblique-52" transform="translate(1461.648926 -37.803125) scale(0.7)"/>
     <use xlink:href="#DejaVuSans-32" transform="translate(1510.286621 -49.2875) scale(0.49)"/>
     <path d="M 1293.994141 19.48125 
L 1293.994141 25.73125 
L 1543.375977 25.73125 
L 1543.375977 19.48125 
L 1293.994141 19.48125 
z
"/>
    </g>
   </g>
   <g id="patch_2">
    <path d="M 18.372 66.98 
C 19.088048 66.98 19.774866 66.695511 20.281188 66.189188 
C 20.787511 65.682866 21.072 64.996048 21.072 64.28 
C 21.072 63.563952 20.787511 62.877134 20.281188 62.370812 
C 19.774866 61.864489 19.088048 61.58 18.372 61.58 
C 17.655952 61.58 16.969134 61.864489 16.462812 62.370812 
C 15.956489 62.877134 15.672 63.563952 15.672 64.28 
C 15.672 64.996048 15.956489 65.682866 16.462812 66.189188 
C 16.969134 66.695511 17.655952 66.98 18.372 66.98 
z
" clip-path="url(#p3685b79212)" style="fill: #ffffff; stroke: #000000; stroke-width: 2; stroke-linejoin: miter"/>
   </g>
   <g id="text_6">
    <!-- A -->
    <g transform="translate(4.547312 67.315313) scale(0.11 -0.11)">
     <defs>
      <path id="DejaVuSans-41" d="M 2188 4044 
L 1331 1722 
L 3047 1722 
L 2188 4044 
z
M 1831 4666 
L 2547 4666 
L 4325 0 
L 3669 0 
L 3244 1197 
L 1141 1197 
L 716 0 
L 50 0 
L 1831 4666 
z
" transform="scale(0.015625)"/>
     </defs>
     <use xlink:href="#DejaVuSans-41"/>
    </g>
   </g>
   <g id="patch_3">
    <path d="M 54.372 66.98 
C 55.088048 66.98 55.774866 66.695511 56.281188 66.189188 
C 56.787511 65.682866 57.072 64.996048 57.072 64.28 
C 57.072 63.563952 56.787511 62.877134 56.281188 62.370812 
C 55.774866 61.864489 55.088048 61.58 54.372 61.58 
C 53.655952 61.58 52.969134 61.864489 52.462812 62.370812 
C 51.956489 62.877134 51.672 63.563952 51.672 64.28 
C 51.672 64.996048 51.956489 65.682866 52.462812 66.189188 
C 52.969134 66.695511 53.655952 66.98 54.372 66.98 
z
" clip-path="url(#p3685b79212)" style="stroke: #000000; stroke-width: 2; stroke-linejoin: miter"/>
   </g>
   <g id="patch_4">
    <path d="M 144.372 66.98 
C 145.088048 66.98 145.774866 66.695511 146.281188 66.189188 
C 146.787511 65.682866 147.072 64.996048 147.072 64.28 
C 147.072 63.563952 146.787511 62.877134 146.281188 62.370812 
C 145.774866 61.864489 145.088048 61.58 144.372 61.58 
C 143.655952 61.58 142.969134 61.864489 142.462812 62.370812 
C 141.956489 62.877134 141.672 63.563952 141.672 64.28 
C 141.672 64.996048 141.956489 65.682866 142.462812 66.189188 
C 142.969134 66.695511 143.655952 66.98 144.372 66.98 
z
" clip-path="url(#p3685b79212)" style="stroke: #000000; stroke-width: 2; stroke-linejoin: miter"/>
   </g>
   <g id="patch_5">
    <path d="M 180.372 66.98 
C 181.088048 66.98 181.774866 66.695511 182.281188 66.189188 
C 182.787511 65.682866 183.072 64.996048 183.072 64.28 
C 183.072 63.563952 182.787511 62.877134 182.281188 62.370812 
C 181.774866 61.864489 181.088048 61.58 180.372 61.58 
C 179.655952 61.58 178.969134 61.864489 178.462812 62.370812 
C 177.956489 62.877134 177.672 63.563952 177.672 64.28 
C 177.672 64.996048 177.956489 65.682866 178.462812 66.189188 
C 178.969134 66.695511 179.655952 66.98 180.372 66.98 
z
" clip-path="url(#p3685b79212)" style="fill: #ffffff; stroke: #000000; stroke-width: 2; stroke-linejoin: miter"/>
   </g>
   <g id="text_7">
    <!-- B -->
    <g transform="translate(186.672 67.315313) scale(0.11 -0.11)">
     <defs>
      <path id="DejaVuSans-42" d="M 1259 2228 
L 1259 519 
L 2272 519 
Q 2781 519 3026 730 
Q 3272 941 3272 1375 
Q 3272 1813 3026 2020 
Q 2781 2228 2272 2228 
L 1259 2228 
z
M 1259 4147 
L 1259 2741 
L 2194 2741 
Q 2656 2741 2882 2914 
Q 3109 3088 3109 3444 
Q 3109 3797 2882 3972 
Q 2656 4147 2194 4147 
L 1259 4147 
z
M 628 4666 
L 2241 4666 
Q 2963 4666 3353 4366 
Q 3744 4066 3744 3513 
Q 3744 3084 3544 2831 
Q 3344 2578 2956 2516 
Q 3422 2416 3680 2098 
Q 3938 1781 3938 1306 
Q 3938 681 3513 340 
Q 3088 0 2303 0 
L 628 0 
L 628 4666 
z
" transform="scale(0.015625)"/>
     </defs>
     <use xlink:href="#DejaVuSans-42"/>
    </g>
   </g>
  </g>
 </g>
 <defs>
  <clipPath id="p3685b79212">
   <rect x="0" y="0" width="348.972" height="128.56"/>
  </clipPath>
 </defs>
</svg>
