<?xml version="1.0" encoding="utf-8" standalone="no"?>
<!DOCTYPE svg PUBLIC "-//W3C//DTD SVG 1.1//EN"
  "http://www.w3.org/Graphics/SVG/1.1/DTD/svg11.dtd">
<svg xmlns:xlink="http://www.w3.org/1999/xlink" width="332.766pt" height="171.2pt" viewBox="0 0 332.766 171.2" xmlns="http://www.w3.org/2000/svg" version="1.1">
 <metadata>
  <rdf:RDF xmlns:dc="http://purl.org/dc/elements/1.1/" xmlns:cc="http://creativecommons.org/ns#" xmlns:rdf="http://www.w3.org/1999/02/22-rdf-syntax-ns#">
   <cc:Work>
    <dc:type rdf:resource="http://purl.org/dc/dcmitype/StillImage"/>
    <dc:date>2026-01-05T14:22:15.679252</dc:date>
    <dc:format>image/svg+xml</dc:format>
    <dc:creator>
     <cc:Agent>
      <dc:title>Matplotlib v3.10.8, https://matplotlib.org/</dc:title>
     </cc:Agent>
    </dc:creator>
   </cc:Work>
  </rdf:RDF>
 </metadata>
 <defs>
  <style type="text/css">*{stroke-linejoin: round; stroke-linecap: butt}</style>
 </defs>
 <g id="figure_1">
  <g id="patch_1">
   <path d="M 0 171.2 
L 332.766 171.2 
L 332.766 0 
L 0 0 
L 0 171.2 
z
" style="fill: none"/>
  </g>
  <g id="axes_1">
   <g id="patch_2">
    <path d="M 22.68 107.48 
C 27.453656 107.48 32.032438 105.583406 35.407922 102.207922 
C 38.783406 98.832438 40.68 94.253656 40.68 89.48 
C 40.68 84.706344 38.783406 80.127562 35.407922 76.752078 
C 32.032438 73.376594 27.453656 71.48 22.68 71.48 
C 17.906344 71.48 13.327562 73.376594 9.952078 76.752078 
C 6.576594 80.127562 4.68 84.706344 4.68 89.48 
C 4.68 94.253656 6.576594 98.832438 9.952078 102.207922 
C 13.327562 105.583406 17.906344 107.48 22.68 107.48 
L 22.68 107.48 
z
" clip-path="url(#p4e72ffa4db)" style="fill: none; stroke: #2563eb; stroke-width: 2; stroke-linejoin: miter"/>
   </g>
   <g id="line2d_1">
    <path d="M 40.68 35.48 
L 76.68 35.48 
M 85.32 31.88 
L 105.48 19.28 
M 112.68 35.48 
L 148.68 35.48 
" clip-path="url(#p4e72ffa4db)" style="fill: none; stroke: #000000; stroke-width: 2; stroke-linecap: round"/>
   </g>
   <g id="line2d_2">
    <path d="M 148.68 35.48 
L 157.68 35.48 
L 166.68 35.48 
" clip-path="url(#p4e72ffa4db)" style="fill: none; stroke: #000000; stroke-width: 2; stroke-linecap: round"/>
   </g>
   <g id="line2d_3">
    <path d="M 166.68 35.48 
L 202.68 35.48 
L 205.68 26.48 
L 211.68 44.48 
L 217.68 26.48 
L 223.68 44.48 
L 229.68 26.48 
L 235.68 44.48 
L 238.68 35.48 
L 274.68 35.48 
" clip-path="url(#p4e72ffa4db)" style="fill: none; stroke: #059669; stroke-width: 2; stroke-linecap: round"/>
   </g>
   <g id="line2d_4">
    <path d="M 274.68 35.48 
L 283.68 35.48 
L 292.68 35.48 
" clip-path="url(#p4e72ffa4db)" style="fill: none; stroke: #000000; stroke-width: 2; stroke-linecap: round"/>
   </g>
   <g id="line2d_5">
    <path d="M 274.68 35.48 
L 274.68 86.24 
M 283.68 86.24 
L 265.68 86.24 
M 283.68 92.72 
L 265.68 92.72 
M 274.68 92.72 
L 274.68 143.48 
" clip-path="url(#p4e72ffa4db)" style="fill: none; stroke: #7c3aed; stroke-width: 2; stroke-linecap: round"/>
   </g>
   <g id="line2d_6">
    <path d="M 40.68 35.48 
L 31.68 35.48 
L 22.68 35.48 
" clip-path="url(#p4e72ffa4db)" style="fill: none; stroke: #000000; stroke-width: 2; stroke-linecap: round"/>
   </g>
   <g id="line2d_7">
    <path d="M 22.68 35.48 
L 22.68 71.48 
L 22.68 71.48 
M 22.68 107.48 
L 22.68 107.48 
L 22.68 143.48 
" clip-path="url(#p4e72ffa4db)" style="fill: none; stroke: #2563eb; stroke-width: 2; stroke-linecap: round"/>
   </g>
   <g id="line2d_8">
    <path d="M 19.08 80.48 
L 26.28 80.48 
" clip-path="url(#p4e72ffa4db)" style="fill: none; stroke: #2563eb; stroke-width: 2; stroke-linecap: round"/>
   </g>
   <g id="line2d_9">
    <path d="M 22.68 94.88 
L 22.68 102.08 
" clip-path="url(#p4e72ffa4db)" style="fill: none; stroke: #2563eb; stroke-width: 2; stroke-linecap: round"/>
   </g>
   <g id="line2d_10">
    <path d="M 19.08 98.48 
L 26.28 98.48 
" clip-path="url(#p4e72ffa4db)" style="fill: none; stroke: #2563eb; stroke-width: 2; stroke-linecap: round"/>
   </g>
   <g id="line2d_11">
    <path d="M 22.68 143.48 
L 148.68 143.48 
L 274.68 143.48 
" clip-path="url(#p4e72ffa4db)" style="fill: none; stroke: #000000; stroke-width: 2; stroke-linecap: round"/>
   </g>
   <g id="line2d_12">
    <path d="M 274.68 143.48 
L 283.68 143.48 
L 292.68 143.48 
" clip-path="url(#p4e72ffa4db)" style="fill: none; stroke: #000000; stroke-width: 2; stroke-linecap: round"/>
   </g>
   <g id="line2d_13">
    <path d="M 22.68 143.48 
L 22.68 157.88 
L 13.68 157.88 
L 31.68 157.88 
M 16.38 162.2 
L 28.98 162.2 
M 20.88 166.52 
L 24.48 166.52 
" clip-path="url(#p4e72ffa4db)" style="fill: none; stroke: #000000; stroke-width: 2; stroke-linecap: round"/>
   </g>
   <g id="patch_3">
    <path d="M 81 39.8 
C 82.145677 39.8 83.244585 39.344818 84.054701 38.534701 
C 84.864818 37.724585 85.32 36.625677 85.32 35.48 
C 85.32 34.334323 84.864818 33.235415 84.054701 32.425299 
C 83.244585 31.615182 82.145677 31.16 81 31.16 
C 79.854323 31.16 78.755415 31.615182 77.945299 32.425299 
C 77.135182 33.235415 76.68 34.334323 76.68 35.48 
C 76.68 36.625677 77.135182 37.724585 77.945299 38.534701 
C 78.755415 39.344818 79.854323 39.8 81 39.8 
z
" clip-path="url(#p4e72ffa4db)" style="fill: #ffffff; stroke: #000000; stroke-width: 2; stroke-linejoin: miter"/>
   </g>
   <g id="patch_4">
    <path d="M 108.36 39.8 
C 109.505677 39.8 110.604585 39.344818 111.414701 38.534701 
C 112.224818 37.724585 112.68 36.625677 112.68 35.48 
C 112.68 34.334323 112.224818 33.235415 111.414701 32.425299 
C 110.604585 31.615182 109.505677 31.16 108.36 31.16 
C 107.214323 31.16 106.115415 31.615182 105.305299 32.425299 
C 104.495182 33.235415 104.04 34.334323 104.04 35.48 
C 104.04 36.625677 104.495182 37.724585 105.305299 38.534701 
C 106.115415 39.344818 107.214323 39.8 108.36 39.8 
z
" clip-path="url(#p4e72ffa4db)" style="fill: #ffffff; stroke: #000000; stroke-width: 2; stroke-linejoin: miter"/>
   </g>
   <g id="text_1">
    <!-- $t=0$ -->
    <g transform="translate(82.25 13.392344) scale(0.11 -0.11)">
     <defs>
      <path id="DejaVuSans-Oblique-74" d="M 2706 3500 
L 2619 3053 
L 1472 3053 
L 1100 1153 
Q 1081 1047 1072 975 
Q 1063 903 1063 863 
Q 1063 663 1183 572 
Q 1303 481 1569 481 
L 2150 481 
L 2053 0 
L 1503 0 
Q 991 0 739 200 
Q 488 400 488 806 
Q 488 878 497 964 
Q 506 1050 525 1153 
L 897 3053 
L 409 3053 
L 500 3500 
L 978 3500 
L 1172 4494 
L 1747 4494 
L 1556 3500 
L 2706 3500 
z
" transform="scale(0.015625)"/>
      <path id="DejaVuSans-3d" d="M 678 2906 
L 4684 2906 
L 4684 2381 
L 678 2381 
L 678 2906 
z
M 678 1631 
L 4684 1631 
L 4684 1100 
L 678 1100 
L 678 1631 
z
" transform="scale(0.015625)"/>
      <path id="DejaVuSans-30" d="M 2034 4250 
Q 1547 4250 1301 3770 
Q 1056 3291 1056 2328 
Q 1056 1369 1301 889 
Q 1547 409 2034 409 
Q 2525 409 2770 889 
Q 3016 1369 3016 2328 
Q 3016 3291 2770 3770 
Q 2525 4250 2034 4250 
z
M 2034 4750 
Q 2819 4750 3233 4129 
Q 3647 3509 3647 2328 
Q 3647 1150 3233 529 
Q 2819 -91 2034 -91 
Q 1250 -91 836 529 
Q 422 1150 422 2328 
Q 422 3509 836 4129 
Q 1250 4750 2034 4750 
z
" transform="scale(0.015625)"/>
     </defs>
     <use xlink:href="#DejaVuSans-Oblique-74" transform="translate(0 0.78125)"/>
     <use xlink:href="#DejaVuSans-3d" transform="translate(58.691406 0.78125)"/>
     <use xlink:href="#DejaVuSans-30" transform="translate(161.962891 0.78125)"/>
    </g>
   </g>
   <g id="text_2">
    <!-- $R$ -->
    <g style="fill: #059669" transform="translate(216.83 20.592344) scale(0.11 -0.11)">
     <defs>
      <path id="DejaVuSans-Oblique-52" d="M 1613 4147 
L 1294 2491 
L 2106 2491 
Q 2584 2491 2879 2755 
Q 3175 3019 3175 3444 
Q 3175 3784 2976 3965 
Q 2778 4147 2406 4147 
L 1613 4147 
z
M 2772 2241 
Q 2972 2194 3105 2009 
Q 3238 1825 3413 1275 
L 3809 0 
L 3144 0 
L 2778 1197 
Q 2638 1659 2453 1815 
Q 2269 1972 1888 1972 
L 1191 1972 
L 806 0 
L 172 0 
L 1081 4666 
L 2503 4666 
Q 3150 4666 3495 4373 
Q 3841 4081 3841 3531 
Q 3841 3044 3547 2687 
Q 3253 2331 2772 2241 
z
" transform="scale(0.015625)"/>
     </defs>
     <use xlink:href="#DejaVuSans-Oblique-52" transform="translate(0 0.09375)"/>
    </g>
   </g>
   <g id="text_3">
    <!-- $C$ -->
    <g style="fill: #7c3aed" transform="translate(270.83 29.592344) scale(0.11 -0.11)">
     <defs>
      <path id="DejaVuSans-Oblique-43" d="M 4447 4306 
L 4319 3641 
Q 4019 3944 3683 4091 
Q 3347 4238 2956 4238 
Q 2422 4238 2017 3981 
Q 1613 3725 1319 3200 
Q 1131 2863 1032 2486 
Q 934 2109 934 1728 
Q 934 1091 1264 756 
Q 1594 422 2222 422 
Q 2656 422 3056 561 
Q 3456 700 3834 978 
L 3688 231 
Q 3316 72 2936 -9 
Q 2556 -91 2175 -91 
Q 1278 -91 773 396 
Q 269 884 269 1753 
Q 269 2309 461 2846 
Q 653 3384 1013 3828 
Q 1394 4300 1883 4525 
Q 2372 4750 3022 4750 
Q 3422 4750 3780 4639 
Q 4138 4528 4447 4306 
z
" transform="scale(0.015625)"/>
     </defs>
     <use xlink:href="#DejaVuSans-Oblique-43" transform="translate(0 0.78125)"/>
    </g>
   </g>
   <g id="text_4">
    <!-- $V_s$ -->
    <g style="fill: #2563eb" transform="translate(16.74 155.438281) scale(0.11 -0.11)">
     <defs>
      <path id="DejaVuSans-Oblique-56" d="M 1319 0 
L 500 4666 
L 1119 4666 
L 1797 653 
L 4063 4666 
L 4750 4666 
L 2053 0 
L 1319 0 
z
" transform="scale(0.015625)"/>
      <path id="DejaVuSans-Oblique-73" d="M 3200 3397 
L 3091 2853 
Q 2863 2978 2609 3040 
Q 2356 3103 2088 3103 
Q 1634 3103 1373 2948 
Q 1113 2794 1113 2528 
Q 1113 2219 1719 2053 
Q 1766 2041 1788 2034 
L 1972 1978 
Q 2547 1819 2739 1644 
Q 2931 1469 2931 1166 
Q 2931 609 2489 259 
Q 2047 -91 1331 -91 
Q 1053 -91 747 -37 
Q 441 16 72 128 
L 184 722 
Q 500 559 806 475 
Q 1113 391 1394 391 
Q 1816 391 2080 572 
Q 2344 753 2344 1031 
Q 2344 1331 1650 1516 
L 1591 1531 
L 1394 1581 
Q 956 1697 753 1886 
Q 550 2075 550 2369 
Q 550 2928 970 3256 
Q 1391 3584 2113 3584 
Q 2397 3584 2667 3537 
Q 2938 3491 3200 3397 
z
" transform="scale(0.015625)"/>
     </defs>
     <use xlink:href="#DejaVuSans-Oblique-56" transform="translate(0 0.09375)"/>
     <use xlink:href="#DejaVuSans-Oblique-73" transform="translate(68.408203 -16.3125) scale(0.7)"/>
    </g>
   </g>
   <g id="text_5">
    <!-- Carga: $v_C(t) = V_s(1 - e^{-t/\tau})$ -->
    <g transform="translate(176.98 35.33) scale(0.1 -0.1)">
     <defs>
      <path id="DejaVuSans-43" d="M 4122 4306 
L 4122 3641 
Q 3803 3938 3442 4084 
Q 3081 4231 2675 4231 
Q 1875 4231 1450 3742 
Q 1025 3253 1025 2328 
Q 1025 1406 1450 917 
Q 1875 428 2675 428 
Q 3081 428 3442 575 
Q 3803 722 4122 1019 
L 4122 359 
Q 3791 134 3420 21 
Q 3050 -91 2638 -91 
Q 1578 -91 968 557 
Q 359 1206 359 2328 
Q 359 3453 968 4101 
Q 1578 4750 2638 4750 
Q 3056 4750 3426 4639 
Q 3797 4528 4122 4306 
z
" transform="scale(0.015625)"/>
      <path id="DejaVuSans-61" d="M 2194 1759 
Q 1497 1759 1228 1600 
Q 959 1441 959 1056 
Q 959 750 1161 570 
Q 1363 391 1709 391 
Q 2188 391 2477 730 
Q 2766 1069 2766 1631 
L 2766 1759 
L 2194 1759 
z
M 3341 1997 
L 3341 0 
L 2766 0 
L 2766 531 
Q 2569 213 2275 61 
Q 1981 -91 1556 -91 
Q 1019 -91 701 211 
Q 384 513 384 1019 
Q 384 1609 779 1909 
Q 1175 2209 1959 2209 
L 2766 2209 
L 2766 2266 
Q 2766 2663 2505 2880 
Q 2244 3097 1772 3097 
Q 1472 3097 1187 3025 
Q 903 2953 641 2809 
L 641 3341 
Q 956 3463 1253 3523 
Q 1550 3584 1831 3584 
Q 2591 3584 2966 3190 
Q 3341 2797 3341 1997 
z
" transform="scale(0.015625)"/>
      <path id="DejaVuSans-72" d="M 2631 2963 
Q 2534 3019 2420 3045 
Q 2306 3072 2169 3072 
Q 1681 3072 1420 2755 
Q 1159 2438 1159 1844 
L 1159 0 
L 581 0 
L 581 3500 
L 1159 3500 
L 1159 2956 
Q 1341 3275 1631 3429 
Q 1922 3584 2338 3584 
Q 2397 3584 2469 3576 
Q 2541 3569 2628 3553 
L 2631 2963 
z
" transform="scale(0.015625)"/>
      <path id="DejaVuSans-67" d="M 2906 1791 
Q 2906 2416 2648 2759 
Q 2391 3103 1925 3103 
Q 1463 3103 1205 2759 
Q 947 2416 947 1791 
Q 947 1169 1205 825 
Q 1463 481 1925 481 
Q 2391 481 2648 825 
Q 2906 1169 2906 1791 
z
M 3481 434 
Q 3481 -459 3084 -895 
Q 2688 -1331 1869 -1331 
Q 1566 -1331 1297 -1286 
Q 1028 -1241 775 -1147 
L 775 -588 
Q 1028 -725 1275 -790 
Q 1522 -856 1778 -856 
Q 2344 -856 2625 -561 
Q 2906 -266 2906 331 
L 2906 616 
Q 2728 306 2450 153 
Q 2172 0 1784 0 
Q 1141 0 747 490 
Q 353 981 353 1791 
Q 353 2603 747 3093 
Q 1141 3584 1784 3584 
Q 2172 3584 2450 3431 
Q 2728 3278 2906 2969 
L 2906 3500 
L 3481 3500 
L 3481 434 
z
" transform="scale(0.015625)"/>
      <path id="DejaVuSans-3a" d="M 750 794 
L 1409 794 
L 1409 0 
L 750 0 
L 750 794 
z
M 750 3309 
L 1409 3309 
L 1409 2516 
L 750 2516 
L 750 3309 
z
" transform="scale(0.015625)"/>
      <path id="DejaVuSans-20" transform="scale(0.015625)"/>
      <path id="DejaVuSans-Oblique-76" d="M 459 3500 
L 1069 3500 
L 1581 525 
L 3256 3500 
L 3866 3500 
L 1875 0 
L 1100 0 
L 459 3500 
z
" transform="scale(0.015625)"/>
      <path id="DejaVuSans-28" d="M 1984 4856 
Q 1566 4138 1362 3434 
Q 1159 2731 1159 2009 
Q 1159 1288 1364 580 
Q 1569 -128 1984 -844 
L 1484 -844 
Q 1016 -109 783 600 
Q 550 1309 550 2009 
Q 550 2706 781 3412 
Q 1013 4119 1484 4856 
L 1984 4856 
z
" transform="scale(0.015625)"/>
      <path id="DejaVuSans-29" d="M 513 4856 
L 1013 4856 
Q 1481 4119 1714 3412 
Q 1947 2706 1947 2009 
Q 1947 1309 1714 600 
Q 1481 -109 1013 -844 
L 513 -844 
Q 928 -128 1133 580 
Q 1338 1288 1338 2009 
Q 1338 2731 1133 3434 
Q 928 4138 513 4856 
z
" transform="scale(0.015625)"/>
      <path id="DejaVuSans-31" d="M 794 531 
L 1825 531 
L 1825 4091 
L 703 3866 
L 703 4441 
L 1819 4666 
L 2450 4666 
L 2450 531 
L 3481 531 
L 3481 0 
L 794 0 
L 794 531 
z
" transform="scale(0.015625)"/>
      <path id="DejaVuSans-2212" d="M 678 2272 
L 4684 2272 
L 4684 1741 
L 678 1741 
L 678 2272 
z
" transform="scale(0.015625)"/>
      <path id="DejaVuSans-Oblique-65" d="M 3078 2063 
Q 3088 2113 3092 2166 
Q 3097 2219 3097 2272 
Q 3097 2653 2873 2875 
Q 2650 3097 2266 3097 
Q 1838 3097 1509 2826 
Q 1181 2556 1013 2059 
L 3078 2063 
z
M 3578 1613 
L 903 1613 
Q 884 1494 878 1425 
Q 872 1356 872 1306 
Q 872 872 1139 634 
Q 1406 397 1894 397 
Q 2269 397 2603 481 
Q 2938 566 3225 728 
L 3116 159 
Q 2806 34 2476 -28 
Q 2147 -91 1806 -91 
Q 1078 -91 686 257 
Q 294 606 294 1247 
Q 294 1794 489 2264 
Q 684 2734 1063 3103 
Q 1306 3334 1642 3459 
Q 1978 3584 2356 3584 
Q 2950 3584 3301 3228 
Q 3653 2872 3653 2272 
Q 3653 2128 3634 1964 
Q 3616 1800 3578 1613 
z
" transform="scale(0.015625)"/>
      <path id="DejaVuSans-2f" d="M 1625 4666 
L 2156 4666 
L 531 -594 
L 0 -594 
L 1625 4666 
z
" transform="scale(0.015625)"/>
      <path id="DejaVuSans-Oblique-3c4" d="M 2103 638 
Q 2188 488 2525 488 
L 2800 488 
L 2706 0 
L 2363 0 
Q 1800 0 1600 300 
Q 1403 606 1534 1269 
L 1856 2925 
L 541 2925 
L 653 3500 
L 3881 3500 
L 3769 2925 
L 2444 2925 
L 2113 1234 
Q 2025 781 2103 638 
z
" transform="scale(0.015625)"/>
     </defs>
     <use xlink:href="#DejaVuSans-43" transform="translate(0 0.684375)"/>
     <use xlink:href="#DejaVuSans-61" transform="translate(69.824219 0.684375)"/>
     <use xlink:href="#DejaVuSans-72" transform="translate(131.103516 0.684375)"/>
     <use xlink:href="#DejaVuSans-67" transform="translate(172.216797 0.684375)"/>
     <use xlink:href="#DejaVuSans-61" transform="translate(235.693359 0.684375)"/>
     <use xlink:href="#DejaVuSans-3a" transform="translate(296.972656 0.684375)"/>
     <use xlink:href="#DejaVuSans-20" transform="translate(330.664062 0.684375)"/>
     <use xlink:href="#DejaVuSans-Oblique-76" transform="translate(362.451172 0.684375)"/>
     <use xlink:href="#DejaVuSans-Oblique-43" transform="translate(421.630859 -15.721875) scale(0.7)"/>
     <use xlink:href="#DejaVuSans-28" transform="translate(473.242188 0.684375)"/>
     <use xlink:href="#DejaVuSans-Oblique-74" transform="translate(512.255859 0.684375)"/>
     <use xlink:href="#DejaVuSans-29" transform="translate(551.464844 0.684375)"/>
     <use xlink:href="#DejaVuSans-3d" transform="translate(609.960938 0.684375)"/>
     <use xlink:href="#DejaVuSans-Oblique-56" transform="translate(713.232422 0.684375)"/>
     <use xlink:href="#DejaVuSans-Oblique-73" transform="translate(781.640625 -15.721875) scale(0.7)"/>
     <use xlink:href="#DejaVuSans-28" transform="translate(820.844727 0.684375)"/>
     <use xlink:href="#DejaVuSans-31" transform="translate(859.858398 0.684375)"/>
     <use xlink:href="#DejaVuSans-2212" transform="translate(942.963867 0.684375)"/>
     <use xlink:href="#DejaVuSans-Oblique-65" transform="translate(1046.235352 0.684375)"/>
     <use xlink:href="#DejaVuSans-2212" transform="translate(1112.408685 38.965625) scale(0.7)"/>
     <use xlink:href="#DejaVuSans-Oblique-74" transform="translate(1171.061029 38.965625) scale(0.7)"/>
     <use xlink:href="#DejaVuSans-2f" transform="translate(1198.507318 38.965625) scale(0.7)"/>
     <use xlink:href="#DejaVuSans-Oblique-3c4" transform="translate(1222.091302 38.965625) scale(0.7)"/>
     <use xlink:href="#DejaVuSans-29" transform="translate(1266.969232 0.684375)"/>
    </g>
   </g>
   <g id="text_6">
    <!-- Descarga: $v_C(t) = V_0 e^{-t/\tau}$ -->
    <g transform="translate(180.98 64.13) scale(0.1 -0.1)">
     <defs>
      <path id="DejaVuSans-44" d="M 1259 4147 
L 1259 519 
L 2022 519 
Q 2988 519 3436 956 
Q 3884 1394 3884 2338 
Q 3884 3275 3436 3711 
Q 2988 4147 2022 4147 
L 1259 4147 
z
M 628 4666 
L 1925 4666 
Q 3281 4666 3915 4102 
Q 4550 3538 4550 2338 
Q 4550 1131 3912 565 
Q 3275 0 1925 0 
L 628 0 
L 628 4666 
z
" transform="scale(0.015625)"/>
      <path id="DejaVuSans-65" d="M 3597 1894 
L 3597 1613 
L 953 1613 
Q 991 1019 1311 708 
Q 1631 397 2203 397 
Q 2534 397 2845 478 
Q 3156 559 3463 722 
L 3463 178 
Q 3153 47 2828 -22 
Q 2503 -91 2169 -91 
Q 1331 -91 842 396 
Q 353 884 353 1716 
Q 353 2575 817 3079 
Q 1281 3584 2069 3584 
Q 2775 3584 3186 3129 
Q 3597 2675 3597 1894 
z
M 3022 2063 
Q 3016 2534 2758 2815 
Q 2500 3097 2075 3097 
Q 1594 3097 1305 2825 
Q 1016 2553 972 2059 
L 3022 2063 
z
" transform="scale(0.015625)"/>
      <path id="DejaVuSans-73" d="M 2834 3397 
L 2834 2853 
Q 2591 2978 2328 3040 
Q 2066 3103 1784 3103 
Q 1356 3103 1142 2972 
Q 928 2841 928 2578 
Q 928 2378 1081 2264 
Q 1234 2150 1697 2047 
L 1894 2003 
Q 2506 1872 2764 1633 
Q 3022 1394 3022 966 
Q 3022 478 2636 193 
Q 2250 -91 1575 -91 
Q 1294 -91 989 -36 
Q 684 19 347 128 
L 347 722 
Q 666 556 975 473 
Q 1284 391 1588 391 
Q 1994 391 2212 530 
Q 2431 669 2431 922 
Q 2431 1156 2273 1281 
Q 2116 1406 1581 1522 
L 1381 1569 
Q 847 1681 609 1914 
Q 372 2147 372 2553 
Q 372 3047 722 3315 
Q 1072 3584 1716 3584 
Q 2034 3584 2315 3537 
Q 2597 3491 2834 3397 
z
" transform="scale(0.015625)"/>
      <path id="DejaVuSans-63" d="M 3122 3366 
L 3122 2828 
Q 2878 2963 2633 3030 
Q 2388 3097 2138 3097 
Q 1578 3097 1268 2742 
Q 959 2388 959 1747 
Q 959 1106 1268 751 
Q 1578 397 2138 397 
Q 2388 397 2633 464 
Q 2878 531 3122 666 
L 3122 134 
Q 2881 22 2623 -34 
Q 2366 -91 2075 -91 
Q 1284 -91 818 406 
Q 353 903 353 1747 
Q 353 2603 823 3093 
Q 1294 3584 2113 3584 
Q 2378 3584 2631 3529 
Q 2884 3475 3122 3366 
z
" transform="scale(0.015625)"/>
     </defs>
     <use xlink:href="#DejaVuSans-44" transform="translate(0 0.684375)"/>
     <use xlink:href="#DejaVuSans-65" transform="translate(77.001953 0.684375)"/>
     <use xlink:href="#DejaVuSans-73" transform="translate(138.525391 0.684375)"/>
     <use xlink:href="#DejaVuSans-63" transform="translate(190.625 0.684375)"/>
     <use xlink:href="#DejaVuSans-61" transform="translate(245.605469 0.684375)"/>
     <use xlink:href="#DejaVuSans-72" transform="translate(306.884766 0.684375)"/>
     <use xlink:href="#DejaVuSans-67" transform="translate(347.998047 0.684375)"/>
     <use xlink:href="#DejaVuSans-61" transform="translate(411.474609 0.684375)"/>
     <use xlink:href="#DejaVuSans-3a" transform="translate(472.753906 0.684375)"/>
     <use xlink:href="#DejaVuSans-20" transform="translate(506.445312 0.684375)"/>
     <use xlink:href="#DejaVuSans-Oblique-76" transform="translate(538.232422 0.684375)"/>
     <use xlink:href="#DejaVuSans-Oblique-43" transform="translate(597.412109 -15.721875) scale(0.7)"/>
     <use xlink:href="#DejaVuSans-28" transform="translate(649.023438 0.684375)"/>
     <use xlink:href="#DejaVuSans-Oblique-74" transform="translate(688.037109 0.684375)"/>
     <use xlink:href="#DejaVuSans-29" transform="translate(727.246094 0.684375)"/>
     <use xlink:href="#DejaVuSans-3d" transform="translate(785.742188 0.684375)"/>
     <use xlink:href="#DejaVuSans-Oblique-56" transform="translate(889.013672 0.684375)"/>
     <use xlink:href="#DejaVuSans-30" transform="translate(957.421875 -15.721875) scale(0.7)"/>
     <use xlink:href="#DejaVuSans-Oblique-65" transform="translate(1004.692383 0.684375)"/>
     <use xlink:href="#DejaVuSans-2212" transform="translate(1070.865716 38.965625) scale(0.7)"/>
     <use xlink:href="#DejaVuSans-Oblique-74" transform="translate(1129.51806 38.965625) scale(0.7)"/>
     <use xlink:href="#DejaVuSans-2f" transform="translate(1156.964349 38.965625) scale(0.7)"/>
     <use xlink:href="#DejaVuSans-Oblique-3c4" transform="translate(1180.548333 38.965625) scale(0.7)"/>
    </g>
   </g>
   <g id="text_7">
    <!-- $\tau = RC$ (constante de tiempo) -->
    <g transform="translate(168.88 99.43) scale(0.1 -0.1)">
     <defs>
      <path id="DejaVuSans-6f" d="M 1959 3097 
Q 1497 3097 1228 2736 
Q 959 2375 959 1747 
Q 959 1119 1226 758 
Q 1494 397 1959 397 
Q 2419 397 2687 759 
Q 2956 1122 2956 1747 
Q 2956 2369 2687 2733 
Q 2419 3097 1959 3097 
z
M 1959 3584 
Q 2709 3584 3137 3096 
Q 3566 2609 3566 1747 
Q 3566 888 3137 398 
Q 2709 -91 1959 -91 
Q 1206 -91 779 398 
Q 353 888 353 1747 
Q 353 2609 779 3096 
Q 1206 3584 1959 3584 
z
" transform="scale(0.015625)"/>
      <path id="DejaVuSans-6e" d="M 3513 2113 
L 3513 0 
L 2938 0 
L 2938 2094 
Q 2938 2591 2744 2837 
Q 2550 3084 2163 3084 
Q 1697 3084 1428 2787 
Q 1159 2491 1159 1978 
L 1159 0 
L 581 0 
L 581 3500 
L 1159 3500 
L 1159 2956 
Q 1366 3272 1645 3428 
Q 1925 3584 2291 3584 
Q 2894 3584 3203 3211 
Q 3513 2838 3513 2113 
z
" transform="scale(0.015625)"/>
      <path id="DejaVuSans-74" d="M 1172 4494 
L 1172 3500 
L 2356 3500 
L 2356 3053 
L 1172 3053 
L 1172 1153 
Q 1172 725 1289 603 
Q 1406 481 1766 481 
L 2356 481 
L 2356 0 
L 1766 0 
Q 1100 0 847 248 
Q 594 497 594 1153 
L 594 3053 
L 172 3053 
L 172 3500 
L 594 3500 
L 594 4494 
L 1172 4494 
z
" transform="scale(0.015625)"/>
      <path id="DejaVuSans-64" d="M 2906 2969 
L 2906 4863 
L 3481 4863 
L 3481 0 
L 2906 0 
L 2906 525 
Q 2725 213 2448 61 
Q 2172 -91 1784 -91 
Q 1150 -91 751 415 
Q 353 922 353 1747 
Q 353 2572 751 3078 
Q 1150 3584 1784 3584 
Q 2172 3584 2448 3432 
Q 2725 3281 2906 2969 
z
M 947 1747 
Q 947 1113 1208 752 
Q 1469 391 1925 391 
Q 2381 391 2643 752 
Q 2906 1113 2906 1747 
Q 2906 2381 2643 2742 
Q 2381 3103 1925 3103 
Q 1469 3103 1208 2742 
Q 947 2381 947 1747 
z
" transform="scale(0.015625)"/>
      <path id="DejaVuSans-69" d="M 603 3500 
L 1178 3500 
L 1178 0 
L 603 0 
L 603 3500 
z
M 603 4863 
L 1178 4863 
L 1178 4134 
L 603 4134 
L 603 4863 
z
" transform="scale(0.015625)"/>
      <path id="DejaVuSans-6d" d="M 3328 2828 
Q 3544 3216 3844 3400 
Q 4144 3584 4550 3584 
Q 5097 3584 5394 3201 
Q 5691 2819 5691 2113 
L 5691 0 
L 5113 0 
L 5113 2094 
Q 5113 2597 4934 2840 
Q 4756 3084 4391 3084 
Q 3944 3084 3684 2787 
Q 3425 2491 3425 1978 
L 3425 0 
L 2847 0 
L 2847 2094 
Q 2847 2600 2669 2842 
Q 2491 3084 2119 3084 
Q 1678 3084 1418 2786 
Q 1159 2488 1159 1978 
L 1159 0 
L 581 0 
L 581 3500 
L 1159 3500 
L 1159 2956 
Q 1356 3278 1631 3431 
Q 1906 3584 2284 3584 
Q 2666 3584 2933 3390 
Q 3200 3197 3328 2828 
z
" transform="scale(0.015625)"/>
      <path id="DejaVuSans-70" d="M 1159 525 
L 1159 -1331 
L 581 -1331 
L 581 3500 
L 1159 3500 
L 1159 2969 
Q 1341 3281 1617 3432 
Q 1894 3584 2278 3584 
Q 2916 3584 3314 3078 
Q 3713 2572 3713 1747 
Q 3713 922 3314 415 
Q 2916 -91 2278 -91 
Q 1894 -91 1617 61 
Q 1341 213 1159 525 
z
M 3116 1747 
Q 3116 2381 2855 2742 
Q 2594 3103 2138 3103 
Q 1681 3103 1420 2742 
Q 1159 2381 1159 1747 
Q 1159 1113 1420 752 
Q 1681 391 2138 391 
Q 2594 391 2855 752 
Q 3116 1113 3116 1747 
z
" transform="scale(0.015625)"/>
     </defs>
     <use xlink:href="#DejaVuSans-Oblique-3c4" transform="translate(0 0.015625)"/>
     <use xlink:href="#DejaVuSans-3d" transform="translate(79.6875 0.015625)"/>
     <use xlink:href="#DejaVuSans-Oblique-52" transform="translate(182.958984 0.015625)"/>
     <use xlink:href="#DejaVuSans-Oblique-43" transform="translate(252.441406 0.015625)"/>
     <use xlink:href="#DejaVuSans-20" transform="translate(322.265625 0.015625)"/>
     <use xlink:href="#DejaVuSans-28" transform="translate(354.052734 0.015625)"/>
     <use xlink:href="#DejaVuSans-63" transform="translate(393.066406 0.015625)"/>
     <use xlink:href="#DejaVuSans-6f" transform="translate(448.046875 0.015625)"/>
     <use xlink:href="#DejaVuSans-6e" transform="translate(509.228516 0.015625)"/>
     <use xlink:href="#DejaVuSans-73" transform="translate(572.607422 0.015625)"/>
     <use xlink:href="#DejaVuSans-74" transform="translate(624.707031 0.015625)"/>
     <use xlink:href="#DejaVuSans-61" transform="translate(663.916016 0.015625)"/>
     <use xlink:href="#DejaVuSans-6e" transform="translate(725.195312 0.015625)"/>
     <use xlink:href="#DejaVuSans-74" transform="translate(788.574219 0.015625)"/>
     <use xlink:href="#DejaVuSans-65" transform="translate(827.783203 0.015625)"/>
     <use xlink:href="#DejaVuSans-20" transform="translate(889.306641 0.015625)"/>
     <use xlink:href="#DejaVuSans-64" transform="translate(921.09375 0.015625)"/>
     <use xlink:href="#DejaVuSans-65" transform="translate(984.570312 0.015625)"/>
     <use xlink:href="#DejaVuSans-20" transform="translate(1046.09375 0.015625)"/>
     <use xlink:href="#DejaVuSans-74" transform="translate(1077.880859 0.015625)"/>
     <use xlink:href="#DejaVuSans-69" transform="translate(1117.089844 0.015625)"/>
     <use xlink:href="#DejaVuSans-65" transform="translate(1144.873047 0.015625)"/>
     <use xlink:href="#DejaVuSans-6d" transform="translate(1206.396484 0.015625)"/>
     <use xlink:href="#DejaVuSans-70" transform="translate(1303.808594 0.015625)"/>
     <use xlink:href="#DejaVuSans-6f" transform="translate(1367.285156 0.015625)"/>
     <use xlink:href="#DejaVuSans-29" transform="translate(1428.466797 0.015625)"/>
    </g>
   </g>
   <g id="patch_5">
    <path d="M 274.68 38.18 
C 275.396048 38.18 276.082866 37.895511 276.589188 37.389188 
C 277.095511 36.882866 277.38 36.196048 277.38 35.48 
C 277.38 34.763952 277.095511 34.077134 276.589188 33.570812 
C 276.082866 33.064489 275.396048 32.78 274.68 32.78 
C 273.963952 32.78 273.277134 33.064489 272.770812 33.570812 
C 272.264489 34.077134 271.98 34.763952 271.98 35.48 
C 271.98 36.196048 272.264489 36.882866 272.770812 37.389188 
C 273.277134 37.895511 273.963952 38.18 274.68 38.18 
z
" clip-path="url(#p4e72ffa4db)" style="stroke: #000000; stroke-width: 2; stroke-linejoin: miter"/>
   </g>
   <g id="patch_6">
    <path d="M 292.68 38.18 
C 293.396048 38.18 294.082866 37.895511 294.589188 37.389188 
C 295.095511 36.882866 295.38 36.196048 295.38 35.48 
C 295.38 34.763952 295.095511 34.077134 294.589188 33.570812 
C 294.082866 33.064489 293.396048 32.78 292.68 32.78 
C 291.963952 32.78 291.277134 33.064489 290.770812 33.570812 
C 290.264489 34.077134 289.98 34.763952 289.98 35.48 
C 289.98 36.196048 290.264489 36.882866 290.770812 37.389188 
C 291.277134 37.895511 291.963952 38.18 292.68 38.18 
z
" clip-path="url(#p4e72ffa4db)" style="fill: #ffffff; stroke: #000000; stroke-width: 2; stroke-linejoin: miter"/>
   </g>
   <g id="text_8">
    <!-- $v_C(t)$ -->
    <g transform="translate(298.98 38.515312) scale(0.11 -0.11)">
     <use xlink:href="#DejaVuSans-Oblique-76" transform="translate(0 0.125)"/>
     <use xlink:href="#DejaVuSans-Oblique-43" transform="translate(59.179688 -16.28125) scale(0.7)"/>
     <use xlink:href="#DejaVuSans-28" transform="translate(110.791016 0.125)"/>
     <use xlink:href="#DejaVuSans-Oblique-74" transform="translate(149.804688 0.125)"/>
     <use xlink:href="#DejaVuSans-29" transform="translate(189.013672 0.125)"/>
    </g>
   </g>
   <g id="patch_7">
    <path d="M 274.68 146.18 
C 275.396048 146.18 276.082866 145.895511 276.589188 145.389188 
C 277.095511 144.882866 277.38 144.196048 277.38 143.48 
C 277.38 142.763952 277.095511 142.077134 276.589188 141.570812 
C 276.082866 141.064489 275.396048 140.78 274.68 140.78 
C 273.963952 140.78 273.277134 141.064489 272.770812 141.570812 
C 272.264489 142.077134 271.98 142.763952 271.98 143.48 
C 271.98 144.196048 272.264489 144.882866 272.770812 145.389188 
C 273.277134 145.895511 273.963952 146.18 274.68 146.18 
z
" clip-path="url(#p4e72ffa4db)" style="stroke: #000000; stroke-width: 2; stroke-linejoin: miter"/>
   </g>
   <g id="patch_8">
    <path d="M 292.68 146.18 
C 293.396048 146.18 294.082866 145.895511 294.589188 145.389188 
C 295.095511 144.882866 295.38 144.196048 295.38 143.48 
C 295.38 142.763952 295.095511 142.077134 294.589188 141.570812 
C 294.082866 141.064489 293.396048 140.78 292.68 140.78 
C 291.963952 140.78 291.277134 141.064489 290.770812 141.570812 
C 290.264489 142.077134 289.98 142.763952 289.98 143.48 
C 289.98 144.196048 290.264489 144.882866 290.770812 145.389188 
C 291.277134 145.895511 291.963952 146.18 292.68 146.18 
z
" clip-path="url(#p4e72ffa4db)" style="fill: #ffffff; stroke: #000000; stroke-width: 2; stroke-linejoin: miter"/>
   </g>
  </g>
 </g>
 <defs>
  <clipPath id="p4e72ffa4db">
   <rect x="0" y="-0" width="332.766" height="171.2"/>
  </clipPath>
 </defs>
</svg>
