<?xml version="1.0" encoding="utf-8" standalone="no"?>
<!DOCTYPE svg PUBLIC "-//W3C//DTD SVG 1.1//EN"
  "http://www.w3.org/Graphics/SVG/1.1/DTD/svg11.dtd">
<svg xmlns:xlink="http://www.w3.org/1999/xlink" width="384.228pt" height="283.831972pt" viewBox="0 0 384.228 283.831972" xmlns="http://www.w3.org/2000/svg" version="1.1">
 <metadata>
  <rdf:RDF xmlns:dc="http://purl.org/dc/elements/1.1/" xmlns:cc="http://creativecommons.org/ns#" xmlns:rdf="http://www.w3.org/1999/02/22-rdf-syntax-ns#">
   <cc:Work>
    <dc:type rdf:resource="http://purl.org/dc/dcmitype/StillImage"/>
    <dc:date>2026-01-05T14:22:16.029248</dc:date>
    <dc:format>image/svg+xml</dc:format>
    <dc:creator>
     <cc:Agent>
      <dc:title>Matplotlib v3.10.8, https://matplotlib.org/</dc:title>
     </cc:Agent>
    </dc:creator>
   </cc:Work>
  </rdf:RDF>
 </metadata>
 <defs>
  <style type="text/css">*{stroke-linejoin: round; stroke-linecap: butt}</style>
 </defs>
 <g id="figure_1">
  <g id="patch_1">
   <path d="M 0 283.831972 
L 384.228 283.831972 
L 384.228 0 
L 0 0 
L 0 283.831972 
z
" style="fill: none"/>
  </g>
  <g id="axes_1">
   <g id="patch_2">
    <path d="M 37.548 104.951972 
C 42.321656 104.951972 46.900438 103.055378 50.275922 99.679894 
C 53.651406 96.30441 55.548 91.725628 55.548 86.951972 
C 55.548 82.178316 53.651406 77.599534 50.275922 74.22405 
C 46.900438 70.848566 42.321656 68.951972 37.548 68.951972 
C 32.774344 68.951972 28.195562 70.848566 24.820078 74.22405 
C 21.444594 77.599534 19.548 82.178316 19.548 86.951972 
C 19.548 91.725628 21.444594 96.30441 24.820078 99.679894 
C 28.195562 103.055378 32.774344 104.951972 37.548 104.951972 
L 37.548 104.951972 
z
" clip-path="url(#p18d56a8674)" style="fill: none; stroke: #2563eb; stroke-width: 2; stroke-linejoin: miter"/>
   </g>
   <g id="line2d_1">
    <path d="M 37.548 140.951972 
L 37.548 104.951972 
L 37.548 104.951972 
M 37.548 68.951972 
L 37.548 68.951972 
L 37.548 32.951972 
" clip-path="url(#p18d56a8674)" style="fill: none; stroke: #2563eb; stroke-width: 2; stroke-linecap: round"/>
   </g>
   <g id="line2d_2">
    <path d="M 46.548 86.951972 
L 45.798 85.088475 
L 45.048 83.351972 
L 44.298 81.860803 
L 43.548 80.716589 
L 42.798 79.997306 
L 42.048 79.751972 
L 41.298 79.997306 
L 40.548 80.716589 
L 39.798 81.860803 
L 39.048 83.351972 
L 38.298 85.088475 
L 37.548 86.951972 
L 36.798 88.815469 
L 36.048 90.551972 
L 35.298 92.043141 
L 34.548 93.187355 
L 33.798 93.906638 
L 33.048 94.151972 
L 32.298 93.906638 
L 31.548 93.187355 
L 30.798 92.043141 
L 30.048 90.551972 
L 29.298 88.815469 
L 28.548 86.951972 
" clip-path="url(#p18d56a8674)" style="fill: none; stroke: #2563eb; stroke-width: 2; stroke-linecap: round"/>
   </g>
   <g id="line2d_3">
    <path d="M 37.548 32.951972 
L 46.548 32.951972 
L 55.548 32.951972 
" clip-path="url(#p18d56a8674)" style="fill: none; stroke: #000000; stroke-width: 2; stroke-linecap: round"/>
   </g>
   <g id="line2d_4">
    <path d="M 55.548 32.951972 
L 91.548 32.951972 
L 94.548 23.951972 
L 100.548 41.951972 
L 106.548 23.951972 
L 112.548 41.951972 
L 118.548 23.951972 
L 124.548 41.951972 
L 127.548 32.951972 
L 163.548 32.951972 
" clip-path="url(#p18d56a8674)" style="fill: none; stroke: #059669; stroke-width: 2; stroke-linecap: round"/>
   </g>
   <g id="line2d_5">
    <path d="M 163.548 32.951972 
L 199.548 32.951972 
L 199.726789 29.851426 
L 200.270061 26.734241 
L 201.16303 23.885924 
L 201.727174 22.645757 
L 202.358881 21.567358 
L 203.048 20.675561 
L 203.783058 19.990905 
L 204.551521 19.529158 
L 205.340091 19.300955 
L 206.135001 19.31155 
L 206.922342 19.560701 
L 207.688378 20.042669 
L 208.419864 20.746354 
L 209.10435 21.655549 
L 209.73047 22.749316 
L 210.2882 24.002465 
L 210.769093 25.386134 
L 211.475576 28.415296 
L 211.820186 31.559356 
L 211.806333 34.530343 
L 211.470259 37.05614 
L 210.877719 38.905405 
L 210.512458 39.520516 
L 210.117959 39.90876 
L 209.707705 40.061193 
L 209.29554 39.974305 
L 208.895355 39.650098 
L 208.520763 39.096038 
L 208.184788 38.324886 
L 207.676059 36.206934 
L 207.450736 33.49023 
L 207.564432 30.423602 
L 208.041706 27.287927 
L 208.873818 24.370408 
L 209.411235 23.078436 
L 210.019526 21.938265 
L 210.689077 20.976155 
L 211.408866 20.214263 
L 212.166713 19.670136 
L 212.949561 19.356306 
L 213.743778 19.28 
L 214.535469 19.442976 
L 215.310798 19.84148 
L 216.056307 20.466334 
L 216.759222 21.303149 
L 217.407752 22.332651 
L 217.991359 23.53113 
L 218.500998 24.870985 
L 219.270885 27.848847 
L 219.681871 30.993489 
L 219.731287 34.016887 
L 219.449582 36.642124 
L 218.897529 38.628748 
L 218.546088 39.322934 
L 218.160667 39.794802 
L 217.754541 40.033485 
L 217.341459 40.033485 
L 216.935333 39.794802 
L 216.549912 39.322934 
L 216.198471 38.628748 
L 215.893499 37.728232 
L 215.467316 35.395438 
L 215.34537 32.538219 
L 215.573804 29.418272 
L 216.166671 26.321358 
L 217.104641 23.53113 
L 217.688248 22.332651 
L 218.336778 21.303149 
L 219.039693 20.466334 
L 219.785202 19.84148 
L 220.560531 19.442976 
L 221.352222 19.28 
L 222.146439 19.356306 
L 222.929287 19.670136 
L 223.687134 20.214263 
L 224.406923 20.976155 
L 225.076474 21.938265 
L 225.684765 23.078436 
L 226.222182 24.370408 
L 227.054294 27.287927 
L 227.531568 30.423602 
L 227.645264 33.49023 
L 227.419941 36.206934 
L 226.911212 38.324886 
L 226.575237 39.096038 
L 226.200645 39.650098 
L 225.80046 39.974305 
L 225.388295 40.061193 
L 224.978041 39.90876 
L 224.583542 39.520516 
L 224.218281 38.905405 
L 223.895067 38.077591 
L 223.420903 35.864577 
L 223.239453 33.084167 
L 223.40231 29.991025 
L 223.92953 26.868457 
L 224.8078 24.002465 
L 225.36553 22.749316 
L 225.99165 21.655549 
L 226.676136 20.746354 
L 227.407622 20.042669 
L 228.173658 19.560701 
L 228.960999 19.31155 
L 229.755909 19.300955 
L 230.544479 19.529158 
L 231.312942 19.990905 
L 232.048 20.675561 
L 232.737119 21.567358 
L 233.368826 22.645757 
L 233.93297 23.885924 
L 234.420955 25.259294 
L 235.142992 28.276793 
L 235.503781 31.421875 
L 235.548 32.951972 
L 271.548 32.951972 
L 271.548 32.951972 
" clip-path="url(#p18d56a8674)" style="fill: none; stroke: #0891b2; stroke-width: 2; stroke-linecap: round"/>
   </g>
   <g id="line2d_6">
    <path d="M 271.548 32.951972 
L 322.308 32.951972 
M 322.308 23.951972 
L 322.308 41.951972 
M 328.788 23.951972 
L 328.788 41.951972 
M 328.788 32.951972 
L 379.548 32.951972 
" clip-path="url(#p18d56a8674)" style="fill: none; stroke: #7c3aed; stroke-width: 2; stroke-linecap: round"/>
   </g>
   <g id="line2d_7">
    <path d="M 379.548 32.951972 
L 379.548 86.951972 
L 379.548 140.951972 
" clip-path="url(#p18d56a8674)" style="fill: none; stroke: #000000; stroke-width: 2; stroke-linecap: round"/>
   </g>
   <g id="line2d_8">
    <path d="M 379.548 140.951972 
L 208.548 140.951972 
L 37.548 140.951972 
" clip-path="url(#p18d56a8674)" style="fill: none; stroke: #000000; stroke-width: 2; stroke-linecap: round"/>
   </g>
   <g id="text_1">
    <!-- $V_s = V_m\angle\theta$ -->
    <g style="fill: #2563eb" transform="translate(8.893 152.910253) scale(0.11 -0.11)">
     <defs>
      <path id="DejaVuSans-Oblique-56" d="M 1319 0 
L 500 4666 
L 1119 4666 
L 1797 653 
L 4063 4666 
L 4750 4666 
L 2053 0 
L 1319 0 
z
" transform="scale(0.015625)"/>
      <path id="DejaVuSans-Oblique-73" d="M 3200 3397 
L 3091 2853 
Q 2863 2978 2609 3040 
Q 2356 3103 2088 3103 
Q 1634 3103 1373 2948 
Q 1113 2794 1113 2528 
Q 1113 2219 1719 2053 
Q 1766 2041 1788 2034 
L 1972 1978 
Q 2547 1819 2739 1644 
Q 2931 1469 2931 1166 
Q 2931 609 2489 259 
Q 2047 -91 1331 -91 
Q 1053 -91 747 -37 
Q 441 16 72 128 
L 184 722 
Q 500 559 806 475 
Q 1113 391 1394 391 
Q 1816 391 2080 572 
Q 2344 753 2344 1031 
Q 2344 1331 1650 1516 
L 1591 1531 
L 1394 1581 
Q 956 1697 753 1886 
Q 550 2075 550 2369 
Q 550 2928 970 3256 
Q 1391 3584 2113 3584 
Q 2397 3584 2667 3537 
Q 2938 3491 3200 3397 
z
" transform="scale(0.015625)"/>
      <path id="DejaVuSans-3d" d="M 678 2906 
L 4684 2906 
L 4684 2381 
L 678 2381 
L 678 2906 
z
M 678 1631 
L 4684 1631 
L 4684 1100 
L 678 1100 
L 678 1631 
z
" transform="scale(0.015625)"/>
      <path id="DejaVuSans-Oblique-6d" d="M 5747 2113 
L 5338 0 
L 4763 0 
L 5166 2094 
Q 5191 2228 5203 2325 
Q 5216 2422 5216 2491 
Q 5216 2772 5059 2928 
Q 4903 3084 4622 3084 
Q 4203 3084 3875 2770 
Q 3547 2456 3450 1953 
L 3066 0 
L 2491 0 
L 2900 2094 
Q 2925 2209 2937 2307 
Q 2950 2406 2950 2484 
Q 2950 2769 2794 2926 
Q 2638 3084 2363 3084 
Q 1938 3084 1609 2770 
Q 1281 2456 1184 1953 
L 800 0 
L 225 0 
L 909 3500 
L 1484 3500 
L 1375 2956 
Q 1609 3263 1923 3423 
Q 2238 3584 2597 3584 
Q 2978 3584 3223 3384 
Q 3469 3184 3519 2828 
Q 3781 3197 4126 3390 
Q 4472 3584 4856 3584 
Q 5306 3584 5551 3325 
Q 5797 3066 5797 2591 
Q 5797 2488 5784 2364 
Q 5772 2241 5747 2113 
z
" transform="scale(0.015625)"/>
      <path id="DejaVuSans-2220" d="M 5028 631 
L 5028 0 
L 547 0 
L 3525 4666 
L 4281 4666 
L 1716 631 
L 5028 631 
z
" transform="scale(0.015625)"/>
      <path id="DejaVuSans-Oblique-3b8" d="M 2913 2219 
L 925 2219 
Q 791 1284 928 888 
Q 1100 400 1566 400 
Q 2034 400 2391 891 
Q 2703 1322 2913 2219 
z
M 3009 2750 
Q 3094 3638 2984 3950 
Q 2813 4444 2353 4444 
Q 1875 4444 1525 3956 
Q 1250 3563 1034 2750 
L 3009 2750 
z
M 2444 4913 
Q 3194 4913 3494 4250 
Q 3794 3591 3566 2422 
Q 3341 1256 2781 594 
Q 2225 -72 1475 -72 
Q 722 -72 425 594 
Q 128 1256 353 2422 
Q 581 3591 1134 4250 
Q 1691 4913 2444 4913 
z
" transform="scale(0.015625)"/>
     </defs>
     <use xlink:href="#DejaVuSans-Oblique-56" transform="translate(0 0.234375)"/>
     <use xlink:href="#DejaVuSans-Oblique-73" transform="translate(68.408203 -16.171875) scale(0.7)"/>
     <use xlink:href="#DejaVuSans-3d" transform="translate(127.094727 0.234375)"/>
     <use xlink:href="#DejaVuSans-Oblique-56" transform="translate(230.366211 0.234375)"/>
     <use xlink:href="#DejaVuSans-Oblique-6d" transform="translate(298.774414 -16.171875) scale(0.7)"/>
     <use xlink:href="#DejaVuSans-2220" transform="translate(369.697266 0.234375)"/>
     <use xlink:href="#DejaVuSans-Oblique-3b8" transform="translate(459.345703 0.234375)"/>
    </g>
   </g>
   <g id="text_2">
    <!-- $R$ -->
    <g style="fill: #059669" transform="translate(105.698 18.064316) scale(0.11 -0.11)">
     <defs>
      <path id="DejaVuSans-Oblique-52" d="M 1613 4147 
L 1294 2491 
L 2106 2491 
Q 2584 2491 2879 2755 
Q 3175 3019 3175 3444 
Q 3175 3784 2976 3965 
Q 2778 4147 2406 4147 
L 1613 4147 
z
M 2772 2241 
Q 2972 2194 3105 2009 
Q 3238 1825 3413 1275 
L 3809 0 
L 3144 0 
L 2778 1197 
Q 2638 1659 2453 1815 
Q 2269 1972 1888 1972 
L 1191 1972 
L 806 0 
L 172 0 
L 1081 4666 
L 2503 4666 
Q 3150 4666 3495 4373 
Q 3841 4081 3841 3531 
Q 3841 3044 3547 2687 
Q 3253 2331 2772 2241 
z
" transform="scale(0.015625)"/>
     </defs>
     <use xlink:href="#DejaVuSans-Oblique-52" transform="translate(0 0.09375)"/>
    </g>
   </g>
   <g id="text_3">
    <!-- $Z_R = R$ -->
    <g transform="translate(99.063 50.590566) scale(0.09 -0.09)">
     <defs>
      <path id="DejaVuSans-Oblique-5a" d="M 838 4666 
L 4500 4666 
L 4409 4184 
L 794 531 
L 3769 531 
L 3669 0 
L -141 0 
L -50 481 
L 3566 4134 
L 738 4134 
L 838 4666 
z
" transform="scale(0.015625)"/>
     </defs>
     <use xlink:href="#DejaVuSans-Oblique-5a" transform="translate(0 0.09375)"/>
     <use xlink:href="#DejaVuSans-Oblique-52" transform="translate(68.505859 -16.3125) scale(0.7)"/>
     <use xlink:href="#DejaVuSans-3d" transform="translate(139.360352 0.09375)"/>
     <use xlink:href="#DejaVuSans-Oblique-52" transform="translate(242.631836 0.09375)"/>
    </g>
   </g>
   <g id="text_4">
    <!-- $L$ -->
    <g style="fill: #0891b2" transform="translate(214.468 13.392344) scale(0.11 -0.11)">
     <defs>
      <path id="DejaVuSans-Oblique-4c" d="M 1075 4666 
L 1709 4666 
L 909 525 
L 3181 525 
L 3078 0 
L 172 0 
L 1075 4666 
z
" transform="scale(0.015625)"/>
     </defs>
     <use xlink:href="#DejaVuSans-Oblique-4c" transform="translate(0 0.09375)"/>
    </g>
   </g>
   <g id="text_5">
    <!-- $Z_L = j\omega L$ -->
    <g transform="translate(203.103 50.591972) scale(0.09 -0.09)">
     <defs>
      <path id="DejaVuSans-Oblique-6a" d="M 928 3500 
L 1503 3500 
L 813 -63 
L 809 -78 
Q 694 -675 544 -897 
Q 403 -1106 132 -1218 
Q -138 -1331 -506 -1331 
L -722 -1331 
L -628 -844 
L -481 -844 
Q -144 -844 -1 -703 
Q 141 -563 238 -63 
L 928 3500 
z
M 1197 4863 
L 1772 4863 
L 1631 4134 
L 1056 4134 
L 1197 4863 
z
" transform="scale(0.015625)"/>
      <path id="DejaVuSans-Oblique-3c9" d="M 1369 -91 
Q 72 -91 434 1766 
Q 575 2500 1256 3500 
L 1875 3500 
Q 1231 2500 1088 1750 
Q 819 397 1519 397 
Q 2166 397 2478 2078 
L 3009 2078 
Q 2669 388 3316 397 
Q 4013 403 4275 1750 
Q 4419 2500 4169 3500 
L 4788 3500 
Q 5075 2500 4934 1766 
Q 4578 -94 3278 -91 
Q 2428 -88 2503 844 
Q 2194 -91 1369 -91 
z
" transform="scale(0.015625)"/>
     </defs>
     <use xlink:href="#DejaVuSans-Oblique-5a" transform="translate(0 0.015625)"/>
     <use xlink:href="#DejaVuSans-Oblique-4c" transform="translate(68.505859 -16.390625) scale(0.7)"/>
     <use xlink:href="#DejaVuSans-3d" transform="translate(129.72168 0.015625)"/>
     <use xlink:href="#DejaVuSans-Oblique-6a" transform="translate(232.993164 0.015625)"/>
     <use xlink:href="#DejaVuSans-Oblique-3c9" transform="translate(260.776367 0.015625)"/>
     <use xlink:href="#DejaVuSans-Oblique-4c" transform="translate(344.516602 0.015625)"/>
    </g>
   </g>
   <g id="text_6">
    <!-- $C$ -->
    <g style="fill: #7c3aed" transform="translate(321.698 18.064316) scale(0.11 -0.11)">
     <defs>
      <path id="DejaVuSans-Oblique-43" d="M 4447 4306 
L 4319 3641 
Q 4019 3944 3683 4091 
Q 3347 4238 2956 4238 
Q 2422 4238 2017 3981 
Q 1613 3725 1319 3200 
Q 1131 2863 1032 2486 
Q 934 2109 934 1728 
Q 934 1091 1264 756 
Q 1594 422 2222 422 
Q 2656 422 3056 561 
Q 3456 700 3834 978 
L 3688 231 
Q 3316 72 2936 -9 
Q 2556 -91 2175 -91 
Q 1278 -91 773 396 
Q 269 884 269 1753 
Q 269 2309 461 2846 
Q 653 3384 1013 3828 
Q 1394 4300 1883 4525 
Q 2372 4750 3022 4750 
Q 3422 4750 3780 4639 
Q 4138 4528 4447 4306 
z
" transform="scale(0.015625)"/>
     </defs>
     <use xlink:href="#DejaVuSans-Oblique-43" transform="translate(0 0.78125)"/>
    </g>
   </g>
   <g id="text_7">
    <!-- $Z_C = \frac{1}{j\omega C}$ -->
    <g transform="translate(311.913 52.301972) scale(0.09 -0.09)">
     <defs>
      <path id="DejaVuSans-31" d="M 794 531 
L 1825 531 
L 1825 4091 
L 703 3866 
L 703 4441 
L 1819 4666 
L 2450 4666 
L 2450 531 
L 3481 531 
L 3481 0 
L 794 0 
L 794 531 
z
" transform="scale(0.015625)"/>
     </defs>
     <use xlink:href="#DejaVuSans-Oblique-5a" transform="translate(0 0.16875)"/>
     <use xlink:href="#DejaVuSans-Oblique-43" transform="translate(68.505859 -16.2375) scale(0.7)"/>
     <use xlink:href="#DejaVuSans-3d" transform="translate(139.599609 0.16875)"/>
     <use xlink:href="#DejaVuSans-31" transform="translate(283.871094 43.965625) scale(0.7)"/>
     <use xlink:href="#DejaVuSans-Oblique-6a" transform="translate(242.871094 -40.473437) scale(0.7)"/>
     <use xlink:href="#DejaVuSans-Oblique-3c9" transform="translate(262.319336 -40.473437) scale(0.7)"/>
     <use xlink:href="#DejaVuSans-Oblique-43" transform="translate(320.9375 -40.473437) scale(0.7)"/>
     <path d="M 242.871094 18.965625 
L 242.871094 25.215625 
L 369.814453 25.215625 
L 369.814453 18.965625 
L 242.871094 18.965625 
z
"/>
    </g>
   </g>
   <g id="text_8">
    <!-- $\mathbf{Z}_{total} = R + j\omega L + \frac{1}{j\omega C}$ -->
    <g transform="translate(164.898 218.501972) scale(0.1 -0.1)">
     <defs>
      <path id="DejaVuSans-Bold-5a" d="M 359 4666 
L 4281 4666 
L 4281 3938 
L 1778 909 
L 4353 909 
L 4353 0 
L 288 0 
L 288 728 
L 2791 3756 
L 359 3756 
L 359 4666 
z
" transform="scale(0.015625)"/>
      <path id="DejaVuSans-Oblique-74" d="M 2706 3500 
L 2619 3053 
L 1472 3053 
L 1100 1153 
Q 1081 1047 1072 975 
Q 1063 903 1063 863 
Q 1063 663 1183 572 
Q 1303 481 1569 481 
L 2150 481 
L 2053 0 
L 1503 0 
Q 991 0 739 200 
Q 488 400 488 806 
Q 488 878 497 964 
Q 506 1050 525 1153 
L 897 3053 
L 409 3053 
L 500 3500 
L 978 3500 
L 1172 4494 
L 1747 4494 
L 1556 3500 
L 2706 3500 
z
" transform="scale(0.015625)"/>
      <path id="DejaVuSans-Oblique-6f" d="M 1625 -91 
Q 1009 -91 651 289 
Q 294 669 294 1325 
Q 294 1706 417 2101 
Q 541 2497 738 2766 
Q 1047 3184 1428 3384 
Q 1809 3584 2291 3584 
Q 2888 3584 3255 3212 
Q 3622 2841 3622 2241 
Q 3622 1825 3500 1412 
Q 3378 1000 3181 728 
Q 2875 309 2494 109 
Q 2113 -91 1625 -91 
z
M 891 1344 
Q 891 869 1089 633 
Q 1288 397 1691 397 
Q 2269 397 2648 901 
Q 3028 1406 3028 2181 
Q 3028 2634 2825 2865 
Q 2622 3097 2228 3097 
Q 1903 3097 1650 2945 
Q 1397 2794 1197 2484 
Q 1050 2253 970 1956 
Q 891 1659 891 1344 
z
" transform="scale(0.015625)"/>
      <path id="DejaVuSans-Oblique-61" d="M 3438 1997 
L 3047 0 
L 2472 0 
L 2578 531 
Q 2325 219 2001 64 
Q 1678 -91 1281 -91 
Q 834 -91 548 182 
Q 263 456 263 884 
Q 263 1497 752 1853 
Q 1241 2209 2100 2209 
L 2900 2209 
L 2931 2363 
Q 2938 2388 2941 2417 
Q 2944 2447 2944 2509 
Q 2944 2788 2717 2942 
Q 2491 3097 2081 3097 
Q 1800 3097 1504 3025 
Q 1209 2953 897 2809 
L 997 3341 
Q 1322 3463 1633 3523 
Q 1944 3584 2234 3584 
Q 2853 3584 3176 3315 
Q 3500 3047 3500 2534 
Q 3500 2431 3484 2292 
Q 3469 2153 3438 1997 
z
M 2816 1759 
L 2241 1759 
Q 1534 1759 1195 1570 
Q 856 1381 856 984 
Q 856 709 1029 553 
Q 1203 397 1509 397 
Q 1978 397 2328 733 
Q 2678 1069 2791 1631 
L 2816 1759 
z
" transform="scale(0.015625)"/>
      <path id="DejaVuSans-Oblique-6c" d="M 1172 4863 
L 1747 4863 
L 800 0 
L 225 0 
L 1172 4863 
z
" transform="scale(0.015625)"/>
      <path id="DejaVuSans-2b" d="M 2944 4013 
L 2944 2272 
L 4684 2272 
L 4684 1741 
L 2944 1741 
L 2944 0 
L 2419 0 
L 2419 1741 
L 678 1741 
L 678 2272 
L 2419 2272 
L 2419 4013 
L 2944 4013 
z
" transform="scale(0.015625)"/>
     </defs>
     <use xlink:href="#DejaVuSans-Bold-5a" transform="translate(0 0.16875)"/>
     <use xlink:href="#DejaVuSans-Oblique-74" transform="translate(73.466797 -16.2375) scale(0.7)"/>
     <use xlink:href="#DejaVuSans-Oblique-6f" transform="translate(100.913086 -16.2375) scale(0.7)"/>
     <use xlink:href="#DejaVuSans-Oblique-74" transform="translate(143.740234 -16.2375) scale(0.7)"/>
     <use xlink:href="#DejaVuSans-Oblique-61" transform="translate(171.186523 -16.2375) scale(0.7)"/>
     <use xlink:href="#DejaVuSans-Oblique-6c" transform="translate(214.082031 -16.2375) scale(0.7)"/>
     <use xlink:href="#DejaVuSans-3d" transform="translate(255.74707 0.16875)"/>
     <use xlink:href="#DejaVuSans-Oblique-52" transform="translate(359.018555 0.16875)"/>
     <use xlink:href="#DejaVuSans-2b" transform="translate(447.983398 0.16875)"/>
     <use xlink:href="#DejaVuSans-Oblique-6a" transform="translate(551.254883 0.16875)"/>
     <use xlink:href="#DejaVuSans-Oblique-3c9" transform="translate(579.038086 0.16875)"/>
     <use xlink:href="#DejaVuSans-Oblique-4c" transform="translate(662.77832 0.16875)"/>
     <use xlink:href="#DejaVuSans-2b" transform="translate(737.973633 0.16875)"/>
     <use xlink:href="#DejaVuSans-31" transform="translate(882.245117 43.965625) scale(0.7)"/>
     <use xlink:href="#DejaVuSans-Oblique-6a" transform="translate(841.245117 -40.473437) scale(0.7)"/>
     <use xlink:href="#DejaVuSans-Oblique-3c9" transform="translate(860.693359 -40.473437) scale(0.7)"/>
     <use xlink:href="#DejaVuSans-Oblique-43" transform="translate(919.311523 -40.473437) scale(0.7)"/>
     <path d="M 841.245117 18.965625 
L 841.245117 25.215625 
L 968.188477 25.215625 
L 968.188477 18.965625 
L 841.245117 18.965625 
z
"/>
    </g>
   </g>
   <g id="text_9">
    <!-- $\mathbf{Z} = R + j(X_L - X_C)$ -->
    <g transform="translate(171.598 248.101972) scale(0.1 -0.1)">
     <defs>
      <path id="DejaVuSans-28" d="M 1984 4856 
Q 1566 4138 1362 3434 
Q 1159 2731 1159 2009 
Q 1159 1288 1364 580 
Q 1569 -128 1984 -844 
L 1484 -844 
Q 1016 -109 783 600 
Q 550 1309 550 2009 
Q 550 2706 781 3412 
Q 1013 4119 1484 4856 
L 1984 4856 
z
" transform="scale(0.015625)"/>
      <path id="DejaVuSans-Oblique-58" d="M 878 4666 
L 1516 4666 
L 2316 2981 
L 3763 4666 
L 4500 4666 
L 2578 2438 
L 3738 0 
L 3103 0 
L 2163 1966 
L 459 0 
L -275 0 
L 1906 2509 
L 878 4666 
z
" transform="scale(0.015625)"/>
      <path id="DejaVuSans-2212" d="M 678 2272 
L 4684 2272 
L 4684 1741 
L 678 1741 
L 678 2272 
z
" transform="scale(0.015625)"/>
      <path id="DejaVuSans-29" d="M 513 4856 
L 1013 4856 
Q 1481 4119 1714 3412 
Q 1947 2706 1947 2009 
Q 1947 1309 1714 600 
Q 1481 -109 1013 -844 
L 513 -844 
Q 928 -128 1133 580 
Q 1338 1288 1338 2009 
Q 1338 2731 1133 3434 
Q 928 4138 513 4856 
z
" transform="scale(0.015625)"/>
     </defs>
     <use xlink:href="#DejaVuSans-Bold-5a" transform="translate(0 0.015625)"/>
     <use xlink:href="#DejaVuSans-3d" transform="translate(91.992188 0.015625)"/>
     <use xlink:href="#DejaVuSans-Oblique-52" transform="translate(195.263672 0.015625)"/>
     <use xlink:href="#DejaVuSans-2b" transform="translate(284.228516 0.015625)"/>
     <use xlink:href="#DejaVuSans-Oblique-6a" transform="translate(387.5 0.015625)"/>
     <use xlink:href="#DejaVuSans-28" transform="translate(415.283203 0.015625)"/>
     <use xlink:href="#DejaVuSans-Oblique-58" transform="translate(454.296875 0.015625)"/>
     <use xlink:href="#DejaVuSans-Oblique-4c" transform="translate(522.802734 -16.390625) scale(0.7)"/>
     <use xlink:href="#DejaVuSans-2212" transform="translate(584.018555 0.015625)"/>
     <use xlink:href="#DejaVuSans-Oblique-58" transform="translate(687.290039 0.015625)"/>
     <use xlink:href="#DejaVuSans-Oblique-43" transform="translate(755.795898 -16.390625) scale(0.7)"/>
     <use xlink:href="#DejaVuSans-29" transform="translate(807.407227 0.015625)"/>
    </g>
   </g>
   <g id="text_10">
    <!-- $|\mathbf{Z}| = \sqrt{R^2 + (X_L - X_C)^2}$ -->
    <g transform="translate(159.248 279.351972) scale(0.1 -0.1)">
     <defs>
      <path id="DejaVuSans-7c" d="M 1344 4891 
L 1344 -1509 
L 813 -1509 
L 813 4891 
L 1344 4891 
z
" transform="scale(0.015625)"/>
      <path id="STIXSizeOneSym-Regular-221a" d="M 6970 9933 
L 3373 -1888 
L 3104 -1888 
L 1626 2918 
Q 1555 3149 1465 3251 
Q 1376 3354 1229 3354 
Q 1011 3354 794 3181 
L 717 3309 
L 1766 4115 
L 1926 4115 
L 3379 -602 
L 3405 -602 
L 6605 9933 
L 6970 9933 
z
" transform="scale(0.015625)"/>
      <path id="DejaVuSans-32" d="M 1228 531 
L 3431 531 
L 3431 0 
L 469 0 
L 469 531 
Q 828 903 1448 1529 
Q 2069 2156 2228 2338 
Q 2531 2678 2651 2914 
Q 2772 3150 2772 3378 
Q 2772 3750 2511 3984 
Q 2250 4219 1831 4219 
Q 1534 4219 1204 4116 
Q 875 4013 500 3803 
L 500 4441 
Q 881 4594 1212 4672 
Q 1544 4750 1819 4750 
Q 2544 4750 2975 4387 
Q 3406 4025 3406 3419 
Q 3406 3131 3298 2873 
Q 3191 2616 2906 2266 
Q 2828 2175 2409 1742 
Q 1991 1309 1228 531 
z
" transform="scale(0.015625)"/>
     </defs>
     <use xlink:href="#DejaVuSans-7c" transform="translate(0 0.870312)"/>
     <use xlink:href="#DejaVuSans-Bold-5a" transform="translate(33.691406 0.870312)"/>
     <use xlink:href="#DejaVuSans-7c" transform="translate(106.201172 0.870312)"/>
     <use xlink:href="#DejaVuSans-3d" transform="translate(159.375 0.870312)"/>
     <use xlink:href="#STIXSizeOneSym-Regular-221a" transform="translate(262.646484 5.59375) scale(0.751941)"/>
     <use xlink:href="#DejaVuSans-Oblique-52" transform="translate(354.68573 0.515625)"/>
     <use xlink:href="#DejaVuSans-32" transform="translate(431.184923 38.796875) scale(0.7)"/>
     <use xlink:href="#DejaVuSans-2b" transform="translate(497.937852 0.515625)"/>
     <use xlink:href="#DejaVuSans-28" transform="translate(601.209337 0.515625)"/>
     <use xlink:href="#DejaVuSans-Oblique-58" transform="translate(640.223009 0.515625)"/>
     <use xlink:href="#DejaVuSans-Oblique-4c" transform="translate(708.728868 -15.890625) scale(0.7)"/>
     <use xlink:href="#DejaVuSans-2212" transform="translate(769.944688 0.515625)"/>
     <use xlink:href="#DejaVuSans-Oblique-58" transform="translate(873.216173 0.515625)"/>
     <use xlink:href="#DejaVuSans-Oblique-43" transform="translate(941.722032 -15.890625) scale(0.7)"/>
     <use xlink:href="#DejaVuSans-29" transform="translate(993.33336 0.515625)"/>
     <use xlink:href="#DejaVuSans-32" transform="translate(1033.304063 38.796875) scale(0.7)"/>
     <path d="M 342.18573 115.5 
L 342.18573 121.75 
L 1093.074571 121.75 
L 1093.074571 115.5 
L 342.18573 115.5 
z
"/>
    </g>
   </g>
   <g id="line2d_9">
    <path d="M 95.148 32.951972 
L 95.148 32.951972 
" clip-path="url(#p18d56a8674)" style="fill: none; stroke: #dc2626; stroke-width: 2; stroke-linecap: round"/>
   </g>
   <g id="patch_3">
    <path d="M 95.148 38.351972 
L 84.348 32.951972 
L 95.148 27.551972 
z
" clip-path="url(#p18d56a8674)" style="fill: #dc2626"/>
   </g>
   <g id="text_11">
    <!-- $\mathbf{I}$ -->
    <g style="fill: #dc2626" transform="translate(87.658 19.864316) scale(0.11 -0.11)">
     <defs>
      <path id="DejaVuSans-Bold-49" d="M 588 4666 
L 1791 4666 
L 1791 0 
L 588 0 
L 588 4666 
z
" transform="scale(0.015625)"/>
     </defs>
     <use xlink:href="#DejaVuSans-Bold-49" transform="translate(0 0.09375)"/>
    </g>
   </g>
  </g>
 </g>
 <defs>
  <clipPath id="p18d56a8674">
   <rect x="0" y="0" width="384.228" height="283.831972"/>
  </clipPath>
 </defs>
</svg>
